<svg version="1.1" viewBox="0.0 0.0 652.0 371.0" fill="none" stroke="none" stroke-linecap="square" stroke-miterlimit="10" width="652" height="371" xmlns:xlink="http://www.w3.org/1999/xlink" xmlns="http://www.w3.org/2000/svg"><path fill="#ffffff" d="M0 0L652.0 0L652.0 371.0L0 371.0L0 0Z" fill-rule="nonzero"/><path stroke="#333333" stroke-width="1.0" stroke-linecap="butt" d="M52.5 332.5L633.5 332.5" fill-rule="nonzero"/><path stroke="#cccccc" stroke-width="1.0" stroke-linecap="butt" d="M52.5 255.5L633.5 255.5" fill-rule="nonzero"/><path stroke="#cccccc" stroke-width="1.0" stroke-linecap="butt" d="M52.5 179.5L633.5 179.5" fill-rule="nonzero"/><path stroke="#cccccc" stroke-width="1.0" stroke-linecap="butt" d="M52.5 102.5L633.5 102.5" fill-rule="nonzero"/><path stroke="#cccccc" stroke-width="1.0" stroke-linecap="butt" d="M52.5 25.5L633.5 25.5" fill-rule="nonzero"/><clipPath id="id_0"><path d="M52.55 25.55L633.45 25.55L633.45 332.45L52.55 332.45L52.55 25.55Z" clip-rule="nonzero"/></clipPath><path stroke="#4285f4" stroke-width="2.0" stroke-linecap="butt" clip-path="url(#id_0)" d="M73.296425 332.4407L114.78928 332.35907L156.28215 332.04306L197.775 331.20917L239.26785 329.41016L280.7607 326.07532L322.25357 320.3647L363.74643 310.97412L405.2393 296.43286L446.73215 275.5291L488.225 246.01671L529.71783 204.92087L571.2107 149.62671L612.70355 76.44189" fill-rule="nonzero"/><path fill="#000000" fill-opacity="0.0" clip-path="url(#id_0)" d="M76.296425 332.4407C76.296425 334.09753 74.953285 335.4407 73.296425 335.4407C71.63957 335.4407 70.296425 334.09753 70.296425 332.4407C70.296425 330.78384 71.63957 329.4407 73.296425 329.4407C74.953285 329.4407 76.296425 330.78384 76.296425 332.4407Z" fill-rule="nonzero"/><path fill="#000000" fill-opacity="0.0" clip-path="url(#id_0)" d="M117.78928 332.35907C117.78928 334.0159 116.44614 335.35907 114.78928 335.35907C113.13243 335.35907 111.78928 334.0159 111.78928 332.35907C111.78928 330.7022 113.13243 329.35907 114.78928 329.35907C116.44614 329.35907 117.78928 330.7022 117.78928 332.35907Z" fill-rule="nonzero"/><path fill="#000000" fill-opacity="0.0" clip-path="url(#id_0)" d="M159.28215 332.04306C159.28215 333.69992 157.939 335.04306 156.28215 335.04306C154.62529 335.04306 153.28215 333.69992 153.28215 332.04306C153.28215 330.3862 154.62529 329.04306 156.28215 329.04306C157.939 329.04306 159.28215 330.3862 159.28215 332.04306Z" fill-rule="nonzero"/><path fill="#000000" fill-opacity="0.0" clip-path="url(#id_0)" d="M200.775 331.20917C200.775 332.866 199.43185 334.20917 197.775 334.20917C196.11815 334.20917 194.775 332.866 194.775 331.20917C194.775 329.5523 196.11815 328.20917 197.775 328.20917C199.43185 328.20917 200.775 329.5523 200.775 331.20917Z" fill-rule="nonzero"/><path fill="#000000" fill-opacity="0.0" clip-path="url(#id_0)" d="M242.26785 329.41016C242.26785 331.06702 240.92471 332.41016 239.26785 332.41016C237.61101 332.41016 236.26785 331.06702 236.26785 329.41016C236.26785 327.75333 237.61101 326.41016 239.26785 326.41016C240.92471 326.41016 242.26785 327.75333 242.26785 329.41016Z" fill-rule="nonzero"/><path fill="#000000" fill-opacity="0.0" clip-path="url(#id_0)" d="M283.7607 326.07532C283.7607 327.73218 282.41757 329.07532 280.7607 329.07532C279.10385 329.07532 277.7607 327.73218 277.7607 326.07532C277.7607 324.4185 279.10385 323.07532 280.7607 323.07532C282.41757 323.07532 283.7607 324.4185 283.7607 326.07532Z" fill-rule="nonzero"/><path fill="#000000" fill-opacity="0.0" clip-path="url(#id_0)" d="M325.25357 320.3647C325.25357 322.02155 323.91043 323.3647 322.25357 323.3647C320.5967 323.3647 319.25357 322.02155 319.25357 320.3647C319.25357 318.70782 320.5967 317.3647 322.25357 317.3647C323.91043 317.3647 325.25357 318.70782 325.25357 320.3647Z" fill-rule="nonzero"/><path fill="#000000" fill-opacity="0.0" clip-path="url(#id_0)" d="M366.74643 310.97412C366.74643 312.63098 365.4033 313.97412 363.74643 313.97412C362.08957 313.97412 360.74643 312.63098 360.74643 310.97412C360.74643 309.31726 362.08957 307.97412 363.74643 307.97412C365.4033 307.97412 366.74643 309.31726 366.74643 310.97412Z" fill-rule="nonzero"/><path fill="#000000" fill-opacity="0.0" clip-path="url(#id_0)" d="M408.2393 296.43286C408.2393 298.08972 406.89615 299.43286 405.2393 299.43286C403.58243 299.43286 402.2393 298.08972 402.2393 296.43286C402.2393 294.776 403.58243 293.43286 405.2393 293.43286C406.89615 293.43286 408.2393 294.776 408.2393 296.43286Z" fill-rule="nonzero"/><path fill="#000000" fill-opacity="0.0" clip-path="url(#id_0)" d="M449.73215 275.5291C449.73215 277.18597 448.389 278.5291 446.73215 278.5291C445.0753 278.5291 443.73215 277.18597 443.73215 275.5291C443.73215 273.87225 445.0753 272.5291 446.73215 272.5291C448.389 272.5291 449.73215 273.87225 449.73215 275.5291Z" fill-rule="nonzero"/><path fill="#000000" fill-opacity="0.0" clip-path="url(#id_0)" d="M491.225 246.01671C491.225 247.67355 489.88187 249.01671 488.225 249.01671C486.56815 249.01671 485.225 247.67355 485.225 246.01671C485.225 244.35985 486.56815 243.01671 488.225 243.01671C489.88187 243.01671 491.225 244.35985 491.225 246.01671Z" fill-rule="nonzero"/><path fill="#000000" fill-opacity="0.0" clip-path="url(#id_0)" d="M532.71783 204.92087C532.71783 206.57771 531.3747 207.92087 529.71783 207.92087C528.061 207.92087 526.71783 206.57771 526.71783 204.92087C526.71783 203.264 528.061 201.92087 529.71783 201.92087C531.3747 201.92087 532.71783 203.264 532.71783 204.92087Z" fill-rule="nonzero"/><path fill="#000000" fill-opacity="0.0" clip-path="url(#id_0)" d="M574.2107 149.62671C574.2107 151.28355 572.86755 152.62671 571.2107 152.62671C569.55383 152.62671 568.2107 151.28355 568.2107 149.62671C568.2107 147.96985 569.55383 146.62671 571.2107 146.62671C572.86755 146.62671 574.2107 147.96985 574.2107 149.62671Z" fill-rule="nonzero"/><path fill="#000000" fill-opacity="0.0" clip-path="url(#id_0)" d="M615.70355 76.44189C615.70355 78.09874 614.3604 79.44189 612.70355 79.44189C611.0467 79.44189 609.70355 78.09874 609.70355 76.44189C609.70355 74.78503 611.0467 73.44189 612.70355 73.44189C614.3604 73.44189 615.70355 74.78503 615.70355 76.44189Z" fill-rule="nonzero"/><path fill="#000000" d="M40.05 332.21564Q40.05 330.6844 40.3625 329.7625Q40.675 328.825 41.284374 328.325Q41.909374 327.825 42.846874 327.825Q43.534374 327.825 44.05 328.10626Q44.58125 328.3875 44.925 328.91876Q45.26875 329.4344 45.45625 330.1844Q45.64375 330.9344 45.64375 332.21564Q45.64375 333.73126 45.33125 334.65314Q45.034374 335.575 44.409374 336.09064Q43.8 336.59064 42.846874 336.59064Q41.6125 336.59064 40.89375 335.7Q40.05 334.6375 40.05 332.21564ZM41.128124 332.21564Q41.128124 334.325 41.628124 335.02814Q42.128124 335.73126 42.846874 335.73126Q43.58125 335.73126 44.065624 335.02814Q44.565624 334.325 44.565624 332.21564Q44.565624 330.09064 44.065624 329.40314Q43.58125 328.7 42.83125 328.7Q42.1125 328.7 41.675 329.3094Q41.128124 330.09064 41.128124 332.21564Z" fill-rule="nonzero"/><path fill="#000000" d="M26.05 257.475L27.159374 257.38126Q27.284374 258.19376 27.721874 258.6Q28.175 259.00626 28.815624 259.00626Q29.565624 259.00626 30.096874 258.42813Q30.628124 257.85 30.628124 256.9125Q30.628124 256.00626 30.1125 255.49063Q29.6125 254.95938 28.784374 254.95938Q28.284374 254.95938 27.8625 255.19376Q27.45625 255.42813 27.221874 255.7875L26.2375 255.6625L27.065624 251.25626L31.346874 251.25626L31.346874 252.25626L27.909374 252.25626L27.45625 254.56876Q28.221874 254.02188 29.065624 254.02188Q30.190624 254.02188 30.95625 254.80313Q31.7375 255.58438 31.7375 256.81876Q31.7375 257.975 31.065624 258.83438Q30.2375 259.86563 28.815624 259.86563Q27.64375 259.86563 26.89375 259.20938Q26.159374 258.55313 26.05 257.475ZM33.05 255.49063Q33.05 253.95938 33.3625 253.0375Q33.675 252.1 34.284374 251.6Q34.909374 251.1 35.846874 251.1Q36.534374 251.1 37.05 251.38126Q37.58125 251.6625 37.925 252.19376Q38.26875 252.70938 38.45625 253.45938Q38.64375 254.20938 38.64375 255.49063Q38.64375 257.00626 38.33125 257.92813Q38.034374 258.85 37.409374 259.36563Q36.8 259.86563 35.846874 259.86563Q34.6125 259.86563 33.89375 258.975Q33.05 257.9125 33.05 255.49063ZM34.128124 255.49063Q34.128124 257.6 34.628124 258.30313Q35.128124 259.00626 35.846874 259.00626Q36.58125 259.00626 37.065624 258.30313Q37.565624 257.6 37.565624 255.49063Q37.565624 253.36563 37.065624 252.67813Q36.58125 251.975 35.83125 251.975Q35.1125 251.975 34.675 252.58438Q34.128124 253.36563 34.128124 255.49063ZM40.05 255.49063Q40.05 253.95938 40.3625 253.0375Q40.675 252.1 41.284374 251.6Q41.909374 251.1 42.846874 251.1Q43.534374 251.1 44.05 251.38126Q44.58125 251.6625 44.925 252.19376Q45.26875 252.70938 45.45625 253.45938Q45.64375 254.20938 45.64375 255.49063Q45.64375 257.00626 45.33125 257.92813Q45.034374 258.85 44.409374 259.36563Q43.8 259.86563 42.846874 259.86563Q41.6125 259.86563 40.89375 258.975Q40.05 257.9125 40.05 255.49063ZM41.128124 255.49063Q41.128124 257.6 41.628124 258.30313Q42.128124 259.00626 42.846874 259.00626Q43.58125 259.00626 44.065624 258.30313Q44.565624 257.6 44.565624 255.49063Q44.565624 253.36563 44.065624 252.67813Q43.58125 251.975 42.83125 251.975Q42.1125 251.975 41.675 252.58438Q41.128124 253.36563 41.128124 255.49063Z" fill-rule="nonzero"/><path fill="#000000" d="M23.01875 183.0L21.971874 183.0L21.971874 176.28125Q21.58125 176.64062 20.95625 177.01562Q20.346874 177.375 19.8625 177.54688L19.8625 176.53125Q20.7375 176.10938 21.39375 175.53125Q22.065624 174.9375 22.346874 174.375L23.01875 174.375L23.01875 183.0ZM26.05 178.76562Q26.05 177.23438 26.3625 176.3125Q26.675 175.375 27.284374 174.875Q27.909374 174.375 28.846874 174.375Q29.534374 174.375 30.05 174.65625Q30.58125 174.9375 30.925 175.46875Q31.26875 175.98438 31.45625 176.73438Q31.64375 177.48438 31.64375 178.76562Q31.64375 180.28125 31.33125 181.20312Q31.034374 182.125 30.409374 182.64062Q29.8 183.14062 28.846874 183.14062Q27.6125 183.14062 26.89375 182.25Q26.05 181.1875 26.05 178.76562ZM27.128124 178.76562Q27.128124 180.875 27.628124 181.57812Q28.128124 182.28125 28.846874 182.28125Q29.58125 182.28125 30.065624 181.57812Q30.565624 180.875 30.565624 178.76562Q30.565624 176.64062 30.065624 175.95312Q29.58125 175.25 28.83125 175.25Q28.1125 175.25 27.675 175.85938Q27.128124 176.64062 27.128124 178.76562ZM33.05 178.76562Q33.05 177.23438 33.3625 176.3125Q33.675 175.375 34.284374 174.875Q34.909374 174.375 35.846874 174.375Q36.534374 174.375 37.05 174.65625Q37.58125 174.9375 37.925 175.46875Q38.26875 175.98438 38.45625 176.73438Q38.64375 177.48438 38.64375 178.76562Q38.64375 180.28125 38.33125 181.20312Q38.034374 182.125 37.409374 182.64062Q36.8 183.14062 35.846874 183.14062Q34.6125 183.14062 33.89375 182.25Q33.05 181.1875 33.05 178.76562ZM34.128124 178.76562Q34.128124 180.875 34.628124 181.57812Q35.128124 182.28125 35.846874 182.28125Q36.58125 182.28125 37.065624 181.57812Q37.565624 180.875 37.565624 178.76562Q37.565624 176.64062 37.065624 175.95312Q36.58125 175.25 35.83125 175.25Q35.1125 175.25 34.675 175.85938Q34.128124 176.64062 34.128124 178.76562ZM40.05 178.76562Q40.05 177.23438 40.3625 176.3125Q40.675 175.375 41.284374 174.875Q41.909374 174.375 42.846874 174.375Q43.534374 174.375 44.05 174.65625Q44.58125 174.9375 44.925 175.46875Q45.26875 175.98438 45.45625 176.73438Q45.64375 177.48438 45.64375 178.76562Q45.64375 180.28125 45.33125 181.20312Q45.034374 182.125 44.409374 182.64062Q43.8 183.14062 42.846874 183.14062Q41.6125 183.14062 40.89375 182.25Q40.05 181.1875 40.05 178.76562ZM41.128124 178.76562Q41.128124 180.875 41.628124 181.57812Q42.128124 182.28125 42.846874 182.28125Q43.58125 182.28125 44.065624 181.57812Q44.565624 180.875 44.565624 178.76562Q44.565624 176.64062 44.065624 175.95312Q43.58125 175.25 42.83125 175.25Q42.1125 175.25 41.675 175.85938Q41.128124 176.64062 41.128124 178.76562Z" fill-rule="nonzero"/><path fill="#000000" d="M23.01875 106.275L21.971874 106.275L21.971874 99.55625Q21.58125 99.91563 20.95625 100.29063Q20.346874 100.65 19.8625 100.82188L19.8625 99.80625Q20.7375 99.38438 21.39375 98.80625Q22.065624 98.2125 22.346874 97.65L23.01875 97.65L23.01875 106.275ZM26.05 104.025L27.159374 103.93125Q27.284374 104.74375 27.721874 105.15Q28.175 105.55625 28.815624 105.55625Q29.565624 105.55625 30.096874 104.97813Q30.628124 104.4 30.628124 103.4625Q30.628124 102.55625 30.1125 102.04063Q29.6125 101.50938 28.784374 101.50938Q28.284374 101.50938 27.8625 101.74375Q27.45625 101.97813 27.221874 102.3375L26.2375 102.2125L27.065624 97.80625L31.346874 97.80625L31.346874 98.80625L27.909374 98.80625L27.45625 101.11875Q28.221874 100.57188 29.065624 100.57188Q30.190624 100.57188 30.95625 101.35313Q31.7375 102.13438 31.7375 103.36875Q31.7375 104.525 31.065624 105.38438Q30.2375 106.41563 28.815624 106.41563Q27.64375 106.41563 26.89375 105.75938Q26.159374 105.10313 26.05 104.025ZM33.05 102.04063Q33.05 100.50938 33.3625 99.5875Q33.675 98.65 34.284374 98.15Q34.909374 97.65 35.846874 97.65Q36.534374 97.65 37.05 97.93125Q37.58125 98.2125 37.925 98.74375Q38.26875 99.25938 38.45625 100.00938Q38.64375 100.75938 38.64375 102.04063Q38.64375 103.55625 38.33125 104.47813Q38.034374 105.4 37.409374 105.91563Q36.8 106.41563 35.846874 106.41563Q34.6125 106.41563 33.89375 105.525Q33.05 104.4625 33.05 102.04063ZM34.128124 102.04063Q34.128124 104.15 34.628124 104.85313Q35.128124 105.55625 35.846874 105.55625Q36.58125 105.55625 37.065624 104.85313Q37.565624 104.15 37.565624 102.04063Q37.565624 99.91563 37.065624 99.22813Q36.58125 98.525 35.83125 98.525Q35.1125 98.525 34.675 99.13438Q34.128124 99.91563 34.128124 102.04063ZM40.05 102.04063Q40.05 100.50938 40.3625 99.5875Q40.675 98.65 41.284374 98.15Q41.909374 97.65 42.846874 97.65Q43.534374 97.65 44.05 97.93125Q44.58125 98.2125 44.925 98.74375Q45.26875 99.25938 45.45625 100.00938Q45.64375 100.75938 45.64375 102.04063Q45.64375 103.55625 45.33125 104.47813Q45.034374 105.4 44.409374 105.91563Q43.8 106.41563 42.846874 106.41563Q41.6125 106.41563 40.89375 105.525Q40.05 104.4625 40.05 102.04063ZM41.128124 102.04063Q41.128124 104.15 41.628124 104.85313Q42.128124 105.55625 42.846874 105.55625Q43.58125 105.55625 44.065624 104.85313Q44.565624 104.15 44.565624 102.04063Q44.565624 99.91563 44.065624 99.22813Q43.58125 98.525 42.83125 98.525Q42.1125 98.525 41.675 99.13438Q41.128124 99.91563 41.128124 102.04063Z" fill-rule="nonzero"/><path fill="#000000" d="M24.596874 28.534374L24.596874 29.55L18.909374 29.55Q18.909374 29.175 19.034374 28.815624Q19.253124 28.2375 19.721874 27.675Q20.20625 27.1125 21.1125 26.378124Q22.51875 25.221874 23.003124 24.55Q23.503124 23.878124 23.503124 23.284374Q23.503124 22.659374 23.05 22.2375Q22.596874 21.8 21.878124 21.8Q21.1125 21.8 20.659374 22.253124Q20.20625 22.70625 20.190624 23.51875L19.1125 23.409374Q19.221874 22.190624 19.940624 21.565624Q20.675 20.925 21.909374 20.925Q23.14375 20.925 23.8625 21.6125Q24.58125 22.3 24.58125 23.315624Q24.58125 23.83125 24.3625 24.33125Q24.159374 24.815624 23.659374 25.378124Q23.175 25.925 22.05 26.878124Q21.096874 27.675 20.815624 27.971874Q20.55 28.253124 20.378124 28.534374L24.596874 28.534374ZM26.05 25.315624Q26.05 23.784374 26.3625 22.8625Q26.675 21.925 27.284374 21.425Q27.909374 20.925 28.846874 20.925Q29.534374 20.925 30.05 21.20625Q30.58125 21.4875 30.925 22.01875Q31.26875 22.534374 31.45625 23.284374Q31.64375 24.034374 31.64375 25.315624Q31.64375 26.83125 31.33125 27.753124Q31.034374 28.675 30.409374 29.190624Q29.8 29.690624 28.846874 29.690624Q27.6125 29.690624 26.89375 28.8Q26.05 27.7375 26.05 25.315624ZM27.128124 25.315624Q27.128124 27.425 27.628124 28.128124Q28.128124 28.83125 28.846874 28.83125Q29.58125 28.83125 30.065624 28.128124Q30.565624 27.425 30.565624 25.315624Q30.565624 23.190624 30.065624 22.503124Q29.58125 21.8 28.83125 21.8Q28.1125 21.8 27.675 22.409374Q27.128124 23.190624 27.128124 25.315624ZM33.05 25.315624Q33.05 23.784374 33.3625 22.8625Q33.675 21.925 34.284374 21.425Q34.909374 20.925 35.846874 20.925Q36.534374 20.925 37.05 21.20625Q37.58125 21.4875 37.925 22.01875Q38.26875 22.534374 38.45625 23.284374Q38.64375 24.034374 38.64375 25.315624Q38.64375 26.83125 38.33125 27.753124Q38.034374 28.675 37.409374 29.190624Q36.8 29.690624 35.846874 29.690624Q34.6125 29.690624 33.89375 28.8Q33.05 27.7375 33.05 25.315624ZM34.128124 25.315624Q34.128124 27.425 34.628124 28.128124Q35.128124 28.83125 35.846874 28.83125Q36.58125 28.83125 37.065624 28.128124Q37.565624 27.425 37.565624 25.315624Q37.565624 23.190624 37.065624 22.503124Q36.58125 21.8 35.83125 21.8Q35.1125 21.8 34.675 22.409374Q34.128124 23.190624 34.128124 25.315624ZM40.05 25.315624Q40.05 23.784374 40.3625 22.8625Q40.675 21.925 41.284374 21.425Q41.909374 20.925 42.846874 20.925Q43.534374 20.925 44.05 21.20625Q44.58125 21.4875 44.925 22.01875Q45.26875 22.534374 45.45625 23.284374Q45.64375 24.034374 45.64375 25.315624Q45.64375 26.83125 45.33125 27.753124Q45.034374 28.675 44.409374 29.190624Q43.8 29.690624 42.846874 29.690624Q41.6125 29.690624 40.89375 28.8Q40.05 27.7375 40.05 25.315624ZM41.128124 25.315624Q41.128124 27.425 41.628124 28.128124Q42.128124 28.83125 42.846874 28.83125Q43.58125 28.83125 44.065624 28.128124Q44.565624 27.425 44.565624 25.315624Q44.565624 23.190624 44.065624 22.503124Q43.58125 21.8 42.83125 21.8Q42.1125 21.8 41.675 22.409374Q41.128124 23.190624 41.128124 25.315624Z" fill-rule="nonzero"/><path fill="#000000" d="M63.76518 349.45L62.718304 349.45L62.718304 342.73126Q62.32768 343.09064 61.70268 343.46564Q61.093304 343.825 60.60893 343.9969L60.60893 342.98126Q61.48393 342.5594 62.14018 341.98126Q62.812054 341.3875 63.093304 340.825L63.76518 340.825L63.76518 349.45ZM66.79643 345.21564Q66.79643 343.6844 67.10893 342.7625Q67.42143 341.825 68.03081 341.325Q68.65581 340.825 69.59331 340.825Q70.28081 340.825 70.79643 341.10626Q71.32768 341.3875 71.67143 341.91876Q72.01518 342.4344 72.20268 343.1844Q72.39018 343.9344 72.39018 345.21564Q72.39018 346.73126 72.07768 347.65314Q71.78081 348.575 71.15581 349.09064Q70.54643 349.59064 69.59331 349.59064Q68.35893 349.59064 67.64018 348.7Q66.79643 347.6375 66.79643 345.21564ZM67.87456 345.21564Q67.87456 347.325 68.37456 348.02814Q68.87456 348.73126 69.59331 348.73126Q70.32768 348.73126 70.81206 348.02814Q71.31206 347.325 71.31206 345.21564Q71.31206 343.09064 70.81206 342.40314Q70.32768 341.7 69.57768 341.7Q68.85893 341.7 68.42143 342.3094Q67.87456 343.09064 67.87456 345.21564ZM73.79643 345.21564Q73.79643 343.6844 74.10893 342.7625Q74.42143 341.825 75.03081 341.325Q75.65581 340.825 76.59331 340.825Q77.28081 340.825 77.79643 341.10626Q78.32768 341.3875 78.67143 341.91876Q79.01518 342.4344 79.20268 343.1844Q79.39018 343.9344 79.39018 345.21564Q79.39018 346.73126 79.07768 347.65314Q78.78081 348.575 78.15581 349.09064Q77.54643 349.59064 76.59331 349.59064Q75.35893 349.59064 74.64018 348.7Q73.79643 347.6375 73.79643 345.21564ZM74.87456 345.21564Q74.87456 347.325 75.37456 348.02814Q75.87456 348.73126 76.59331 348.73126Q77.32768 348.73126 77.81206 348.02814Q78.31206 347.325 78.31206 345.21564Q78.31206 343.09064 77.81206 342.40314Q77.32768 341.7 76.57768 341.7Q75.85893 341.7 75.42143 342.3094Q74.87456 343.09064 74.87456 345.21564ZM80.79643 345.21564Q80.79643 343.6844 81.10893 342.7625Q81.42143 341.825 82.03081 341.325Q82.65581 340.825 83.59331 340.825Q84.28081 340.825 84.79643 341.10626Q85.32768 341.3875 85.67143 341.91876Q86.01518 342.4344 86.20268 343.1844Q86.39018 343.9344 86.39018 345.21564Q86.39018 346.73126 86.07768 347.65314Q85.78081 348.575 85.15581 349.09064Q84.54643 349.59064 83.59331 349.59064Q82.35893 349.59064 81.64018 348.7Q80.79643 347.6375 80.79643 345.21564ZM81.87456 345.21564Q81.87456 347.325 82.37456 348.02814Q82.87456 348.73126 83.59331 348.73126Q84.32768 348.73126 84.81206 348.02814Q85.31206 347.325 85.31206 345.21564Q85.31206 343.09064 84.81206 342.40314Q84.32768 341.7 83.57768 341.7Q82.85893 341.7 82.42143 342.3094Q81.87456 343.09064 81.87456 345.21564Z" fill-rule="nonzero"/><path fill="#000000" d="M106.83616 348.4344L106.83616 349.45L101.14866 349.45Q101.14866 349.075 101.27366 348.71564Q101.49241 348.1375 101.96116 347.575Q102.44553 347.0125 103.35178 346.27814Q104.75803 345.1219 105.24241 344.45Q105.74241 343.77814 105.74241 343.1844Q105.74241 342.5594 105.28928 342.1375Q104.83616 341.7 104.11741 341.7Q103.35178 341.7 102.89866 342.15314Q102.44553 342.60626 102.42991 343.41876L101.35178 343.3094Q101.46116 342.09064 102.17991 341.46564Q102.91428 340.825 104.14866 340.825Q105.38303 340.825 106.10178 341.5125Q106.82053 342.2 106.82053 343.21564Q106.82053 343.73126 106.60178 344.23126Q106.39866 344.71564 105.89866 345.27814Q105.41428 345.825 104.28928 346.77814Q103.33616 347.575 103.05491 347.8719Q102.78928 348.15314 102.61741 348.4344L106.83616 348.4344ZM108.28928 345.21564Q108.28928 343.6844 108.60178 342.7625Q108.91428 341.825 109.52366 341.325Q110.14866 340.825 111.08616 340.825Q111.77366 340.825 112.28928 341.10626Q112.82053 341.3875 113.16428 341.91876Q113.50803 342.4344 113.69553 343.1844Q113.88303 343.9344 113.88303 345.21564Q113.88303 346.73126 113.57053 347.65314Q113.27366 348.575 112.64866 349.09064Q112.03928 349.59064 111.08616 349.59064Q109.85178 349.59064 109.13303 348.7Q108.28928 347.6375 108.28928 345.21564ZM109.36741 345.21564Q109.36741 347.325 109.86741 348.02814Q110.36741 348.73126 111.08616 348.73126Q111.82053 348.73126 112.30491 348.02814Q112.80491 347.325 112.80491 345.21564Q112.80491 343.09064 112.30491 342.40314Q111.82053 341.7 111.07053 341.7Q110.35178 341.7 109.91428 342.3094Q109.36741 343.09064 109.36741 345.21564ZM115.28928 345.21564Q115.28928 343.6844 115.60178 342.7625Q115.91428 341.825 116.52366 341.325Q117.14866 340.825 118.08616 340.825Q118.77366 340.825 119.28928 341.10626Q119.82053 341.3875 120.16428 341.91876Q120.50803 342.4344 120.69553 343.1844Q120.88303 343.9344 120.88303 345.21564Q120.88303 346.73126 120.57053 347.65314Q120.27366 348.575 119.64866 349.09064Q119.03928 349.59064 118.08616 349.59064Q116.85178 349.59064 116.13303 348.7Q115.28928 347.6375 115.28928 345.21564ZM116.36741 345.21564Q116.36741 347.325 116.86741 348.02814Q117.36741 348.73126 118.08616 348.73126Q118.82053 348.73126 119.30491 348.02814Q119.80491 347.325 119.80491 345.21564Q119.80491 343.09064 119.30491 342.40314Q118.82053 341.7 118.07053 341.7Q117.35178 341.7 116.91428 342.3094Q116.36741 343.09064 116.36741 345.21564ZM122.28928 345.21564Q122.28928 343.6844 122.60178 342.7625Q122.91428 341.825 123.52366 341.325Q124.14866 340.825 125.08616 340.825Q125.77366 340.825 126.28928 341.10626Q126.82053 341.3875 127.16428 341.91876Q127.50803 342.4344 127.69553 343.1844Q127.88303 343.9344 127.88303 345.21564Q127.88303 346.73126 127.57053 347.65314Q127.27366 348.575 126.64866 349.09064Q126.03928 349.59064 125.08616 349.59064Q123.85178 349.59064 123.13303 348.7Q122.28928 347.6375 122.28928 345.21564ZM123.36741 345.21564Q123.36741 347.325 123.86741 348.02814Q124.36741 348.73126 125.08616 348.73126Q125.82053 348.73126 126.30491 348.02814Q126.80491 347.325 126.80491 345.21564Q126.80491 343.09064 126.30491 342.40314Q125.82053 341.7 125.07053 341.7Q124.35178 341.7 123.91428 342.3094Q123.36741 343.09064 123.36741 345.21564Z" fill-rule="nonzero"/><path fill="#000000" d="M142.78215 347.1844L143.84465 347.04376Q144.01653 347.9344 144.45403 348.34064Q144.89153 348.73126 145.51653 348.73126Q146.26653 348.73126 146.78215 348.21564Q147.29778 347.7 147.29778 346.9344Q147.29778 346.21564 146.8134 345.7469Q146.34465 345.2625 145.61028 345.2625Q145.3134 345.2625 144.86028 345.3875L144.98528 344.45Q145.09465 344.46564 145.15715 344.46564Q145.82903 344.46564 146.36028 344.1219Q146.90715 343.7625 146.90715 343.02814Q146.90715 342.45 146.51653 342.075Q146.1259 341.6844 145.5009 341.6844Q144.89153 341.6844 144.46965 342.075Q144.0634 342.46564 143.95403 343.23126L142.89153 343.04376Q143.07903 341.9969 143.76653 341.41876Q144.45403 340.825 145.46965 340.825Q146.17278 340.825 146.76653 341.1375Q147.36028 341.4344 147.67278 341.95Q147.98528 342.46564 147.98528 343.0594Q147.98528 343.60626 147.6884 344.075Q147.39153 344.52814 146.8134 344.79376Q147.5634 344.96564 147.98528 345.52814Q148.40715 346.075 148.40715 346.91876Q148.40715 348.04376 147.57903 348.825Q146.76653 349.60626 145.51653 349.60626Q144.39153 349.60626 143.64153 348.9344Q142.89153 348.2469 142.78215 347.1844ZM149.78215 345.21564Q149.78215 343.6844 150.09465 342.7625Q150.40715 341.825 151.01653 341.325Q151.64153 340.825 152.57903 340.825Q153.26653 340.825 153.78215 341.10626Q154.3134 341.3875 154.65715 341.91876Q155.0009 342.4344 155.1884 343.1844Q155.3759 343.9344 155.3759 345.21564Q155.3759 346.73126 155.0634 347.65314Q154.76653 348.575 154.14153 349.09064Q153.53215 349.59064 152.57903 349.59064Q151.34465 349.59064 150.6259 348.7Q149.78215 347.6375 149.78215 345.21564ZM150.86028 345.21564Q150.86028 347.325 151.36028 348.02814Q151.86028 348.73126 152.57903 348.73126Q153.3134 348.73126 153.79778 348.02814Q154.29778 347.325 154.29778 345.21564Q154.29778 343.09064 153.79778 342.40314Q153.3134 341.7 152.5634 341.7Q151.84465 341.7 151.40715 342.3094Q150.86028 343.09064 150.86028 345.21564ZM156.78215 345.21564Q156.78215 343.6844 157.09465 342.7625Q157.40715 341.825 158.01653 341.325Q158.64153 340.825 159.57903 340.825Q160.26653 340.825 160.78215 341.10626Q161.3134 341.3875 161.65715 341.91876Q162.0009 342.4344 162.1884 343.1844Q162.3759 343.9344 162.3759 345.21564Q162.3759 346.73126 162.0634 347.65314Q161.76653 348.575 161.14153 349.09064Q160.53215 349.59064 159.57903 349.59064Q158.34465 349.59064 157.6259 348.7Q156.78215 347.6375 156.78215 345.21564ZM157.86028 345.21564Q157.86028 347.325 158.36028 348.02814Q158.86028 348.73126 159.57903 348.73126Q160.3134 348.73126 160.79778 348.02814Q161.29778 347.325 161.29778 345.21564Q161.29778 343.09064 160.79778 342.40314Q160.3134 341.7 159.5634 341.7Q158.84465 341.7 158.40715 342.3094Q157.86028 343.09064 157.86028 345.21564ZM163.78215 345.21564Q163.78215 343.6844 164.09465 342.7625Q164.40715 341.825 165.01653 341.325Q165.64153 340.825 166.57903 340.825Q167.26653 340.825 167.78215 341.10626Q168.3134 341.3875 168.65715 341.91876Q169.0009 342.4344 169.1884 343.1844Q169.3759 343.9344 169.3759 345.21564Q169.3759 346.73126 169.0634 347.65314Q168.76653 348.575 168.14153 349.09064Q167.53215 349.59064 166.57903 349.59064Q165.34465 349.59064 164.6259 348.7Q163.78215 347.6375 163.78215 345.21564ZM164.86028 345.21564Q164.86028 347.325 165.36028 348.02814Q165.86028 348.73126 166.57903 348.73126Q167.3134 348.73126 167.79778 348.02814Q168.29778 347.325 168.29778 345.21564Q168.29778 343.09064 167.79778 342.40314Q167.3134 341.7 166.5634 341.7Q165.84465 341.7 165.40715 342.3094Q164.86028 343.09064 164.86028 345.21564Z" fill-rule="nonzero"/><path fill="#000000" d="M187.65 349.45L187.65 347.3875L183.93124 347.3875L183.93124 346.41876L187.85312 340.85626L188.7125 340.85626L188.7125 346.41876L189.86874 346.41876L189.86874 347.3875L188.7125 347.3875L188.7125 349.45L187.65 349.45ZM187.65 346.41876L187.65 342.5594L184.9625 346.41876L187.65 346.41876ZM191.275 345.21564Q191.275 343.6844 191.5875 342.7625Q191.9 341.825 192.50937 341.325Q193.13437 340.825 194.07187 340.825Q194.75937 340.825 195.275 341.10626Q195.80624 341.3875 196.15 341.91876Q196.49374 342.4344 196.68124 343.1844Q196.86874 343.9344 196.86874 345.21564Q196.86874 346.73126 196.55624 347.65314Q196.25937 348.575 195.63437 349.09064Q195.025 349.59064 194.07187 349.59064Q192.8375 349.59064 192.11874 348.7Q191.275 347.6375 191.275 345.21564ZM192.35312 345.21564Q192.35312 347.325 192.85312 348.02814Q193.35312 348.73126 194.07187 348.73126Q194.80624 348.73126 195.29062 348.02814Q195.79062 347.325 195.79062 345.21564Q195.79062 343.09064 195.29062 342.40314Q194.80624 341.7 194.05624 341.7Q193.3375 341.7 192.9 342.3094Q192.35312 343.09064 192.35312 345.21564ZM198.275 345.21564Q198.275 343.6844 198.5875 342.7625Q198.9 341.825 199.50937 341.325Q200.13437 340.825 201.07187 340.825Q201.75937 340.825 202.275 341.10626Q202.80624 341.3875 203.15 341.91876Q203.49374 342.4344 203.68124 343.1844Q203.86874 343.9344 203.86874 345.21564Q203.86874 346.73126 203.55624 347.65314Q203.25937 348.575 202.63437 349.09064Q202.025 349.59064 201.07187 349.59064Q199.8375 349.59064 199.11874 348.7Q198.275 347.6375 198.275 345.21564ZM199.35312 345.21564Q199.35312 347.325 199.85312 348.02814Q200.35312 348.73126 201.07187 348.73126Q201.80624 348.73126 202.29062 348.02814Q202.79062 347.325 202.79062 345.21564Q202.79062 343.09064 202.29062 342.40314Q201.80624 341.7 201.05624 341.7Q200.3375 341.7 199.9 342.3094Q199.35312 343.09064 199.35312 345.21564ZM205.275 345.21564Q205.275 343.6844 205.5875 342.7625Q205.9 341.825 206.50937 341.325Q207.13437 340.825 208.07187 340.825Q208.75937 340.825 209.275 341.10626Q209.80624 341.3875 210.15 341.91876Q210.49374 342.4344 210.68124 343.1844Q210.86874 343.9344 210.86874 345.21564Q210.86874 346.73126 210.55624 347.65314Q210.25937 348.575 209.63437 349.09064Q209.025 349.59064 208.07187 349.59064Q206.8375 349.59064 206.11874 348.7Q205.275 347.6375 205.275 345.21564ZM206.35312 345.21564Q206.35312 347.325 206.85312 348.02814Q207.35312 348.73126 208.07187 348.73126Q208.80624 348.73126 209.29062 348.02814Q209.79062 347.325 209.79062 345.21564Q209.79062 343.09064 209.29062 342.40314Q208.80624 341.7 208.05624 341.7Q207.3375 341.7 206.9 342.3094Q206.35312 343.09064 206.35312 345.21564Z" fill-rule="nonzero"/><path fill="#000000" d="M225.76785 347.2L226.87723 347.10626Q227.00223 347.91876 227.43973 348.325Q227.89285 348.73126 228.53348 348.73126Q229.28348 348.73126 229.81473 348.15314Q230.34598 347.575 230.34598 346.6375Q230.34598 345.73126 229.83035 345.21564Q229.33035 344.6844 228.50223 344.6844Q228.00223 344.6844 227.58035 344.91876Q227.1741 345.15314 226.93973 345.5125L225.95535 345.3875L226.78348 340.98126L231.06473 340.98126L231.06473 341.98126L227.62723 341.98126L227.1741 344.29376Q227.93973 343.7469 228.78348 343.7469Q229.90848 343.7469 230.6741 344.52814Q231.45535 345.3094 231.45535 346.54376Q231.45535 347.7 230.78348 348.5594Q229.95535 349.59064 228.53348 349.59064Q227.3616 349.59064 226.6116 348.9344Q225.87723 348.27814 225.76785 347.2ZM232.76785 345.21564Q232.76785 343.6844 233.08035 342.7625Q233.39285 341.825 234.00223 341.325Q234.62723 340.825 235.56473 340.825Q236.25223 340.825 236.76785 341.10626Q237.2991 341.3875 237.64285 341.91876Q237.9866 342.4344 238.1741 343.1844Q238.3616 343.9344 238.3616 345.21564Q238.3616 346.73126 238.0491 347.65314Q237.75223 348.575 237.12723 349.09064Q236.51785 349.59064 235.56473 349.59064Q234.33035 349.59064 233.6116 348.7Q232.76785 347.6375 232.76785 345.21564ZM233.84598 345.21564Q233.84598 347.325 234.34598 348.02814Q234.84598 348.73126 235.56473 348.73126Q236.2991 348.73126 236.78348 348.02814Q237.28348 347.325 237.28348 345.21564Q237.28348 343.09064 236.78348 342.40314Q236.2991 341.7 235.5491 341.7Q234.83035 341.7 234.39285 342.3094Q233.84598 343.09064 233.84598 345.21564ZM239.76785 345.21564Q239.76785 343.6844 240.08035 342.7625Q240.39285 341.825 241.00223 341.325Q241.62723 340.825 242.56473 340.825Q243.25223 340.825 243.76785 341.10626Q244.2991 341.3875 244.64285 341.91876Q244.9866 342.4344 245.1741 343.1844Q245.3616 343.9344 245.3616 345.21564Q245.3616 346.73126 245.0491 347.65314Q244.75223 348.575 244.12723 349.09064Q243.51785 349.59064 242.56473 349.59064Q241.33035 349.59064 240.6116 348.7Q239.76785 347.6375 239.76785 345.21564ZM240.84598 345.21564Q240.84598 347.325 241.34598 348.02814Q241.84598 348.73126 242.56473 348.73126Q243.2991 348.73126 243.78348 348.02814Q244.28348 347.325 244.28348 345.21564Q244.28348 343.09064 243.78348 342.40314Q243.2991 341.7 242.5491 341.7Q241.83035 341.7 241.39285 342.3094Q240.84598 343.09064 240.84598 345.21564ZM246.76785 345.21564Q246.76785 343.6844 247.08035 342.7625Q247.39285 341.825 248.00223 341.325Q248.62723 340.825 249.56473 340.825Q250.25223 340.825 250.76785 341.10626Q251.2991 341.3875 251.64285 341.91876Q251.9866 342.4344 252.1741 343.1844Q252.3616 343.9344 252.3616 345.21564Q252.3616 346.73126 252.0491 347.65314Q251.75223 348.575 251.12723 349.09064Q250.51785 349.59064 249.56473 349.59064Q248.33035 349.59064 247.6116 348.7Q246.76785 347.6375 246.76785 345.21564ZM247.84598 345.21564Q247.84598 347.325 248.34598 348.02814Q248.84598 348.73126 249.56473 348.73126Q250.2991 348.73126 250.78348 348.02814Q251.28348 347.325 251.28348 345.21564Q251.28348 343.09064 250.78348 342.40314Q250.2991 341.7 249.5491 341.7Q248.83035 341.7 248.39285 342.3094Q247.84598 343.09064 247.84598 345.21564Z" fill-rule="nonzero"/><path fill="#000000" d="M272.72946 342.96564L271.6826 343.04376Q271.54196 342.41876 271.29196 342.1375Q270.85446 341.6844 270.22946 341.6844Q269.72946 341.6844 269.33884 341.96564Q268.85446 342.34064 268.5576 343.04376Q268.27634 343.73126 268.2607 345.0125Q268.6357 344.4344 269.1826 344.15314Q269.7451 343.8719 270.35446 343.8719Q271.40134 343.8719 272.1357 344.65314Q272.8857 345.4344 272.8857 346.65314Q272.8857 347.46564 272.52634 348.16876Q272.1826 348.85626 271.5732 349.23126Q270.96384 349.59064 270.1982 349.59064Q268.8701 349.59064 268.04196 348.6219Q267.21384 347.65314 267.21384 345.4344Q267.21384 342.9344 268.1357 341.8094Q268.9326 340.825 270.29196 340.825Q271.3076 340.825 271.9482 341.40314Q272.60446 341.96564 272.72946 342.96564ZM268.4326 346.66876Q268.4326 347.21564 268.65134 347.71564Q268.8857 348.2 269.29196 348.46564Q269.71384 348.73126 270.1826 348.73126Q270.83884 348.73126 271.3232 348.2Q271.8076 347.65314 271.8076 346.73126Q271.8076 345.84064 271.3232 345.325Q270.85446 344.8094 270.1357 344.8094Q269.41696 344.8094 268.91696 345.325Q268.4326 345.84064 268.4326 346.66876ZM274.2607 345.21564Q274.2607 343.6844 274.5732 342.7625Q274.8857 341.825 275.4951 341.325Q276.1201 340.825 277.0576 340.825Q277.7451 340.825 278.2607 341.10626Q278.79196 341.3875 279.1357 341.91876Q279.47946 342.4344 279.66696 343.1844Q279.85446 343.9344 279.85446 345.21564Q279.85446 346.73126 279.54196 347.65314Q279.2451 348.575 278.6201 349.09064Q278.0107 349.59064 277.0576 349.59064Q275.8232 349.59064 275.10446 348.7Q274.2607 347.6375 274.2607 345.21564ZM275.33884 345.21564Q275.33884 347.325 275.83884 348.02814Q276.33884 348.73126 277.0576 348.73126Q277.79196 348.73126 278.27634 348.02814Q278.77634 347.325 278.77634 345.21564Q278.77634 343.09064 278.27634 342.40314Q277.79196 341.7 277.04196 341.7Q276.3232 341.7 275.8857 342.3094Q275.33884 343.09064 275.33884 345.21564ZM281.2607 345.21564Q281.2607 343.6844 281.5732 342.7625Q281.8857 341.825 282.4951 341.325Q283.1201 340.825 284.0576 340.825Q284.7451 340.825 285.2607 341.10626Q285.79196 341.3875 286.1357 341.91876Q286.47946 342.4344 286.66696 343.1844Q286.85446 343.9344 286.85446 345.21564Q286.85446 346.73126 286.54196 347.65314Q286.2451 348.575 285.6201 349.09064Q285.0107 349.59064 284.0576 349.59064Q282.8232 349.59064 282.10446 348.7Q281.2607 347.6375 281.2607 345.21564ZM282.33884 345.21564Q282.33884 347.325 282.83884 348.02814Q283.33884 348.73126 284.0576 348.73126Q284.79196 348.73126 285.27634 348.02814Q285.77634 347.325 285.77634 345.21564Q285.77634 343.09064 285.27634 342.40314Q284.79196 341.7 284.04196 341.7Q283.3232 341.7 282.8857 342.3094Q282.33884 343.09064 282.33884 345.21564ZM288.2607 345.21564Q288.2607 343.6844 288.5732 342.7625Q288.8857 341.825 289.4951 341.325Q290.1201 340.825 291.0576 340.825Q291.7451 340.825 292.2607 341.10626Q292.79196 341.3875 293.1357 341.91876Q293.47946 342.4344 293.66696 343.1844Q293.85446 343.9344 293.85446 345.21564Q293.85446 346.73126 293.54196 347.65314Q293.2451 348.575 292.6201 349.09064Q292.0107 349.59064 291.0576 349.59064Q289.8232 349.59064 289.10446 348.7Q288.2607 347.6375 288.2607 345.21564ZM289.33884 345.21564Q289.33884 347.325 289.83884 348.02814Q290.33884 348.73126 291.0576 348.73126Q291.79196 348.73126 292.27634 348.02814Q292.77634 347.325 292.77634 345.21564Q292.77634 343.09064 292.27634 342.40314Q291.79196 341.7 291.04196 341.7Q290.3232 341.7 289.8857 342.3094Q289.33884 343.09064 289.33884 345.21564Z" fill-rule="nonzero"/><path fill="#000000" d="M308.81607 341.98126L308.81607 340.96564L314.37857 340.96564L314.37857 341.79376Q313.56607 342.66876 312.75357 344.1219Q311.9567 345.5594 311.5192 347.09064Q311.19107 348.16876 311.11295 349.45L310.0192 349.45Q310.03482 348.4344 310.40982 346.9969Q310.80045 345.5594 311.50357 344.23126Q312.22232 342.90314 313.03482 341.98126L308.81607 341.98126ZM315.75357 345.21564Q315.75357 343.6844 316.06607 342.7625Q316.37857 341.825 316.98795 341.325Q317.61295 340.825 318.55045 340.825Q319.23795 340.825 319.75357 341.10626Q320.28482 341.3875 320.62857 341.91876Q320.97232 342.4344 321.15982 343.1844Q321.34732 343.9344 321.34732 345.21564Q321.34732 346.73126 321.03482 347.65314Q320.73795 348.575 320.11295 349.09064Q319.50357 349.59064 318.55045 349.59064Q317.31607 349.59064 316.59732 348.7Q315.75357 347.6375 315.75357 345.21564ZM316.8317 345.21564Q316.8317 347.325 317.3317 348.02814Q317.8317 348.73126 318.55045 348.73126Q319.28482 348.73126 319.7692 348.02814Q320.2692 347.325 320.2692 345.21564Q320.2692 343.09064 319.7692 342.40314Q319.28482 341.7 318.53482 341.7Q317.81607 341.7 317.37857 342.3094Q316.8317 343.09064 316.8317 345.21564ZM322.75357 345.21564Q322.75357 343.6844 323.06607 342.7625Q323.37857 341.825 323.98795 341.325Q324.61295 340.825 325.55045 340.825Q326.23795 340.825 326.75357 341.10626Q327.28482 341.3875 327.62857 341.91876Q327.97232 342.4344 328.15982 343.1844Q328.34732 343.9344 328.34732 345.21564Q328.34732 346.73126 328.03482 347.65314Q327.73795 348.575 327.11295 349.09064Q326.50357 349.59064 325.55045 349.59064Q324.31607 349.59064 323.59732 348.7Q322.75357 347.6375 322.75357 345.21564ZM323.8317 345.21564Q323.8317 347.325 324.3317 348.02814Q324.8317 348.73126 325.55045 348.73126Q326.28482 348.73126 326.7692 348.02814Q327.2692 347.325 327.2692 345.21564Q327.2692 343.09064 326.7692 342.40314Q326.28482 341.7 325.53482 341.7Q324.81607 341.7 324.37857 342.3094Q323.8317 343.09064 323.8317 345.21564ZM329.75357 345.21564Q329.75357 343.6844 330.06607 342.7625Q330.37857 341.825 330.98795 341.325Q331.61295 340.825 332.55045 340.825Q333.23795 340.825 333.75357 341.10626Q334.28482 341.3875 334.62857 341.91876Q334.97232 342.4344 335.15982 343.1844Q335.34732 343.9344 335.34732 345.21564Q335.34732 346.73126 335.03482 347.65314Q334.73795 348.575 334.11295 349.09064Q333.50357 349.59064 332.55045 349.59064Q331.31607 349.59064 330.59732 348.7Q329.75357 347.6375 329.75357 345.21564ZM330.8317 345.21564Q330.8317 347.325 331.3317 348.02814Q331.8317 348.73126 332.55045 348.73126Q333.28482 348.73126 333.7692 348.02814Q334.2692 347.325 334.2692 345.21564Q334.2692 343.09064 333.7692 342.40314Q333.28482 341.7 332.53482 341.7Q331.81607 341.7 331.37857 342.3094Q330.8317 343.09064 330.8317 345.21564Z" fill-rule="nonzero"/><path fill="#000000" d="M351.87143 344.79376Q351.21518 344.54376 350.88705 344.10626Q350.57455 343.65314 350.57455 343.04376Q350.57455 342.10626 351.24643 341.46564Q351.93393 340.825 353.0433 340.825Q354.1683 340.825 354.8558 341.48126Q355.5433 342.1375 355.5433 343.075Q355.5433 343.66876 355.2308 344.10626Q354.9183 344.54376 354.27768 344.79376Q355.07455 345.04376 355.4808 345.6219Q355.88705 346.2 355.88705 346.9969Q355.88705 348.09064 355.1058 348.84064Q354.34018 349.59064 353.05893 349.59064Q351.7933 349.59064 351.01205 348.84064Q350.2308 348.09064 350.2308 346.96564Q350.2308 346.1219 350.65268 345.5594Q351.09018 344.9969 351.87143 344.79376ZM351.65268 342.9969Q351.65268 343.60626 352.0433 343.9969Q352.44955 344.3875 353.07455 344.3875Q353.68393 344.3875 354.07455 344.0125Q354.46518 343.6219 354.46518 343.0594Q354.46518 342.48126 354.05893 342.09064Q353.65268 341.6844 353.05893 341.6844Q352.44955 341.6844 352.0433 342.075Q351.65268 342.46564 351.65268 342.9969ZM351.32455 346.96564Q351.32455 347.41876 351.52768 347.84064Q351.74643 348.2625 352.1683 348.4969Q352.59018 348.73126 353.07455 348.73126Q353.82455 348.73126 354.30893 348.2469Q354.80893 347.7625 354.80893 347.0125Q354.80893 346.2469 354.30893 345.7469Q353.80893 345.2469 353.0433 345.2469Q352.2933 345.2469 351.80893 345.7469Q351.32455 346.23126 351.32455 346.96564ZM357.24643 345.21564Q357.24643 343.6844 357.55893 342.7625Q357.87143 341.825 358.4808 341.325Q359.1058 340.825 360.0433 340.825Q360.7308 340.825 361.24643 341.10626Q361.77768 341.3875 362.12143 341.91876Q362.46518 342.4344 362.65268 343.1844Q362.84018 343.9344 362.84018 345.21564Q362.84018 346.73126 362.52768 347.65314Q362.2308 348.575 361.6058 349.09064Q360.99643 349.59064 360.0433 349.59064Q358.80893 349.59064 358.09018 348.7Q357.24643 347.6375 357.24643 345.21564ZM358.32455 345.21564Q358.32455 347.325 358.82455 348.02814Q359.32455 348.73126 360.0433 348.73126Q360.77768 348.73126 361.26205 348.02814Q361.76205 347.325 361.76205 345.21564Q361.76205 343.09064 361.26205 342.40314Q360.77768 341.7 360.02768 341.7Q359.30893 341.7 358.87143 342.3094Q358.32455 343.09064 358.32455 345.21564ZM364.24643 345.21564Q364.24643 343.6844 364.55893 342.7625Q364.87143 341.825 365.4808 341.325Q366.1058 340.825 367.0433 340.825Q367.7308 340.825 368.24643 341.10626Q368.77768 341.3875 369.12143 341.91876Q369.46518 342.4344 369.65268 343.1844Q369.84018 343.9344 369.84018 345.21564Q369.84018 346.73126 369.52768 347.65314Q369.2308 348.575 368.6058 349.09064Q367.99643 349.59064 367.0433 349.59064Q365.80893 349.59064 365.09018 348.7Q364.24643 347.6375 364.24643 345.21564ZM365.32455 345.21564Q365.32455 347.325 365.82455 348.02814Q366.32455 348.73126 367.0433 348.73126Q367.77768 348.73126 368.26205 348.02814Q368.76205 347.325 368.76205 345.21564Q368.76205 343.09064 368.26205 342.40314Q367.77768 341.7 367.02768 341.7Q366.30893 341.7 365.87143 342.3094Q365.32455 343.09064 365.32455 345.21564ZM371.24643 345.21564Q371.24643 343.6844 371.55893 342.7625Q371.87143 341.825 372.4808 341.325Q373.1058 340.825 374.0433 340.825Q374.7308 340.825 375.24643 341.10626Q375.77768 341.3875 376.12143 341.91876Q376.46518 342.4344 376.65268 343.1844Q376.84018 343.9344 376.84018 345.21564Q376.84018 346.73126 376.52768 347.65314Q376.2308 348.575 375.6058 349.09064Q374.99643 349.59064 374.0433 349.59064Q372.80893 349.59064 372.09018 348.7Q371.24643 347.6375 371.24643 345.21564ZM372.32455 345.21564Q372.32455 347.325 372.82455 348.02814Q373.32455 348.73126 374.0433 348.73126Q374.77768 348.73126 375.26205 348.02814Q375.76205 347.325 375.76205 345.21564Q375.76205 343.09064 375.26205 342.40314Q374.77768 341.7 374.02768 341.7Q373.30893 341.7 372.87143 342.3094Q372.32455 343.09064 372.32455 345.21564Z" fill-rule="nonzero"/><path fill="#000000" d="M391.89554 347.46564L392.91116 347.3719Q393.03616 348.09064 393.39554 348.41876Q393.77054 348.73126 394.33304 348.73126Q394.8174 348.73126 395.1768 348.5125Q395.5518 348.27814 395.78616 347.91876Q396.02054 347.54376 396.1768 346.91876Q396.33304 346.27814 396.33304 345.6219Q396.33304 345.54376 396.33304 345.40314Q396.02054 345.90314 395.47366 346.23126Q394.9268 346.54376 394.28616 346.54376Q393.20804 346.54376 392.47366 345.77814Q391.7393 344.9969 391.7393 343.73126Q391.7393 342.41876 392.5049 341.6219Q393.28616 340.825 394.4424 340.825Q395.27054 340.825 395.95804 341.27814Q396.66116 341.73126 397.02054 342.575Q397.3799 343.40314 397.3799 344.98126Q397.3799 346.6219 397.02054 347.60626Q396.6768 348.575 395.95804 349.09064Q395.2549 349.59064 394.3174 349.59064Q393.3018 349.59064 392.66116 349.04376Q392.02054 348.48126 391.89554 347.46564ZM396.20804 343.66876Q396.20804 342.7625 395.72366 342.23126Q395.2549 341.7 394.5674 341.7Q393.8643 341.7 393.33304 342.27814Q392.8174 342.84064 392.8174 343.7625Q392.8174 344.575 393.3174 345.09064Q393.8174 345.60626 394.53616 345.60626Q395.27054 345.60626 395.7393 345.09064Q396.20804 344.575 396.20804 343.66876ZM398.7393 345.21564Q398.7393 343.6844 399.0518 342.7625Q399.3643 341.825 399.97366 341.325Q400.59866 340.825 401.53616 340.825Q402.22366 340.825 402.7393 341.10626Q403.27054 341.3875 403.6143 341.91876Q403.95804 342.4344 404.14554 343.1844Q404.33304 343.9344 404.33304 345.21564Q404.33304 346.73126 404.02054 347.65314Q403.72366 348.575 403.09866 349.09064Q402.4893 349.59064 401.53616 349.59064Q400.3018 349.59064 399.58304 348.7Q398.7393 347.6375 398.7393 345.21564ZM399.8174 345.21564Q399.8174 347.325 400.3174 348.02814Q400.8174 348.73126 401.53616 348.73126Q402.27054 348.73126 402.7549 348.02814Q403.2549 347.325 403.2549 345.21564Q403.2549 343.09064 402.7549 342.40314Q402.27054 341.7 401.52054 341.7Q400.8018 341.7 400.3643 342.3094Q399.8174 343.09064 399.8174 345.21564ZM405.7393 345.21564Q405.7393 343.6844 406.0518 342.7625Q406.3643 341.825 406.97366 341.325Q407.59866 340.825 408.53616 340.825Q409.22366 340.825 409.7393 341.10626Q410.27054 341.3875 410.6143 341.91876Q410.95804 342.4344 411.14554 343.1844Q411.33304 343.9344 411.33304 345.21564Q411.33304 346.73126 411.02054 347.65314Q410.72366 348.575 410.09866 349.09064Q409.4893 349.59064 408.53616 349.59064Q407.3018 349.59064 406.58304 348.7Q405.7393 347.6375 405.7393 345.21564ZM406.8174 345.21564Q406.8174 347.325 407.3174 348.02814Q407.8174 348.73126 408.53616 348.73126Q409.27054 348.73126 409.7549 348.02814Q410.2549 347.325 410.2549 345.21564Q410.2549 343.09064 409.7549 342.40314Q409.27054 341.7 408.52054 341.7Q407.8018 341.7 407.3643 342.3094Q406.8174 343.09064 406.8174 345.21564ZM412.7393 345.21564Q412.7393 343.6844 413.0518 342.7625Q413.3643 341.825 413.97366 341.325Q414.59866 340.825 415.53616 340.825Q416.22366 340.825 416.7393 341.10626Q417.27054 341.3875 417.6143 341.91876Q417.95804 342.4344 418.14554 343.1844Q418.33304 343.9344 418.33304 345.21564Q418.33304 346.73126 418.02054 347.65314Q417.72366 348.575 417.09866 349.09064Q416.4893 349.59064 415.53616 349.59064Q414.3018 349.59064 413.58304 348.7Q412.7393 347.6375 412.7393 345.21564ZM413.8174 345.21564Q413.8174 347.325 414.3174 348.02814Q414.8174 348.73126 415.53616 348.73126Q416.27054 348.73126 416.7549 348.02814Q417.2549 347.325 417.2549 345.21564Q417.2549 343.09064 416.7549 342.40314Q416.27054 341.7 415.52054 341.7Q414.8018 341.7 414.3643 342.3094Q413.8174 343.09064 413.8174 345.21564Z" fill-rule="nonzero"/><path fill="#000000" d="M433.7009 349.45L432.65402 349.45L432.65402 342.73126Q432.2634 343.09064 431.6384 343.46564Q431.02902 343.825 430.54465 343.9969L430.54465 342.98126Q431.41965 342.5594 432.0759 341.98126Q432.74777 341.3875 433.02902 340.825L433.7009 340.825L433.7009 349.45ZM436.73215 345.21564Q436.73215 343.6844 437.04465 342.7625Q437.35715 341.825 437.96652 341.325Q438.59152 340.825 439.52902 340.825Q440.21652 340.825 440.73215 341.10626Q441.2634 341.3875 441.60715 341.91876Q441.9509 342.4344 442.1384 343.1844Q442.3259 343.9344 442.3259 345.21564Q442.3259 346.73126 442.0134 347.65314Q441.71652 348.575 441.09152 349.09064Q440.48215 349.59064 439.52902 349.59064Q438.29465 349.59064 437.5759 348.7Q436.73215 347.6375 436.73215 345.21564ZM437.81027 345.21564Q437.81027 347.325 438.31027 348.02814Q438.81027 348.73126 439.52902 348.73126Q440.2634 348.73126 440.74777 348.02814Q441.24777 347.325 441.24777 345.21564Q441.24777 343.09064 440.74777 342.40314Q440.2634 341.7 439.5134 341.7Q438.79465 341.7 438.35715 342.3094Q437.81027 343.09064 437.81027 345.21564ZM443.73215 345.21564Q443.73215 343.6844 444.04465 342.7625Q444.35715 341.825 444.96652 341.325Q445.59152 340.825 446.52902 340.825Q447.21652 340.825 447.73215 341.10626Q448.2634 341.3875 448.60715 341.91876Q448.9509 342.4344 449.1384 343.1844Q449.3259 343.9344 449.3259 345.21564Q449.3259 346.73126 449.0134 347.65314Q448.71652 348.575 448.09152 349.09064Q447.48215 349.59064 446.52902 349.59064Q445.29465 349.59064 444.5759 348.7Q443.73215 347.6375 443.73215 345.21564ZM444.81027 345.21564Q444.81027 347.325 445.31027 348.02814Q445.81027 348.73126 446.52902 348.73126Q447.2634 348.73126 447.74777 348.02814Q448.24777 347.325 448.24777 345.21564Q448.24777 343.09064 447.74777 342.40314Q447.2634 341.7 446.5134 341.7Q445.79465 341.7 445.35715 342.3094Q444.81027 343.09064 444.81027 345.21564ZM450.73215 345.21564Q450.73215 343.6844 451.04465 342.7625Q451.35715 341.825 451.96652 341.325Q452.59152 340.825 453.52902 340.825Q454.21652 340.825 454.73215 341.10626Q455.2634 341.3875 455.60715 341.91876Q455.9509 342.4344 456.1384 343.1844Q456.3259 343.9344 456.3259 345.21564Q456.3259 346.73126 456.0134 347.65314Q455.71652 348.575 455.09152 349.09064Q454.48215 349.59064 453.52902 349.59064Q452.29465 349.59064 451.5759 348.7Q450.73215 347.6375 450.73215 345.21564ZM451.81027 345.21564Q451.81027 347.325 452.31027 348.02814Q452.81027 348.73126 453.52902 348.73126Q454.2634 348.73126 454.74777 348.02814Q455.24777 347.325 455.24777 345.21564Q455.24777 343.09064 454.74777 342.40314Q454.2634 341.7 453.5134 341.7Q452.79465 341.7 452.35715 342.3094Q451.81027 343.09064 451.81027 345.21564ZM457.73215 345.21564Q457.73215 343.6844 458.04465 342.7625Q458.35715 341.825 458.96652 341.325Q459.59152 340.825 460.52902 340.825Q461.21652 340.825 461.73215 341.10626Q462.2634 341.3875 462.60715 341.91876Q462.9509 342.4344 463.1384 343.1844Q463.3259 343.9344 463.3259 345.21564Q463.3259 346.73126 463.0134 347.65314Q462.71652 348.575 462.09152 349.09064Q461.48215 349.59064 460.52902 349.59064Q459.29465 349.59064 458.5759 348.7Q457.73215 347.6375 457.73215 345.21564ZM458.81027 345.21564Q458.81027 347.325 459.31027 348.02814Q459.81027 348.73126 460.52902 348.73126Q461.2634 348.73126 461.74777 348.02814Q462.24777 347.325 462.24777 345.21564Q462.24777 343.09064 461.74777 342.40314Q461.2634 341.7 460.5134 341.7Q459.79465 341.7 459.35715 342.3094Q458.81027 343.09064 458.81027 345.21564Z" fill-rule="nonzero"/><path fill="#000000" d="M475.19376 349.45L474.14688 349.45L474.14688 342.73126Q473.75626 343.09064 473.13126 343.46564Q472.52188 343.825 472.0375 343.9969L472.0375 342.98126Q472.9125 342.5594 473.56876 341.98126Q474.24063 341.3875 474.52188 340.825L475.19376 340.825L475.19376 349.45ZM482.19376 349.45L481.14688 349.45L481.14688 342.73126Q480.75626 343.09064 480.13126 343.46564Q479.52188 343.825 479.0375 343.9969L479.0375 342.98126Q479.9125 342.5594 480.56876 341.98126Q481.24063 341.3875 481.52188 340.825L482.19376 340.825L482.19376 349.45ZM485.225 345.21564Q485.225 343.6844 485.5375 342.7625Q485.85 341.825 486.45938 341.325Q487.08438 340.825 488.02188 340.825Q488.70938 340.825 489.225 341.10626Q489.75626 341.3875 490.1 341.91876Q490.44376 342.4344 490.63126 343.1844Q490.81876 343.9344 490.81876 345.21564Q490.81876 346.73126 490.50626 347.65314Q490.20938 348.575 489.58438 349.09064Q488.975 349.59064 488.02188 349.59064Q486.7875 349.59064 486.06876 348.7Q485.225 347.6375 485.225 345.21564ZM486.30313 345.21564Q486.30313 347.325 486.80313 348.02814Q487.30313 348.73126 488.02188 348.73126Q488.75626 348.73126 489.24063 348.02814Q489.74063 347.325 489.74063 345.21564Q489.74063 343.09064 489.24063 342.40314Q488.75626 341.7 488.00626 341.7Q487.2875 341.7 486.85 342.3094Q486.30313 343.09064 486.30313 345.21564ZM492.225 345.21564Q492.225 343.6844 492.5375 342.7625Q492.85 341.825 493.45938 341.325Q494.08438 340.825 495.02188 340.825Q495.70938 340.825 496.225 341.10626Q496.75626 341.3875 497.1 341.91876Q497.44376 342.4344 497.63126 343.1844Q497.81876 343.9344 497.81876 345.21564Q497.81876 346.73126 497.50626 347.65314Q497.20938 348.575 496.58438 349.09064Q495.975 349.59064 495.02188 349.59064Q493.7875 349.59064 493.06876 348.7Q492.225 347.6375 492.225 345.21564ZM493.30313 345.21564Q493.30313 347.325 493.80313 348.02814Q494.30313 348.73126 495.02188 348.73126Q495.75626 348.73126 496.24063 348.02814Q496.74063 347.325 496.74063 345.21564Q496.74063 343.09064 496.24063 342.40314Q495.75626 341.7 495.00626 341.7Q494.2875 341.7 493.85 342.3094Q493.30313 343.09064 493.30313 345.21564ZM499.225 345.21564Q499.225 343.6844 499.5375 342.7625Q499.85 341.825 500.45938 341.325Q501.08438 340.825 502.02188 340.825Q502.70938 340.825 503.225 341.10626Q503.75626 341.3875 504.1 341.91876Q504.44376 342.4344 504.63126 343.1844Q504.81876 343.9344 504.81876 345.21564Q504.81876 346.73126 504.50626 347.65314Q504.20938 348.575 503.58438 349.09064Q502.975 349.59064 502.02188 349.59064Q500.7875 349.59064 500.06876 348.7Q499.225 347.6375 499.225 345.21564ZM500.30313 345.21564Q500.30313 347.325 500.80313 348.02814Q501.30313 348.73126 502.02188 348.73126Q502.75626 348.73126 503.24063 348.02814Q503.74063 347.325 503.74063 345.21564Q503.74063 343.09064 503.24063 342.40314Q502.75626 341.7 502.00626 341.7Q501.2875 341.7 500.85 342.3094Q500.30313 343.09064 500.30313 345.21564Z" fill-rule="nonzero"/><path fill="#000000" d="M516.6866 349.45L515.6397 349.45L515.6397 342.73126Q515.2491 343.09064 514.6241 343.46564Q514.0147 343.825 513.53033 343.9969L513.53033 342.98126Q514.40533 342.5594 515.0616 341.98126Q515.73346 341.3875 516.0147 340.825L516.6866 340.825L516.6866 349.45ZM525.2647 348.4344L525.2647 349.45L519.5772 349.45Q519.5772 349.075 519.7022 348.71564Q519.92096 348.1375 520.3897 347.575Q520.8741 347.0125 521.78033 346.27814Q523.1866 345.1219 523.67096 344.45Q524.17096 343.77814 524.17096 343.1844Q524.17096 342.5594 523.71783 342.1375Q523.2647 341.7 522.54596 341.7Q521.78033 341.7 521.3272 342.15314Q520.8741 342.60626 520.85846 343.41876L519.78033 343.3094Q519.8897 342.09064 520.60846 341.46564Q521.34283 340.825 522.5772 340.825Q523.8116 340.825 524.53033 341.5125Q525.2491 342.2 525.2491 343.21564Q525.2491 343.73126 525.03033 344.23126Q524.8272 344.71564 524.3272 345.27814Q523.84283 345.825 522.71783 346.77814Q521.7647 347.575 521.48346 347.8719Q521.21783 348.15314 521.04596 348.4344L525.2647 348.4344ZM526.71783 345.21564Q526.71783 343.6844 527.03033 342.7625Q527.34283 341.825 527.9522 341.325Q528.5772 340.825 529.5147 340.825Q530.2022 340.825 530.71783 341.10626Q531.2491 341.3875 531.59283 341.91876Q531.9366 342.4344 532.1241 343.1844Q532.3116 343.9344 532.3116 345.21564Q532.3116 346.73126 531.9991 347.65314Q531.7022 348.575 531.0772 349.09064Q530.46783 349.59064 529.5147 349.59064Q528.28033 349.59064 527.5616 348.7Q526.71783 347.6375 526.71783 345.21564ZM527.79596 345.21564Q527.79596 347.325 528.29596 348.02814Q528.79596 348.73126 529.5147 348.73126Q530.2491 348.73126 530.73346 348.02814Q531.23346 347.325 531.23346 345.21564Q531.23346 343.09064 530.73346 342.40314Q530.2491 341.7 529.4991 341.7Q528.78033 341.7 528.34283 342.3094Q527.79596 343.09064 527.79596 345.21564ZM533.71783 345.21564Q533.71783 343.6844 534.03033 342.7625Q534.34283 341.825 534.9522 341.325Q535.5772 340.825 536.5147 340.825Q537.2022 340.825 537.71783 341.10626Q538.2491 341.3875 538.59283 341.91876Q538.9366 342.4344 539.1241 343.1844Q539.3116 343.9344 539.3116 345.21564Q539.3116 346.73126 538.9991 347.65314Q538.7022 348.575 538.0772 349.09064Q537.46783 349.59064 536.5147 349.59064Q535.28033 349.59064 534.5616 348.7Q533.71783 347.6375 533.71783 345.21564ZM534.79596 345.21564Q534.79596 347.325 535.29596 348.02814Q535.79596 348.73126 536.5147 348.73126Q537.2491 348.73126 537.73346 348.02814Q538.23346 347.325 538.23346 345.21564Q538.23346 343.09064 537.73346 342.40314Q537.2491 341.7 536.4991 341.7Q535.78033 341.7 535.34283 342.3094Q534.79596 343.09064 534.79596 345.21564ZM540.71783 345.21564Q540.71783 343.6844 541.03033 342.7625Q541.34283 341.825 541.9522 341.325Q542.5772 340.825 543.5147 340.825Q544.2022 340.825 544.71783 341.10626Q545.2491 341.3875 545.59283 341.91876Q545.9366 342.4344 546.1241 343.1844Q546.3116 343.9344 546.3116 345.21564Q546.3116 346.73126 545.9991 347.65314Q545.7022 348.575 545.0772 349.09064Q544.46783 349.59064 543.5147 349.59064Q542.28033 349.59064 541.5616 348.7Q540.71783 347.6375 540.71783 345.21564ZM541.79596 345.21564Q541.79596 347.325 542.29596 348.02814Q542.79596 348.73126 543.5147 348.73126Q544.2491 348.73126 544.73346 348.02814Q545.23346 347.325 545.23346 345.21564Q545.23346 343.09064 544.73346 342.40314Q544.2491 341.7 543.4991 341.7Q542.78033 341.7 542.34283 342.3094Q541.79596 343.09064 541.79596 345.21564Z" fill-rule="nonzero"/><path fill="#000000" d="M558.17944 349.45L557.13257 349.45L557.13257 342.73126Q556.74194 343.09064 556.11694 343.46564Q555.50757 343.825 555.0232 343.9969L555.0232 342.98126Q555.8982 342.5594 556.55444 341.98126Q557.2263 341.3875 557.50757 340.825L558.17944 340.825L558.17944 349.45ZM561.2107 347.1844L562.2732 347.04376Q562.44507 347.9344 562.88257 348.34064Q563.32007 348.73126 563.94507 348.73126Q564.69507 348.73126 565.2107 348.21564Q565.7263 347.7 565.7263 346.9344Q565.7263 346.21564 565.24194 345.7469Q564.7732 345.2625 564.0388 345.2625Q563.74194 345.2625 563.2888 345.3875L563.4138 344.45Q563.5232 344.46564 563.5857 344.46564Q564.25757 344.46564 564.7888 344.1219Q565.3357 343.7625 565.3357 343.02814Q565.3357 342.45 564.94507 342.075Q564.55444 341.6844 563.92944 341.6844Q563.32007 341.6844 562.8982 342.075Q562.49194 342.46564 562.38257 343.23126L561.32007 343.04376Q561.50757 341.9969 562.19507 341.41876Q562.88257 340.825 563.8982 340.825Q564.6013 340.825 565.19507 341.1375Q565.7888 341.4344 566.1013 341.95Q566.4138 342.46564 566.4138 343.0594Q566.4138 343.60626 566.11694 344.075Q565.82007 344.52814 565.24194 344.79376Q565.99194 344.96564 566.4138 345.52814Q566.8357 346.075 566.8357 346.91876Q566.8357 348.04376 566.00757 348.825Q565.19507 349.60626 563.94507 349.60626Q562.82007 349.60626 562.07007 348.9344Q561.32007 348.2469 561.2107 347.1844ZM568.2107 345.21564Q568.2107 343.6844 568.5232 342.7625Q568.8357 341.825 569.44507 341.325Q570.07007 340.825 571.00757 340.825Q571.69507 340.825 572.2107 341.10626Q572.74194 341.3875 573.0857 341.91876Q573.42944 342.4344 573.61694 343.1844Q573.80444 343.9344 573.80444 345.21564Q573.80444 346.73126 573.49194 347.65314Q573.19507 348.575 572.57007 349.09064Q571.9607 349.59064 571.00757 349.59064Q569.7732 349.59064 569.05444 348.7Q568.2107 347.6375 568.2107 345.21564ZM569.2888 345.21564Q569.2888 347.325 569.7888 348.02814Q570.2888 348.73126 571.00757 348.73126Q571.74194 348.73126 572.2263 348.02814Q572.7263 347.325 572.7263 345.21564Q572.7263 343.09064 572.2263 342.40314Q571.74194 341.7 570.99194 341.7Q570.2732 341.7 569.8357 342.3094Q569.2888 343.09064 569.2888 345.21564ZM575.2107 345.21564Q575.2107 343.6844 575.5232 342.7625Q575.8357 341.825 576.44507 341.325Q577.07007 340.825 578.00757 340.825Q578.69507 340.825 579.2107 341.10626Q579.74194 341.3875 580.0857 341.91876Q580.42944 342.4344 580.61694 343.1844Q580.80444 343.9344 580.80444 345.21564Q580.80444 346.73126 580.49194 347.65314Q580.19507 348.575 579.57007 349.09064Q578.9607 349.59064 578.00757 349.59064Q576.7732 349.59064 576.05444 348.7Q575.2107 347.6375 575.2107 345.21564ZM576.2888 345.21564Q576.2888 347.325 576.7888 348.02814Q577.2888 348.73126 578.00757 348.73126Q578.74194 348.73126 579.2263 348.02814Q579.7263 347.325 579.7263 345.21564Q579.7263 343.09064 579.2263 342.40314Q578.74194 341.7 577.99194 341.7Q577.2732 341.7 576.8357 342.3094Q576.2888 343.09064 576.2888 345.21564ZM582.2107 345.21564Q582.2107 343.6844 582.5232 342.7625Q582.8357 341.825 583.44507 341.325Q584.07007 340.825 585.00757 340.825Q585.69507 340.825 586.2107 341.10626Q586.74194 341.3875 587.0857 341.91876Q587.42944 342.4344 587.61694 343.1844Q587.80444 343.9344 587.80444 345.21564Q587.80444 346.73126 587.49194 347.65314Q587.19507 348.575 586.57007 349.09064Q585.9607 349.59064 585.00757 349.59064Q583.7732 349.59064 583.05444 348.7Q582.2107 347.6375 582.2107 345.21564ZM583.2888 345.21564Q583.2888 347.325 583.7888 348.02814Q584.2888 348.73126 585.00757 348.73126Q585.74194 348.73126 586.2263 348.02814Q586.7263 347.325 586.7263 345.21564Q586.7263 343.09064 586.2263 342.40314Q585.74194 341.7 584.99194 341.7Q584.2732 341.7 583.8357 342.3094Q583.2888 343.09064 583.2888 345.21564Z" fill-rule="nonzero"/><path fill="#000000" d="M599.6723 349.45L598.6254 349.45L598.6254 342.73126Q598.2348 343.09064 597.6098 343.46564Q597.0004 343.825 596.51605 343.9969L596.51605 342.98126Q597.39105 342.5594 598.0473 341.98126Q598.7192 341.3875 599.0004 340.825L599.6723 340.825L599.6723 349.45ZM606.07855 349.45L606.07855 347.3875L602.3598 347.3875L602.3598 346.41876L606.2817 340.85626L607.14105 340.85626L607.14105 346.41876L608.2973 346.41876L608.2973 347.3875L607.14105 347.3875L607.14105 349.45L606.07855 349.45ZM606.07855 346.41876L606.07855 342.5594L603.39105 346.41876L606.07855 346.41876ZM609.70355 345.21564Q609.70355 343.6844 610.01605 342.7625Q610.32855 341.825 610.9379 341.325Q611.5629 340.825 612.5004 340.825Q613.1879 340.825 613.70355 341.10626Q614.2348 341.3875 614.57855 341.91876Q614.9223 342.4344 615.1098 343.1844Q615.2973 343.9344 615.2973 345.21564Q615.2973 346.73126 614.9848 347.65314Q614.6879 348.575 614.0629 349.09064Q613.45355 349.59064 612.5004 349.59064Q611.26605 349.59064 610.5473 348.7Q609.70355 347.6375 609.70355 345.21564ZM610.7817 345.21564Q610.7817 347.325 611.2817 348.02814Q611.7817 348.73126 612.5004 348.73126Q613.2348 348.73126 613.7192 348.02814Q614.2192 347.325 614.2192 345.21564Q614.2192 343.09064 613.7192 342.40314Q613.2348 341.7 612.4848 341.7Q611.76605 341.7 611.32855 342.3094Q610.7817 343.09064 610.7817 345.21564ZM616.70355 345.21564Q616.70355 343.6844 617.01605 342.7625Q617.32855 341.825 617.9379 341.325Q618.5629 340.825 619.5004 340.825Q620.1879 340.825 620.70355 341.10626Q621.2348 341.3875 621.57855 341.91876Q621.9223 342.4344 622.1098 343.1844Q622.2973 343.9344 622.2973 345.21564Q622.2973 346.73126 621.9848 347.65314Q621.6879 348.575 621.0629 349.09064Q620.45355 349.59064 619.5004 349.59064Q618.26605 349.59064 617.5473 348.7Q616.70355 347.6375 616.70355 345.21564ZM617.7817 345.21564Q617.7817 347.325 618.2817 348.02814Q618.7817 348.73126 619.5004 348.73126Q620.2348 348.73126 620.7192 348.02814Q621.2192 347.325 621.2192 345.21564Q621.2192 343.09064 620.7192 342.40314Q620.2348 341.7 619.4848 341.7Q618.76605 341.7 618.32855 342.3094Q617.7817 343.09064 617.7817 345.21564ZM623.70355 345.21564Q623.70355 343.6844 624.01605 342.7625Q624.32855 341.825 624.9379 341.325Q625.5629 340.825 626.5004 340.825Q627.1879 340.825 627.70355 341.10626Q628.2348 341.3875 628.57855 341.91876Q628.9223 342.4344 629.1098 343.1844Q629.2973 343.9344 629.2973 345.21564Q629.2973 346.73126 628.9848 347.65314Q628.6879 348.575 628.0629 349.09064Q627.45355 349.59064 626.5004 349.59064Q625.26605 349.59064 624.5473 348.7Q623.70355 347.6375 623.70355 345.21564ZM624.7817 345.21564Q624.7817 347.325 625.2817 348.02814Q625.7817 348.73126 626.5004 348.73126Q627.2348 348.73126 627.7192 348.02814Q628.2192 347.325 628.2192 345.21564Q628.2192 343.09064 627.7192 342.40314Q627.2348 341.7 626.4848 341.7Q625.76605 341.7 625.32855 342.3094Q624.7817 343.09064 624.7817 345.21564Z" fill-rule="nonzero"/></svg>