<svg version="1.1" viewBox="0.0 0.0 600.0 371.0" fill="none" stroke="none" stroke-linecap="square" stroke-miterlimit="10" width="600" height="371" xmlns:xlink="http://www.w3.org/1999/xlink" xmlns="http://www.w3.org/2000/svg"><path fill="#ffffff" d="M0 0L600.0 0L600.0 371.0L0 371.0L0 0Z" fill-rule="nonzero"/><path stroke="#333333" stroke-width="1.0" stroke-linecap="butt" d="M45.5 316.5L581.5 316.5" fill-rule="nonzero"/><path stroke="#cccccc" stroke-width="1.0" stroke-linecap="butt" d="M45.5 258.5L581.5 258.5" fill-rule="nonzero"/><path stroke="#cccccc" stroke-width="1.0" stroke-linecap="butt" d="M45.5 200.5L581.5 200.5" fill-rule="nonzero"/><path stroke="#cccccc" stroke-width="1.0" stroke-linecap="butt" d="M45.5 142.5L581.5 142.5" fill-rule="nonzero"/><path stroke="#cccccc" stroke-width="1.0" stroke-linecap="butt" d="M45.5 83.5L581.5 83.5" fill-rule="nonzero"/><path stroke="#cccccc" stroke-width="1.0" stroke-linecap="butt" d="M45.5 25.5L581.5 25.5" fill-rule="nonzero"/><clipPath id="id_0"><path d="M45.55 25.55L581.45 25.55L581.45 316.75153L45.55 316.75153L45.55 25.55Z" clip-rule="nonzero"/></clipPath><path stroke="#4285f4" stroke-width="2.0" stroke-linecap="butt" clip-path="url(#id_0)" d="M64.689285 316.20813L102.96786 315.07547L141.24643 312.79807L179.525 308.87943L217.80357 302.8875L256.08215 293.96457L294.36072 282.2845L332.63928 266.97736L370.91785 247.48344L409.19644 224.55188L447.475 196.45985L485.75357 162.98315L524.03217 123.909904L562.3107 78.17873" fill-rule="nonzero"/><path fill="#000000" fill-opacity="0.0" clip-path="url(#id_0)" d="M67.689285 316.20813C67.689285 317.865 66.34614 319.20813 64.689285 319.20813C63.032433 319.20813 61.689285 317.865 61.689285 316.20813C61.689285 314.55127 63.032433 313.20813 64.689285 313.20813C66.34614 313.20813 67.689285 314.55127 67.689285 316.20813Z" fill-rule="nonzero"/><path fill="#000000" fill-opacity="0.0" clip-path="url(#id_0)" d="M105.96786 315.07547C105.96786 316.73233 104.62471 318.07547 102.96786 318.07547C101.311005 318.07547 99.96786 316.73233 99.96786 315.07547C99.96786 313.4186 101.311005 312.07547 102.96786 312.07547C104.62471 312.07547 105.96786 313.4186 105.96786 315.07547Z" fill-rule="nonzero"/><path fill="#000000" fill-opacity="0.0" clip-path="url(#id_0)" d="M144.24643 312.79807C144.24643 314.45493 142.90329 315.79807 141.24643 315.79807C139.58957 315.79807 138.24643 314.45493 138.24643 312.79807C138.24643 311.1412 139.58957 309.79807 141.24643 309.79807C142.90329 309.79807 144.24643 311.1412 144.24643 312.79807Z" fill-rule="nonzero"/><path fill="#000000" fill-opacity="0.0" clip-path="url(#id_0)" d="M182.525 308.87943C182.525 310.5363 181.18185 311.87943 179.525 311.87943C177.86815 311.87943 176.525 310.5363 176.525 308.87943C176.525 307.22256 177.86815 305.87943 179.525 305.87943C181.18185 305.87943 182.525 307.22256 182.525 308.87943Z" fill-rule="nonzero"/><path fill="#000000" fill-opacity="0.0" clip-path="url(#id_0)" d="M220.80357 302.8875C220.80357 304.54437 219.46042 305.8875 217.80357 305.8875C216.14671 305.8875 214.80357 304.54437 214.80357 302.8875C214.80357 301.23065 216.14671 299.8875 217.80357 299.8875C219.46042 299.8875 220.80357 301.23065 220.80357 302.8875Z" fill-rule="nonzero"/><path fill="#000000" fill-opacity="0.0" clip-path="url(#id_0)" d="M259.08215 293.96457C259.08215 295.62143 257.73898 296.96457 256.08215 296.96457C254.4253 296.96457 253.08214 295.62143 253.08214 293.96457C253.08214 292.3077 254.4253 290.96457 256.08215 290.96457C257.73898 290.96457 259.08215 292.3077 259.08215 293.96457Z" fill-rule="nonzero"/><path fill="#000000" fill-opacity="0.0" clip-path="url(#id_0)" d="M297.36072 282.2845C297.36072 283.9413 296.01758 285.2845 294.36072 285.2845C292.70386 285.2845 291.36072 283.9413 291.36072 282.2845C291.36072 280.62762 292.70386 279.2845 294.36072 279.2845C296.01758 279.2845 297.36072 280.62762 297.36072 282.2845Z" fill-rule="nonzero"/><path fill="#000000" fill-opacity="0.0" clip-path="url(#id_0)" d="M335.63928 266.97736C335.63928 268.6342 334.29614 269.97736 332.63928 269.97736C330.98242 269.97736 329.63928 268.6342 329.63928 266.97736C329.63928 265.3205 330.98242 263.97736 332.63928 263.97736C334.29614 263.97736 335.63928 265.3205 335.63928 266.97736Z" fill-rule="nonzero"/><path fill="#000000" fill-opacity="0.0" clip-path="url(#id_0)" d="M373.91785 247.48344C373.91785 249.14029 372.5747 250.48344 370.91785 250.48344C369.26102 250.48344 367.91785 249.14029 367.91785 247.48344C367.91785 245.82658 369.26102 244.48344 370.91785 244.48344C372.5747 244.48344 373.91785 245.82658 373.91785 247.48344Z" fill-rule="nonzero"/><path fill="#000000" fill-opacity="0.0" clip-path="url(#id_0)" d="M412.19644 224.55188C412.19644 226.20874 410.85327 227.55188 409.19644 227.55188C407.53958 227.55188 406.19644 226.20874 406.19644 224.55188C406.19644 222.89503 407.53958 221.55188 409.19644 221.55188C410.85327 221.55188 412.19644 222.89503 412.19644 224.55188Z" fill-rule="nonzero"/><path fill="#000000" fill-opacity="0.0" clip-path="url(#id_0)" d="M450.475 196.45985C450.475 198.11671 449.13187 199.45985 447.475 199.45985C445.81815 199.45985 444.475 198.11671 444.475 196.45985C444.475 194.80301 445.81815 193.45985 447.475 193.45985C449.13187 193.45985 450.475 194.80301 450.475 196.45985Z" fill-rule="nonzero"/><path fill="#000000" fill-opacity="0.0" clip-path="url(#id_0)" d="M488.75357 162.98315C488.75357 164.64001 487.41043 165.98315 485.75357 165.98315C484.0967 165.98315 482.75357 164.64001 482.75357 162.98315C482.75357 161.32631 484.0967 159.98315 485.75357 159.98315C487.41043 159.98315 488.75357 161.32631 488.75357 162.98315Z" fill-rule="nonzero"/><path fill="#000000" fill-opacity="0.0" clip-path="url(#id_0)" d="M527.03217 123.909904C527.03217 125.566765 525.689 126.909904 524.03217 126.909904C522.3753 126.909904 521.03217 125.566765 521.03217 123.909904C521.03217 122.25305 522.3753 120.909904 524.03217 120.909904C525.689 120.909904 527.03217 122.25305 527.03217 123.909904Z" fill-rule="nonzero"/><path fill="#000000" fill-opacity="0.0" clip-path="url(#id_0)" d="M565.3107 78.17873C565.3107 79.83558 563.9676 81.17873 562.3107 81.17873C560.6539 81.17873 559.3107 79.83558 559.3107 78.17873C559.3107 76.52187 560.6539 75.17873 562.3107 75.17873C563.9676 75.17873 565.3107 76.52187 565.3107 78.17873Z" fill-rule="nonzero"/><path fill="#000000" d="M23.05 316.51715Q23.05 314.9859 23.3625 314.06403Q23.675 313.12653 24.284374 312.62653Q24.909374 312.12653 25.846874 312.12653Q26.534374 312.12653 27.05 312.40778Q27.58125 312.68903 27.925 313.22028Q28.26875 313.7359 28.45625 314.4859Q28.64375 315.2359 28.64375 316.51715Q28.64375 318.03278 28.33125 318.95465Q28.034374 319.87653 27.409374 320.39215Q26.8 320.89215 25.846874 320.89215Q24.6125 320.89215 23.89375 320.00153Q23.05 318.93903 23.05 316.51715ZM24.128124 316.51715Q24.128124 318.62653 24.628124 319.32965Q25.128124 320.03278 25.846874 320.03278Q26.58125 320.03278 27.065624 319.32965Q27.565624 318.62653 27.565624 316.51715Q27.565624 314.39215 27.065624 313.70465Q26.58125 313.00153 25.83125 313.00153Q25.1125 313.00153 24.675 313.6109Q24.128124 314.39215 24.128124 316.51715ZM30.64375 320.75153L30.64375 319.5484L31.846874 319.5484L31.846874 320.75153L30.64375 320.75153ZM33.05 316.51715Q33.05 314.9859 33.3625 314.06403Q33.675 313.12653 34.284374 312.62653Q34.909374 312.12653 35.846874 312.12653Q36.534374 312.12653 37.05 312.40778Q37.58125 312.68903 37.925 313.22028Q38.26875 313.7359 38.45625 314.4859Q38.64375 315.2359 38.64375 316.51715Q38.64375 318.03278 38.33125 318.95465Q38.034374 319.87653 37.409374 320.39215Q36.8 320.89215 35.846874 320.89215Q34.6125 320.89215 33.89375 320.00153Q33.05 318.93903 33.05 316.51715ZM34.128124 316.51715Q34.128124 318.62653 34.628124 319.32965Q35.128124 320.03278 35.846874 320.03278Q36.58125 320.03278 37.065624 319.32965Q37.565624 318.62653 37.565624 316.51715Q37.565624 314.39215 37.065624 313.70465Q36.58125 313.00153 35.83125 313.00153Q35.1125 313.00153 34.675 313.6109Q34.128124 314.39215 34.128124 316.51715Z" fill-rule="nonzero"/><path fill="#000000" d="M23.05 258.27682Q23.05 256.74557 23.3625 255.8237Q23.675 254.8862 24.284374 254.3862Q24.909374 253.8862 25.846874 253.8862Q26.534374 253.8862 27.05 254.16745Q27.58125 254.4487 27.925 254.97995Q28.26875 255.49557 28.45625 256.24557Q28.64375 256.99557 28.64375 258.27682Q28.64375 259.79245 28.33125 260.71432Q28.034374 261.6362 27.409374 262.15182Q26.8 262.65182 25.846874 262.65182Q24.6125 262.65182 23.89375 261.7612Q23.05 260.6987 23.05 258.27682ZM24.128124 258.27682Q24.128124 260.3862 24.628124 261.08932Q25.128124 261.79245 25.846874 261.79245Q26.58125 261.79245 27.065624 261.08932Q27.565624 260.3862 27.565624 258.27682Q27.565624 256.15182 27.065624 255.46432Q26.58125 254.7612 25.83125 254.7612Q25.1125 254.7612 24.675 255.37057Q24.128124 256.15182 24.128124 258.27682ZM30.64375 262.5112L30.64375 261.30807L31.846874 261.30807L31.846874 262.5112L30.64375 262.5112ZM33.05 260.2612L34.159374 260.16745Q34.284374 260.97995 34.721874 261.3862Q35.175 261.79245 35.815624 261.79245Q36.565624 261.79245 37.096874 261.21432Q37.628124 260.6362 37.628124 259.6987Q37.628124 258.79245 37.1125 258.27682Q36.6125 257.74557 35.784374 257.74557Q35.284374 257.74557 34.8625 257.97995Q34.45625 258.21432 34.221874 258.5737L33.2375 258.4487L34.065624 254.04245L38.346874 254.04245L38.346874 255.04245L34.909374 255.04245L34.45625 257.35495Q35.221874 256.80807 36.065624 256.80807Q37.190624 256.80807 37.95625 257.58932Q38.7375 258.37057 38.7375 259.60495Q38.7375 260.7612 38.065624 261.62057Q37.2375 262.65182 35.815624 262.65182Q34.64375 262.65182 33.89375 261.99557Q33.159374 261.33932 33.05 260.2612Z" fill-rule="nonzero"/><path fill="#000000" d="M27.01875 204.2709L25.971874 204.2709L25.971874 197.55215Q25.58125 197.91153 24.95625 198.28653Q24.346874 198.6459 23.8625 198.81778L23.8625 197.80215Q24.7375 197.38028 25.39375 196.80215Q26.065624 196.2084 26.346874 195.6459L27.01875 195.6459L27.01875 204.2709ZM30.64375 204.2709L30.64375 203.06778L31.846874 203.06778L31.846874 204.2709L30.64375 204.2709ZM33.05 200.03653Q33.05 198.50528 33.3625 197.5834Q33.675 196.6459 34.284374 196.1459Q34.909374 195.6459 35.846874 195.6459Q36.534374 195.6459 37.05 195.92715Q37.58125 196.2084 37.925 196.73965Q38.26875 197.25528 38.45625 198.00528Q38.64375 198.75528 38.64375 200.03653Q38.64375 201.55215 38.33125 202.47403Q38.034374 203.3959 37.409374 203.91153Q36.8 204.41153 35.846874 204.41153Q34.6125 204.41153 33.89375 203.5209Q33.05 202.4584 33.05 200.03653ZM34.128124 200.03653Q34.128124 202.1459 34.628124 202.84903Q35.128124 203.55215 35.846874 203.55215Q36.58125 203.55215 37.065624 202.84903Q37.565624 202.1459 37.565624 200.03653Q37.565624 197.91153 37.065624 197.22403Q36.58125 196.5209 35.83125 196.5209Q35.1125 196.5209 34.675 197.13028Q34.128124 197.91153 34.128124 200.03653Z" fill-rule="nonzero"/><path fill="#000000" d="M27.01875 146.03061L25.971874 146.03061L25.971874 139.31186Q25.58125 139.67123 24.95625 140.04623Q24.346874 140.40561 23.8625 140.57748L23.8625 139.56186Q24.7375 139.13998 25.39375 138.56186Q26.065624 137.96811 26.346874 137.40561L27.01875 137.40561L27.01875 146.03061ZM30.64375 146.03061L30.64375 144.82748L31.846874 144.82748L31.846874 146.03061L30.64375 146.03061ZM33.05 143.78061L34.159374 143.68686Q34.284374 144.49936 34.721874 144.90561Q35.175 145.31186 35.815624 145.31186Q36.565624 145.31186 37.096874 144.73373Q37.628124 144.15561 37.628124 143.21811Q37.628124 142.31186 37.1125 141.79623Q36.6125 141.26498 35.784374 141.26498Q35.284374 141.26498 34.8625 141.49936Q34.45625 141.73373 34.221874 142.09311L33.2375 141.96811L34.065624 137.56186L38.346874 137.56186L38.346874 138.56186L34.909374 138.56186L34.45625 140.87436Q35.221874 140.32748 36.065624 140.32748Q37.190624 140.32748 37.95625 141.10873Q38.7375 141.88998 38.7375 143.12436Q38.7375 144.28061 38.065624 145.13998Q37.2375 146.17123 35.815624 146.17123Q34.64375 146.17123 33.89375 145.51498Q33.159374 144.85873 33.05 143.78061Z" fill-rule="nonzero"/><path fill="#000000" d="M28.596874 86.77468L28.596874 87.790306L22.909374 87.790306Q22.909374 87.415306 23.034374 87.05593Q23.253124 86.477806 23.721874 85.915306Q24.20625 85.352806 25.1125 84.61843Q26.51875 83.46218 27.003124 82.790306Q27.503124 82.11843 27.503124 81.52468Q27.503124 80.89968 27.05 80.477806Q26.596874 80.040306 25.878124 80.040306Q25.1125 80.040306 24.659374 80.49343Q24.20625 80.946556 24.190624 81.759056L23.1125 81.64968Q23.221874 80.43093 23.940624 79.80593Q24.675 79.165306 25.909374 79.165306Q27.14375 79.165306 27.8625 79.852806Q28.58125 80.540306 28.58125 81.55593Q28.58125 82.071556 28.3625 82.571556Q28.159374 83.05593 27.659374 83.61843Q27.175 84.165306 26.05 85.11843Q25.096874 85.915306 24.815624 86.21218Q24.55 86.49343 24.378124 86.77468L28.596874 86.77468ZM30.64375 87.790306L30.64375 86.58718L31.846874 86.58718L31.846874 87.790306L30.64375 87.790306ZM33.05 83.55593Q33.05 82.02468 33.3625 81.102806Q33.675 80.165306 34.284374 79.665306Q34.909374 79.165306 35.846874 79.165306Q36.534374 79.165306 37.05 79.446556Q37.58125 79.727806 37.925 80.259056Q38.26875 80.77468 38.45625 81.52468Q38.64375 82.27468 38.64375 83.55593Q38.64375 85.071556 38.33125 85.99343Q38.034374 86.915306 37.409374 87.43093Q36.8 87.93093 35.846874 87.93093Q34.6125 87.93093 33.89375 87.040306Q33.05 85.977806 33.05 83.55593ZM34.128124 83.55593Q34.128124 85.665306 34.628124 86.36843Q35.128124 87.071556 35.846874 87.071556Q36.58125 87.071556 37.065624 86.36843Q37.565624 85.665306 37.565624 83.55593Q37.565624 81.43093 37.065624 80.74343Q36.58125 80.040306 35.83125 80.040306Q35.1125 80.040306 34.675 80.64968Q34.128124 81.43093 34.128124 83.55593Z" fill-rule="nonzero"/><path fill="#000000" d="M28.596874 28.534374L28.596874 29.55L22.909374 29.55Q22.909374 29.175 23.034374 28.815624Q23.253124 28.2375 23.721874 27.675Q24.20625 27.1125 25.1125 26.378124Q26.51875 25.221874 27.003124 24.55Q27.503124 23.878124 27.503124 23.284374Q27.503124 22.659374 27.05 22.2375Q26.596874 21.8 25.878124 21.8Q25.1125 21.8 24.659374 22.253124Q24.20625 22.70625 24.190624 23.51875L23.1125 23.409374Q23.221874 22.190624 23.940624 21.565624Q24.675 20.925 25.909374 20.925Q27.14375 20.925 27.8625 21.6125Q28.58125 22.3 28.58125 23.315624Q28.58125 23.83125 28.3625 24.33125Q28.159374 24.815624 27.659374 25.378124Q27.175 25.925 26.05 26.878124Q25.096874 27.675 24.815624 27.971874Q24.55 28.253124 24.378124 28.534374L28.596874 28.534374ZM30.64375 29.55L30.64375 28.346874L31.846874 28.346874L31.846874 29.55L30.64375 29.55ZM33.05 27.3L34.159374 27.20625Q34.284374 28.01875 34.721874 28.425Q35.175 28.83125 35.815624 28.83125Q36.565624 28.83125 37.096874 28.253124Q37.628124 27.675 37.628124 26.7375Q37.628124 25.83125 37.1125 25.315624Q36.6125 24.784374 35.784374 24.784374Q35.284374 24.784374 34.8625 25.01875Q34.45625 25.253124 34.221874 25.6125L33.2375 25.4875L34.065624 21.08125L38.346874 21.08125L38.346874 22.08125L34.909374 22.08125L34.45625 24.39375Q35.221874 23.846874 36.065624 23.846874Q37.190624 23.846874 37.95625 24.628124Q38.7375 25.409374 38.7375 26.64375Q38.7375 27.8 38.065624 28.659374Q37.2375 29.690624 35.815624 29.690624Q34.64375 29.690624 33.89375 29.034374Q33.159374 28.378124 33.05 27.3Z" fill-rule="nonzero"/><path fill="#000000" d="M55.82835 347.1688L55.088097 347.90906L50.337223 343.15817Q50.315125 343.6885 50.138348 344.3956Q49.96157 345.08063 49.7406 345.54465L49.022446 344.8265Q49.342854 343.9095 49.398098 343.03665Q49.45334 342.1417 49.254467 341.54507L49.729553 341.07L55.82835 347.1688ZM54.97761 342.03122Q53.894855 340.94846 53.463963 340.07562Q53.02202 339.19174 53.099358 338.4073Q53.187748 337.61182 53.85066 336.94888Q54.336796 336.46277 54.900272 336.29703Q55.474796 336.12024 56.093513 336.25284Q56.701183 336.37436 57.364098 336.77213Q58.027008 337.16986 58.93299 338.07584Q60.0047 339.14755 60.435593 340.0204Q60.877533 340.88217 60.800194 341.68872Q60.722855 342.47318 60.048893 343.14713Q59.17606 344.01996 58.03806 343.89844Q56.690136 343.74374 54.97761 342.03122ZM55.73996 341.26886Q57.231514 342.76044 58.082253 342.90405Q58.93299 343.0477 59.441223 342.53946Q59.960503 342.02017 59.805824 341.18048Q59.662193 340.32974 58.17064 338.8382Q56.668037 337.3356 55.82835 337.203Q54.98866 337.04834 54.45833 337.57867Q53.950096 338.08688 54.071632 338.82715Q54.23736 339.76627 55.73996 341.26886ZM59.92736 337.08148Q58.8446 335.99872 58.413708 335.1259Q57.971767 334.242 58.049107 333.45755Q58.137493 332.66205 58.800407 331.99915Q59.286545 331.513 59.850018 331.3473Q60.42454 331.1705 61.043262 331.3031Q61.650932 331.42462 62.313843 331.82236Q62.976757 332.22012 63.882736 333.1261Q64.954445 334.1978 65.38534 335.07065Q65.82728 335.93243 65.74994 336.73898Q65.6726 337.5234 64.99864 338.1974Q64.12581 339.07022 62.987804 338.94867Q61.639885 338.794 59.92736 337.08148ZM60.68971 336.31912Q62.181263 337.81067 63.031998 337.9543Q63.882736 338.09793 64.39097 337.58972Q64.910255 337.07043 64.75557 336.23074Q64.61194 335.38 63.120388 333.88846Q61.617786 332.38583 60.778095 332.25327Q59.938408 332.09857 59.408077 332.6289Q58.899845 333.13715 59.021378 333.8774Q59.187107 334.81653 60.68971 336.31912ZM64.877106 332.1317Q63.79435 331.04898 63.363457 330.17615Q62.921513 329.29227 62.998856 328.5078Q63.087242 327.7123 63.750156 327.0494Q64.23629 326.56326 64.79977 326.39752Q65.37429 326.22076 65.99301 326.35333Q66.60068 326.47488 67.26359 326.87262Q67.926506 327.27036 68.83248 328.17636Q69.90419 329.24805 70.33508 330.12088Q70.77703 330.98267 70.69969 331.7892Q70.62235 332.57367 69.94839 333.24762Q69.075554 334.12045 67.93755 333.99893Q66.58963 333.84424 64.877106 332.1317ZM65.63946 331.3694Q67.13101 332.86093 67.98175 333.00458Q68.83248 333.1482 69.34072 332.63995Q69.86 332.12067 69.70532 331.28098Q69.56169 330.43027 68.07014 328.9387Q66.567535 327.4361 65.727844 327.30353Q64.88815 327.14883 64.35783 327.67917Q63.84959 328.1874 63.971127 328.92764Q64.136856 329.8668 65.63946 331.3694Z" fill-rule="nonzero"/><path fill="#000000" d="M94.50467 345.33475L95.222824 346.0529L91.20116 350.07455Q90.93599 349.8094 90.77026 349.4669Q90.51614 348.9034 90.44985 348.17422Q90.39461 347.43396 90.51614 346.27386Q90.692924 344.4619 90.56034 343.64432Q90.438805 342.81567 90.01896 342.3958Q89.57702 341.9539 88.9583 341.97598Q88.32853 341.98703 87.8203 342.49527Q87.27892 343.03665 87.27892 343.67746Q87.27892 344.31827 87.8424 344.90384L87.00271 345.58887Q86.21826 344.64972 86.28455 343.69955Q86.350845 342.7273 87.22368 341.85443Q88.09651 340.9816 89.09088 340.9595Q90.08525 340.9374 90.803406 341.65558Q91.16801 342.02017 91.36688 342.5284Q91.56576 343.01456 91.60995 343.76584Q91.654144 344.49506 91.53261 345.9645Q91.42213 347.20193 91.433174 347.61075Q91.44422 347.99744 91.52156 348.31784L94.50467 345.33475ZM93.25618 342.03122Q92.17342 340.94846 91.74253 340.07562Q91.30059 339.19174 91.37793 338.4073Q91.46632 337.61182 92.129234 336.94888Q92.615364 336.46277 93.17884 336.29703Q93.753365 336.12024 94.372086 336.25284Q94.97976 336.37436 95.64267 336.77213Q96.30558 337.16986 97.21156 338.07584Q98.28327 339.14755 98.714165 340.0204Q99.156105 340.88217 99.078766 341.68872Q99.00143 342.47318 98.32746 343.14713Q97.45463 344.01996 96.31663 343.89844Q94.968704 343.74374 93.25618 342.03122ZM94.01853 341.26886Q95.510086 342.76044 96.360825 342.90405Q97.21156 343.0477 97.719795 342.53946Q98.239075 342.02017 98.0844 341.18048Q97.940765 340.32974 96.44921 338.8382Q94.94661 337.3356 94.10692 337.203Q93.267235 337.04834 92.7369 337.57867Q92.22867 338.08688 92.350204 338.82715Q92.51593 339.76627 94.01853 341.26886ZM98.20593 337.08148Q97.12318 335.99872 96.69228 335.1259Q96.250336 334.242 96.327675 333.45755Q96.41607 332.66205 97.07898 331.99915Q97.56512 331.513 98.12859 331.3473Q98.70312 331.1705 99.32183 331.3031Q99.929504 331.42462 100.592415 331.82236Q101.255325 332.22012 102.16131 333.1261Q103.23302 334.1978 103.66391 335.07065Q104.10585 335.93243 104.02851 336.73898Q103.95117 337.5234 103.277214 338.1974Q102.40438 339.07022 101.26638 338.94867Q99.91846 338.794 98.20593 337.08148ZM98.96828 336.31912Q100.45983 337.81067 101.31057 337.9543Q102.16131 338.09793 102.66954 337.58972Q103.18883 337.07043 103.03414 336.23074Q102.89051 335.38 101.39896 333.88846Q99.896355 332.38583 99.05667 332.25327Q98.21698 332.09857 97.686646 332.6289Q97.17841 333.13715 97.29995 333.8774Q97.465675 334.81653 98.96828 336.31912ZM103.15568 332.1317Q102.07292 331.04898 101.64203 330.17615Q101.20009 329.29227 101.27743 328.5078Q101.365814 327.7123 102.028725 327.0494Q102.51486 326.56326 103.07834 326.39752Q103.65286 326.22076 104.27158 326.35333Q104.87925 326.47488 105.54216 326.87262Q106.20508 327.27036 107.11105 328.17636Q108.18276 329.24805 108.613655 330.12088Q109.0556 330.98267 108.978264 331.7892Q108.90092 332.57367 108.22696 333.24762Q107.354126 334.12045 106.216125 333.99893Q104.8682 333.84424 103.15568 332.1317ZM103.91803 331.3694Q105.409584 332.86093 106.26032 333.00455Q107.11105 333.1482 107.61929 332.63995Q108.13857 332.12067 107.983894 331.28098Q107.84026 330.43024 106.34871 328.9387Q104.84611 327.4361 104.00642 327.30353Q103.166725 327.14883 102.6364 327.67917Q102.12817 328.1874 102.249695 328.92764Q102.41543 329.8668 103.91803 331.3694Z" fill-rule="nonzero"/><path fill="#000000" d="M127.97713 348.37308L128.629 347.52234Q129.3803 348.03058 129.97691 348.00848Q130.56248 347.97534 131.00443 347.5334Q131.53476 347.00305 131.53476 346.27386Q131.53476 345.54465 130.99338 345.00327Q130.48515 344.49506 129.81119 344.5061Q129.13722 344.49506 128.61795 345.0143Q128.40802 345.22424 128.17601 345.63306L127.60148 344.88174Q127.689865 344.81546 127.73406 344.77124Q128.20915 344.29617 128.34174 343.67746Q128.47432 343.03662 127.95503 342.51736Q127.546234 342.10855 127.00486 342.1196Q126.45243 342.1196 126.01049 342.56155Q125.5796 342.99243 125.557495 343.56696Q125.54645 344.13043 126.01049 344.74915L125.1266 345.3679Q124.518936 344.49506 124.596275 343.6001Q124.66257 342.69412 125.38072 341.97598Q125.87791 341.4788 126.51872 341.2799Q127.14849 341.07 127.73406 341.21362Q128.31964 341.35727 128.73947 341.7771Q129.12617 342.1638 129.24771 342.70517Q129.3582 343.2355 129.13722 343.83212Q129.7891 343.42334 130.48515 343.52277Q131.17017 343.61115 131.76678 344.2078Q132.56227 345.00327 132.52913 346.14127Q132.50703 347.26822 131.62315 348.1521Q130.82765 348.9476 129.82224 349.00284Q128.80577 349.04703 127.97713 348.37308ZM131.53476 342.03122Q130.452 340.94846 130.0211 340.07562Q129.57916 339.19174 129.65651 338.4073Q129.7449 337.6118 130.4078 336.94888Q130.89395 336.46274 131.45743 336.29703Q132.03195 336.12024 132.65067 336.25284Q133.25833 336.37436 133.92125 336.7721Q134.58415 337.16986 135.49014 338.07584Q136.56184 339.14755 136.99274 340.0204Q137.43468 340.88217 137.35735 341.68872Q137.28 342.47314 136.60605 343.14713Q135.7332 344.01996 134.5952 343.8984Q133.24728 343.74374 131.53476 342.03122ZM132.2971 341.26886Q133.78867 342.7604 134.6394 342.90405Q135.49014 343.04767 135.99837 342.53946Q136.51765 342.02017 136.36298 341.18048Q136.21935 340.32974 134.72778 338.8382Q133.22519 337.33557 132.3855 337.203Q131.5458 337.0483 131.01547 337.57864Q130.50725 338.08688 130.62878 338.82715Q130.79451 339.76627 132.2971 341.26886ZM136.48451 337.08148Q135.40175 335.99872 134.97086 335.1259Q134.52892 334.242 134.60626 333.45755Q134.69464 332.66205 135.35756 331.99915Q135.84369 331.513 136.40717 331.3473Q136.98169 331.1705 137.60042 331.30307Q138.20808 331.42462 138.87099 331.82236Q139.5339 332.22012 140.43988 333.1261Q141.5116 334.19778 141.94249 335.07065Q142.38443 335.93243 142.30708 336.73895Q142.22975 337.5234 141.55579 338.19736Q140.68295 339.07022 139.54495 338.94867Q138.19704 338.794 136.48451 337.08148ZM137.24686 336.31912Q138.7384 337.81067 139.58914 337.9543Q140.43988 338.09793 140.94812 337.5897Q141.4674 337.07043 141.31273 336.23074Q141.1691 335.38 139.67754 333.88843Q138.17494 332.38583 137.33525 332.25327Q136.49556 332.09857 135.96523 332.6289Q135.457 333.13715 135.57852 333.87738Q135.74426 334.81653 137.24686 336.31912ZM141.43425 332.1317Q140.3515 331.04895 139.92061 330.17612Q139.47867 329.29224 139.556 328.5078Q139.6444 327.7123 140.3073 327.04938Q140.79344 326.56326 141.35692 326.39752Q141.93144 326.22076 142.55016 326.35333Q143.15782 326.47485 143.82074 326.87262Q144.48366 327.27036 145.38963 328.17633Q146.46135 329.24805 146.89224 330.12088Q147.33418 330.98267 147.25684 331.7892Q147.1795 332.57367 146.50554 333.24762Q145.6327 334.12045 144.4947 333.99893Q143.14677 333.84424 141.43425 332.1317ZM142.19661 331.3694Q143.68816 332.86093 144.5389 333.00455Q145.38963 333.1482 145.89787 332.63995Q146.41714 332.12067 146.26247 331.28098Q146.11884 330.43024 144.62729 328.9387Q143.12468 327.4361 142.28499 327.3035Q141.4453 327.14883 140.91498 327.67917Q140.40674 328.18738 140.52827 328.92764Q140.694 329.86676 142.19661 331.3694Z" fill-rule="nonzero"/><path fill="#000000" d="M170.24422 347.58865L168.78581 346.13022L166.15627 348.7598L165.47125 348.07477L164.31116 341.36832L164.91882 340.76065L168.8521 344.6939L169.6697 343.87634L170.3547 344.56134L169.53711 345.37894L170.99551 346.83734L170.24422 347.58865ZM168.1008 345.44522L165.37181 342.71622L166.20045 347.34558L168.1008 345.44522ZM169.81332 342.03122Q168.73058 340.94846 168.29968 340.07562Q167.85774 339.19174 167.93507 338.4073Q168.02347 337.61182 168.68637 336.94888Q169.17252 336.46277 169.736 336.29703Q170.31052 336.12024 170.92923 336.25284Q171.5369 336.37436 172.19981 336.77213Q172.86273 337.16986 173.7687 338.07584Q174.84041 339.14755 175.2713 340.0204Q175.71326 340.88217 175.63591 341.68872Q175.55856 342.47318 174.88461 343.14713Q174.01178 344.01996 172.87378 343.89844Q171.52585 343.74374 169.81332 342.03122ZM170.57568 341.26886Q172.06723 342.76044 172.91797 342.90405Q173.7687 343.0477 174.27693 342.53946Q174.79622 342.02017 174.64154 341.18048Q174.49791 340.32974 173.00636 338.8382Q171.50375 337.3356 170.66406 337.203Q169.82437 337.04834 169.29405 337.57864Q168.78581 338.08688 168.90735 338.82715Q169.07307 339.76627 170.57568 341.26886ZM174.76308 337.08148Q173.68031 335.99872 173.24942 335.1259Q172.80748 334.242 172.88483 333.45755Q172.9732 332.66205 173.63612 331.99915Q174.12225 331.513 174.68573 331.3473Q175.26025 331.1705 175.87898 331.3031Q176.48665 331.42462 177.14957 331.82236Q177.81247 332.22012 178.71846 333.1261Q179.79016 334.1978 180.22105 335.07065Q180.663 335.93243 180.58566 336.73898Q180.50832 337.5234 179.83435 338.1974Q178.96152 339.07022 177.82352 338.94867Q176.4756 338.794 174.76308 337.08148ZM175.52542 336.31912Q177.01698 337.81067 177.86772 337.9543Q178.71846 338.09793 179.22668 337.58972Q179.74597 337.07043 179.5913 336.23074Q179.44766 335.38 177.9561 333.88846Q176.4535 332.38583 175.61382 332.25327Q174.77412 332.09857 174.24379 332.6289Q173.73557 333.13715 173.8571 333.8774Q174.02283 334.81653 175.52542 336.31912ZM179.71281 332.1317Q178.63007 331.04898 178.19917 330.17615Q177.75723 329.29224 177.83456 328.5078Q177.92296 327.7123 178.58588 327.0494Q179.072 326.56326 179.63548 326.39752Q180.21 326.22076 180.82872 326.35333Q181.4364 326.47488 182.0993 326.87262Q182.76222 327.27036 183.6682 328.17636Q184.73991 329.24805 185.1708 330.12088Q185.61275 330.98267 185.5354 331.7892Q185.45807 332.57367 184.7841 333.24762Q183.91127 334.12045 182.77327 333.99893Q181.42534 333.84424 179.71281 332.1317ZM180.47517 331.3694Q181.96672 332.86093 182.81746 333.00455Q183.6682 333.1482 184.17644 332.63995Q184.69571 332.12067 184.54103 331.28098Q184.3974 330.43024 182.90585 328.9387Q181.40324 327.4361 180.56355 327.30353Q179.72388 327.14883 179.19354 327.67917Q178.6853 328.1874 178.80684 328.92764Q178.97256 329.86676 180.47517 331.3694Z" fill-rule="nonzero"/><path fill="#000000" d="M204.54532 348.38412L205.26347 347.5334Q205.92639 348.01953 206.52301 347.99744Q207.13068 347.9643 207.58366 347.5113Q208.114 346.98096 208.08086 346.1965Q208.04771 345.41208 207.3848 344.74915Q206.74399 344.10834 206.01479 344.10834Q205.28557 344.08624 204.7 344.6718Q204.34645 345.02536 204.21387 345.4894Q204.09233 345.9424 204.18073 346.36224L203.39627 346.9699L200.86615 343.26865L203.89346 340.24136L204.60057 340.94846L202.16989 343.37915L203.48466 345.33472Q203.63934 344.40665 204.23596 343.81003Q205.03146 343.01453 206.12526 343.02557Q207.23012 343.02557 208.10295 343.8984Q208.92055 344.716 209.05313 345.79877Q209.19676 347.11356 208.19135 348.11896Q207.3627 348.9476 206.36833 349.0139Q205.38501 349.06915 204.54532 348.38412ZM208.0919 342.03122Q207.00914 340.94846 206.57825 340.07562Q206.1363 339.19174 206.21365 338.4073Q206.30205 337.6118 206.96495 336.94888Q207.4511 336.46274 208.01456 336.29703Q208.5891 336.12024 209.20781 336.25284Q209.81548 336.37436 210.4784 336.7721Q211.1413 337.16986 212.04729 338.07584Q213.11899 339.14755 213.54988 340.0204Q213.99182 340.88217 213.91449 341.68872Q213.83714 342.47314 213.1632 343.14713Q212.29034 344.01996 211.15234 343.8984Q209.80443 343.74374 208.0919 342.03122ZM208.85425 341.26886Q210.34581 342.7604 211.19655 342.90405Q212.04729 343.04767 212.55551 342.53946Q213.0748 342.02017 212.92012 341.18048Q212.77649 340.32974 211.28493 338.8382Q209.78233 337.33557 208.94264 337.203Q208.10295 337.0483 207.57262 337.57864Q207.06439 338.08688 207.18593 338.82715Q207.35165 339.76627 208.85425 341.26886ZM213.04166 337.08148Q211.9589 335.99872 211.528 335.1259Q211.08606 334.242 211.1634 333.45755Q211.25179 332.66205 211.9147 331.99915Q212.40083 331.513 212.96431 331.34726Q213.53883 331.1705 214.15756 331.30307Q214.76523 331.42462 215.42813 331.82236Q216.09105 332.22012 216.99702 333.1261Q218.06874 334.19778 218.49963 335.07065Q218.94157 335.93243 218.86423 336.73895Q218.7869 337.5234 218.11293 338.19736Q217.2401 339.07022 216.1021 338.94867Q214.75418 338.794 213.04166 337.08148ZM213.804 336.31912Q215.29555 337.81067 216.14629 337.9543Q216.99702 338.09793 217.50526 337.5897Q218.02455 337.07043 217.86986 336.23074Q217.72623 335.38 216.23468 333.88843Q214.73209 332.38583 213.8924 332.25327Q213.0527 332.09857 212.52237 332.6289Q212.01413 333.13715 212.13567 333.87738Q212.3014 334.81653 213.804 336.31912ZM217.9914 332.1317Q216.90865 331.04895 216.47775 330.17612Q216.03581 329.29224 216.11314 328.5078Q216.20154 327.7123 216.86444 327.04938Q217.35059 326.56326 217.91406 326.39752Q218.48859 326.22076 219.1073 326.35333Q219.71497 326.47485 220.37788 326.87262Q221.0408 327.27036 221.94678 328.17633Q223.0185 329.24805 223.44939 330.12088Q223.89133 330.98267 223.81398 331.7892Q223.73665 332.57367 223.06268 333.24762Q222.18985 334.12045 221.05185 333.99893Q219.70392 333.84424 217.9914 332.1317ZM218.75375 331.3694Q220.2453 332.86093 221.09604 333.00455Q221.94678 333.1482 222.45502 332.63995Q222.97429 332.12067 222.81961 331.28098Q222.67598 330.43024 221.18443 328.9387Q219.68182 327.4361 218.84213 327.3035Q218.00244 327.14883 217.47212 327.67917Q216.96388 328.18738 217.08542 328.92764Q217.25114 329.86676 218.75375 331.3694Z" fill-rule="nonzero"/><path fill="#000000" d="M243.69672 341.52298L243.01172 342.31848Q242.47034 341.97598 242.09468 341.9539Q241.46492 341.94284 241.02298 342.38477Q240.66942 342.73834 240.59209 343.2134Q240.51474 343.82108 240.802 344.5282Q241.08926 345.2132 241.98419 346.13022Q241.84056 345.45627 242.0284 344.8707Q242.22726 344.27408 242.65816 343.84317Q243.3984 343.10294 244.47012 343.13608Q245.55287 343.15817 246.41466 344.01996Q246.9892 344.59448 247.23225 345.3458Q247.47533 346.07498 247.3096 346.77106Q247.13283 347.45605 246.59145 347.99744Q245.65231 348.93655 244.38173 348.83713Q243.11115 348.7377 241.54225 347.1688Q239.77449 345.40103 239.63086 343.95367Q239.49828 342.69412 240.4595 341.7329Q241.17766 341.01474 242.03944 340.97055Q242.90123 340.90427 243.69672 341.52298ZM243.27689 347.17984Q243.66357 347.56653 244.17181 347.7654Q244.68004 347.9422 245.15514 347.84274Q245.64127 347.73227 245.97272 347.40082Q246.43677 346.93677 246.40361 346.21863Q246.35942 345.4894 245.70757 344.83755Q245.07779 344.2078 244.37068 344.1857Q243.67462 344.15253 243.1664 344.66077Q242.65816 345.169 242.6692 345.88718Q242.6913 346.59427 243.27689 347.17984ZM246.37047 342.03122Q245.28772 340.94846 244.85683 340.07562Q244.41487 339.19174 244.49222 338.4073Q244.58061 337.61182 245.24352 336.94888Q245.72966 336.46277 246.29314 336.29703Q246.86766 336.12024 247.48637 336.25284Q248.09404 336.37436 248.75696 336.77213Q249.41988 337.16986 250.32585 338.07584Q251.39755 339.14755 251.82845 340.0204Q252.27039 340.88217 252.19305 341.68872Q252.1157 342.47318 251.44176 343.14713Q250.56892 344.01996 249.43092 343.89844Q248.083 343.74374 246.37047 342.03122ZM247.13283 341.26886Q248.62437 342.76044 249.47511 342.90405Q250.32585 343.0477 250.83408 342.53946Q251.35336 342.02017 251.19868 341.18048Q251.05505 340.32974 249.5635 338.8382Q248.0609 337.3356 247.2212 337.203Q246.38152 337.04834 245.8512 337.57864Q245.34296 338.08688 245.4645 338.82715Q245.63022 339.76627 247.13283 341.26886ZM251.32022 337.08148Q250.23746 335.99872 249.80656 335.1259Q249.36462 334.242 249.44197 333.45755Q249.53035 332.66205 250.19327 331.99915Q250.6794 331.513 251.24287 331.3473Q251.8174 331.1705 252.43613 331.30307Q253.0438 331.42462 253.70671 331.82236Q254.36961 332.22012 255.2756 333.1261Q256.34732 334.1978 256.7782 335.07065Q257.22015 335.93243 257.1428 336.73898Q257.06546 337.5234 256.3915 338.1974Q255.51866 339.07022 254.38066 338.94867Q253.03275 338.794 251.32022 337.08148ZM252.08257 336.31912Q253.57413 337.81067 254.42487 337.9543Q255.2756 338.09793 255.78383 337.5897Q256.3031 337.07043 256.14844 336.23074Q256.0048 335.38 254.51324 333.88846Q253.01065 332.38583 252.17096 332.25327Q251.33127 332.09857 250.80093 332.6289Q250.29271 333.13715 250.41423 333.87738Q250.57997 334.81653 252.08257 336.31912ZM256.26996 332.1317Q255.18721 331.04898 254.75632 330.17615Q254.31438 329.29224 254.39171 328.5078Q254.4801 327.7123 255.14302 327.0494Q255.62915 326.56326 256.19263 326.39752Q256.76715 326.22076 257.38586 326.35333Q257.99353 326.47488 258.65646 326.87262Q259.31937 327.27036 260.22534 328.17636Q261.29706 329.24805 261.72794 330.12088Q262.1699 330.98267 262.09256 331.7892Q262.0152 332.57367 261.34125 333.24762Q260.4684 334.12045 259.3304 333.99893Q257.98248 333.84424 256.26996 332.1317ZM257.03232 331.3694Q258.52386 332.86093 259.3746 333.00455Q260.22534 333.1482 260.73358 332.63995Q261.25287 332.12067 261.09818 331.28098Q260.95456 330.43024 259.46298 328.9387Q257.9604 327.4361 257.1207 327.3035Q256.281 327.14883 255.75069 327.67917Q255.24245 328.1874 255.36398 328.92764Q255.52971 329.86676 257.03232 331.3694Z" fill-rule="nonzero"/><path fill="#000000" d="M277.45642 344.64972L276.73828 343.93158L280.67157 339.9983L281.25714 340.58386Q281.30133 341.7771 281.75433 343.37915Q282.2073 344.95908 282.9807 346.3512Q283.51105 347.34558 284.3618 348.3068L283.58838 349.0802Q282.88126 348.35098 282.12997 347.06937Q281.3897 345.77667 280.94778 344.34036Q280.51688 342.893 280.43954 341.66663L277.45642 344.64972ZM284.64905 342.03122Q283.56628 340.94846 283.13538 340.07562Q282.69345 339.19174 282.77078 338.40732Q282.85916 337.61182 283.5221 336.94888Q284.0082 336.46277 284.5717 336.29703Q285.1462 336.12027 285.76495 336.25284Q286.37262 336.37436 287.03552 336.77213Q287.69843 337.16986 288.6044 338.07584Q289.67612 339.14755 290.10703 340.0204Q290.54895 340.88217 290.47162 341.68872Q290.3943 342.47318 289.7203 343.14713Q288.84747 344.01996 287.70947 343.89844Q286.36157 343.74374 284.64905 342.03122ZM285.41138 341.2689Q286.90295 342.76044 287.7537 342.90405Q288.6044 343.0477 289.11264 342.53946Q289.63193 342.02017 289.47726 341.18048Q289.33362 340.32974 287.84207 338.8382Q286.33948 337.3356 285.4998 337.203Q284.6601 337.04834 284.12976 337.57867Q283.62152 338.08688 283.74304 338.82715Q283.90878 339.76627 285.41138 341.2689ZM289.5988 337.08148Q288.51602 335.99872 288.08514 335.1259Q287.6432 334.242 287.72052 333.45755Q287.80893 332.66205 288.47183 331.99915Q288.95798 331.513 289.52145 331.3473Q290.09598 331.1705 290.7147 331.3031Q291.32236 331.42462 291.98526 331.82236Q292.6482 332.22012 293.55417 333.1261Q294.6259 334.1978 295.05676 335.07065Q295.49872 335.93243 295.42136 336.73898Q295.34402 337.5234 294.67007 338.1974Q293.79724 339.07022 292.65924 338.94867Q291.3113 338.794 289.5988 337.08148ZM290.36115 336.31912Q291.8527 337.81067 292.70343 337.9543Q293.55417 338.09793 294.0624 337.58972Q294.58167 337.07043 294.427 336.23074Q294.28336 335.38 292.7918 333.88846Q291.2892 332.38583 290.44952 332.25327Q289.60983 332.09857 289.0795 332.6289Q288.57126 333.13715 288.6928 333.8774Q288.85852 334.81653 290.36115 336.31912ZM294.54852 332.13174Q293.4658 331.04898 293.03488 330.17615Q292.59293 329.29227 292.6703 328.5078Q292.75867 327.7123 293.42157 327.0494Q293.9077 326.56326 294.4712 326.39752Q295.04572 326.22076 295.66443 326.35333Q296.2721 326.47488 296.93503 326.87262Q297.59793 327.2704 298.5039 328.17636Q299.57562 329.24805 300.0065 330.1209Q300.44846 330.9827 300.37112 331.7892Q300.29376 332.57367 299.6198 333.24762Q298.74698 334.12048 297.60898 333.99893Q296.26105 333.84427 294.54852 332.13174ZM295.31088 331.3694Q296.80243 332.86093 297.65317 333.00458Q298.5039 333.1482 299.01215 332.63995Q299.53143 332.1207 299.37674 331.281Q299.23312 330.43027 297.74155 328.9387Q296.23895 327.4361 295.39926 327.30353Q294.55957 327.14883 294.02924 327.67917Q293.52103 328.1874 293.64255 328.92764Q293.8083 329.8668 295.31088 331.3694Z" fill-rule="nonzero"/><path fill="#000000" d="M318.82858 345.53363Q318.18777 345.8209 317.6464 345.74353Q317.105 345.6441 316.67413 345.2132Q316.01123 344.5503 316.03333 343.62222Q316.06647 342.6831 316.8509 341.89865Q317.6464 341.10315 318.5966 341.08105Q319.54675 341.05896 320.20966 341.72186Q320.62952 342.14172 320.7179 342.67206Q320.80627 343.20236 320.53006 343.83215Q321.27032 343.44543 321.96637 343.567Q322.66245 343.6885 323.22592 344.25198Q323.9993 345.0254 323.9772 346.10815Q323.96616 347.17984 323.06018 348.08585Q322.16525 348.98077 321.0825 349.00287Q319.99973 349.02496 319.20425 348.22946Q318.60764 347.63284 318.50818 346.9368Q318.4198 346.22968 318.82858 345.53363ZM317.40332 344.41772Q317.83423 344.8486 318.38666 344.8486Q318.95013 344.83755 319.39206 344.39563Q319.82297 343.96472 319.834 343.42334Q319.834 342.8709 319.43628 342.47318Q319.02747 342.06436 318.464 342.07544Q317.88947 342.07544 317.46964 342.49527Q317.03873 342.92615 317.02768 343.48962Q317.02768 344.04205 317.40332 344.41772ZM319.97763 347.45605Q320.29807 347.77646 320.74 347.93115Q321.193 348.0748 321.657 347.9422Q322.12106 347.80963 322.46356 347.4671Q322.9939 346.9368 322.9939 346.25177Q323.00494 345.55573 322.4746 345.0254Q321.93323 344.484 321.22614 344.484Q320.519 344.484 319.97763 345.0254Q319.44733 345.55573 319.45837 346.25177Q319.45837 346.9368 319.97763 347.45605ZM322.9276 342.03122Q321.84485 340.9485 321.41394 340.07565Q320.97202 339.19174 321.04935 338.40732Q321.13773 337.61182 321.80066 336.9489Q322.28677 336.46277 322.85025 336.29703Q323.42477 336.12027 324.04352 336.25284Q324.65118 336.3744 325.3141 336.77213Q325.977 337.16986 326.883 338.07587Q327.95468 339.14755 328.3856 340.0204Q328.8275 340.88217 328.75018 341.68872Q328.67285 342.47318 327.99887 343.14713Q327.12604 344.01996 325.98804 343.89844Q324.64014 343.74374 322.9276 342.03122ZM323.68994 341.2689Q325.18152 342.76044 326.03226 342.90405Q326.883 343.0477 327.3912 342.53946Q327.9105 342.02017 327.75583 341.18048Q327.61218 340.32974 326.12064 338.8382Q324.61804 337.3356 323.77835 337.203Q322.93866 337.04834 322.40833 337.57867Q321.9001 338.0869 322.02164 338.82715Q322.18735 339.76627 323.68994 341.2689ZM327.87735 337.08148Q326.7946 335.99872 326.3637 335.1259Q325.92175 334.242 325.99908 333.45755Q326.0875 332.66208 326.7504 331.99915Q327.23654 331.51303 327.80002 331.3473Q328.37454 331.1705 328.99326 331.3031Q329.60092 331.42462 330.26382 331.8224Q330.92676 332.22012 331.83273 333.1261Q332.90445 334.1978 333.33533 335.07065Q333.77728 335.93243 333.69992 336.73898Q333.6226 337.52344 332.94864 338.1974Q332.0758 339.07022 330.9378 338.9487Q329.58987 338.794 327.87735 337.08148ZM328.6397 336.31912Q330.13126 337.8107 330.982 337.9543Q331.83273 338.09796 332.34097 337.58972Q332.86023 337.07043 332.70557 336.23074Q332.56192 335.38 331.07037 333.88846Q329.56778 332.38586 328.7281 332.25327Q327.8884 332.0986 327.35806 332.6289Q326.84982 333.13715 326.97137 333.8774Q327.1371 334.81653 328.6397 336.31912ZM332.8271 332.13174Q331.74435 331.04898 331.31345 330.17615Q330.87152 329.29227 330.94885 328.5078Q331.03723 327.7123 331.70013 327.0494Q332.18628 326.56326 332.74976 326.39755Q333.32428 326.22076 333.943 326.35333Q334.55066 326.47488 335.2136 326.87262Q335.8765 327.2704 336.78247 328.17636Q337.8542 329.24808 338.28506 330.1209Q338.72702 330.9827 338.6497 331.78925Q338.57233 332.57367 337.89838 333.24765Q337.02554 334.12048 335.88754 333.99893Q334.5396 333.84427 332.8271 332.13174ZM333.58945 331.3694Q335.081 332.86093 335.93173 333.00458Q336.78247 333.1482 337.2907 332.63995Q337.81 332.1207 337.6553 331.281Q337.5117 330.43027 336.02014 328.93872Q334.51752 327.4361 333.67783 327.30353Q332.83813 327.14883 332.30783 327.67917Q331.7996 328.1874 331.9211 328.92764Q332.08685 329.8668 333.58945 331.3694Z" fill-rule="nonzero"/><path fill="#000000" d="M357.95792 348.46146L358.60977 347.67703Q359.2064 348.09686 359.69254 348.07477Q360.17868 348.03058 360.57642 347.6328Q360.9189 347.2903 361.01837 346.88153Q361.1178 346.45062 361.02942 346.0308Q360.93 345.59988 360.5985 345.04745Q360.256 344.48398 359.792 344.01996Q359.73672 343.96472 359.6373 343.86526Q359.76987 344.4398 359.6152 345.0585Q359.44946 345.6662 358.9965 346.11917Q358.23413 346.88153 357.17346 346.85944Q356.10178 346.8263 355.20682 345.93134Q354.27875 345.00327 354.25665 343.8984Q354.2456 342.7825 355.0632 341.96494Q355.64877 341.37936 356.45532 341.21362Q357.27292 341.03683 358.12366 341.37936Q358.96335 341.71082 360.07925 342.82672Q361.23935 343.98682 361.68127 344.93698Q362.12323 345.86505 361.97958 346.73788Q361.83597 347.58862 361.17303 348.25156Q360.4549 348.9697 359.6152 349.03598Q358.76447 349.09125 357.95792 348.46146ZM358.3225 342.72726Q357.6817 342.08646 356.96356 342.0533Q356.25644 342.00912 355.7703 342.49524Q355.27313 342.99243 355.30627 343.7769Q355.33942 344.53925 355.99127 345.1911Q356.5658 345.76562 357.28397 345.77667Q358.0021 345.78772 358.51035 345.27948Q359.02963 344.7602 358.9965 344.06415Q358.96335 343.36807 358.3225 342.72726ZM361.20618 342.03122Q360.12344 340.94846 359.69254 340.07562Q359.2506 339.19174 359.32794 338.4073Q359.41632 337.6118 360.07925 336.94888Q360.56537 336.46274 361.12885 336.29703Q361.70337 336.12024 362.32208 336.25284Q362.92978 336.37436 363.59268 336.7721Q364.25558 337.16986 365.16156 338.07584Q366.23328 339.14755 366.66418 340.0204Q367.1061 340.88217 367.02878 341.68872Q366.95145 342.47314 366.27747 343.14713Q365.40463 344.01996 364.26663 343.8984Q362.9187 343.74374 361.20618 342.03122ZM361.96854 341.26886Q363.46008 342.7604 364.31082 342.90405Q365.16156 343.04767 365.6698 342.53946Q366.1891 342.02017 366.0344 341.18048Q365.89078 340.32974 364.39923 338.8382Q362.8966 337.33557 362.05692 337.203Q361.21725 337.0483 360.68692 337.57864Q360.17868 338.08688 360.3002 338.82715Q360.46594 339.76627 361.96854 341.26886ZM366.15594 337.08145Q365.07318 335.99872 364.6423 335.1259Q364.20035 334.242 364.27768 333.45755Q364.3661 332.66205 365.029 331.99915Q365.51514 331.513 366.0786 331.34726Q366.65314 331.1705 367.27185 331.30307Q367.87952 331.42462 368.54242 331.82236Q369.20532 332.2201 370.11133 333.1261Q371.183 334.19778 371.61392 335.07062Q372.05585 335.9324 371.97852 336.73895Q371.90118 337.5234 371.22723 338.19736Q370.3544 339.0702 369.2164 338.94867Q367.86847 338.79398 366.15594 337.08145ZM366.91827 336.31912Q368.40985 337.81067 369.2606 337.9543Q370.11133 338.09793 370.61954 337.5897Q371.13882 337.0704 370.98416 336.23074Q370.8405 335.38 369.34897 333.88843Q367.84637 332.38583 367.00668 332.25327Q366.167 332.09857 365.63666 332.6289Q365.12842 333.13715 365.24997 333.87738Q365.41568 334.81653 366.91827 336.31912ZM371.10568 332.1317Q370.02292 331.04895 369.59204 330.17612Q369.1501 329.29224 369.22745 328.50778Q369.31583 327.7123 369.97873 327.04938Q370.46487 326.56326 371.02835 326.39752Q371.60287 326.22073 372.2216 326.35333Q372.82925 326.47485 373.49216 326.87262Q374.1551 327.27036 375.06107 328.17633Q376.13278 329.24805 376.56366 330.12088Q377.0056 330.98267 376.92828 331.7892Q376.85092 332.57367 376.17697 333.24762Q375.30414 334.12045 374.16614 333.99893Q372.8182 333.84424 371.10568 332.1317ZM371.86804 331.36935Q373.3596 332.86093 374.21033 333.00455Q375.06107 333.1482 375.5693 332.63995Q376.0886 332.12067 375.9339 331.28098Q375.79028 330.43024 374.2987 328.9387Q372.7961 327.4361 371.95642 327.3035Q371.11673 327.14883 370.5864 327.67917Q370.0782 328.18738 370.1997 328.92764Q370.36545 329.86676 371.86804 331.36935Z" fill-rule="nonzero"/><path fill="#000000" d="M395.38574 352.11853L394.6455 352.8588L389.89462 348.1079Q389.87253 348.63824 389.69574 349.34537Q389.51898 350.03036 389.298 350.49442L388.57983 349.77625Q388.90027 348.85922 388.9555 347.9864Q389.01074 347.09146 388.81186 346.49484L389.28696 346.01974L395.38574 352.11853ZM394.535 346.98096Q393.45224 345.89822 393.02136 345.02536Q392.5794 344.14148 392.65677 343.35706Q392.74515 342.56155 393.40805 341.89865Q393.8942 341.4125 394.45767 341.24677Q395.0322 341.07 395.6509 341.20258Q396.25858 341.3241 396.9215 341.72186Q397.5844 342.1196 398.4904 343.02557Q399.5621 344.0973 399.99298 344.97012Q400.43494 345.8319 400.3576 346.63846Q400.28024 347.4229 399.6063 348.09686Q398.73346 348.9697 397.59546 348.84818Q396.24753 348.69348 394.535 346.98096ZM395.29736 346.21863Q396.7889 347.71017 397.63965 347.8538Q398.4904 347.99744 398.99863 347.4892Q399.5179 346.9699 399.36322 346.13022Q399.2196 345.27948 397.72803 343.78793Q396.22543 342.28534 395.38574 342.15274Q394.54605 341.99808 394.01572 342.5284Q393.5075 343.03662 393.62903 343.7769Q393.79477 344.716 395.29736 346.21863ZM399.48477 342.03122Q398.402 340.94846 397.9711 340.07562Q397.52917 339.19174 397.6065 338.4073Q397.6949 337.61182 398.35782 336.94888Q398.84393 336.46274 399.4074 336.29703Q399.98193 336.12024 400.60065 336.25284Q401.20834 336.37436 401.87125 336.77213Q402.53415 337.16986 403.44012 338.07584Q404.51184 339.14755 404.94275 340.0204Q405.38467 340.88217 405.30734 341.68872Q405.23 342.47318 404.55603 343.14713Q403.6832 344.01996 402.5452 343.89844Q401.1973 343.74374 399.48477 342.03122ZM400.2471 341.26886Q401.73865 342.76044 402.5894 342.90405Q403.44012 343.0477 403.94836 342.53946Q404.46765 342.02017 404.31296 341.18048Q404.16934 340.32974 402.6778 338.8382Q401.17517 337.3356 400.3355 337.203Q399.49582 337.04834 398.96548 337.57864Q398.45724 338.08688 398.57877 338.82715Q398.7445 339.76627 400.2471 341.26886ZM404.4345 337.08148Q403.35175 335.99872 402.92087 335.1259Q402.4789 334.242 402.55624 333.45755Q402.64465 332.66205 403.30756 331.99915Q403.7937 331.513 404.35718 331.3473Q404.9317 331.1705 405.5504 331.30307Q406.15808 331.42462 406.82098 331.82236Q407.48392 332.22012 408.3899 333.1261Q409.46158 334.1978 409.8925 335.07065Q410.33444 335.93243 410.25708 336.73895Q410.17975 337.5234 409.5058 338.1974Q408.63297 339.07022 407.49496 338.94867Q406.14703 338.794 404.4345 337.08148ZM405.19687 336.31912Q406.68842 337.81067 407.53915 337.9543Q408.3899 338.09793 408.89813 337.5897Q409.4174 337.07043 409.26273 336.23074Q409.11908 335.38 407.62753 333.88843Q406.12494 332.38583 405.28525 332.25327Q404.44556 332.09857 403.91522 332.6289Q403.40698 333.13715 403.52853 333.87738Q403.69424 334.81653 405.19687 336.31912ZM409.38425 332.1317Q408.30148 331.04898 407.8706 330.17612Q407.42865 329.29224 407.506 328.5078Q407.5944 327.7123 408.2573 327.0494Q408.74344 326.56326 409.30692 326.39752Q409.88144 326.22076 410.50015 326.35333Q411.10782 326.47488 411.77075 326.87262Q412.43365 327.27036 413.33963 328.17633Q414.41135 329.24805 414.84222 330.12088Q415.28418 330.98267 415.20685 331.7892Q415.1295 332.57367 414.45554 333.24762Q413.5827 334.12045 412.4447 333.99893Q411.09677 333.84424 409.38425 332.1317ZM410.1466 331.3694Q411.63815 332.86093 412.4889 333.00455Q413.33963 333.1482 413.84787 332.63995Q414.36716 332.12067 414.21246 331.28098Q414.06885 330.43024 412.57727 328.9387Q411.07468 327.4361 410.235 327.3035Q409.3953 327.14883 408.86496 327.67917Q408.35675 328.1874 408.47827 328.92764Q408.644 329.86676 410.1466 331.3694Z" fill-rule="nonzero"/><path fill="#000000" d="M433.6643 352.11853L432.92407 352.8588L428.1732 348.1079Q428.1511 348.63824 427.9743 349.34537Q427.79755 350.03036 427.57657 350.49442L426.8584 349.77625Q427.17883 348.85922 427.23407 347.9864Q427.2893 347.09146 427.09042 346.49484L427.56552 346.01974L433.6643 352.11853ZM438.61407 347.1688L437.8738 347.90906L433.12292 343.15817Q433.10083 343.6885 432.92407 344.3956Q432.74728 345.08063 432.5263 345.54465L431.80817 344.8265Q432.12857 343.9095 432.1838 343.03665Q432.23904 342.14172 432.0402 341.54507L432.51526 341.07L438.61407 347.1688ZM437.76334 342.03122Q436.68057 340.94846 436.24966 340.07562Q435.80774 339.19174 435.88507 338.4073Q435.97345 337.61182 436.63638 336.94888Q437.1225 336.46277 437.68597 336.29703Q438.2605 336.12024 438.87924 336.25284Q439.4869 336.37436 440.1498 336.77213Q440.8127 337.16986 441.7187 338.07584Q442.7904 339.14755 443.2213 340.0204Q443.66324 340.88217 443.5859 341.68872Q443.50858 342.47318 442.8346 343.14713Q441.96176 344.01996 440.82376 343.89844Q439.47586 343.74374 437.76334 342.03122ZM438.52567 341.26886Q440.01724 342.76044 440.86795 342.90405Q441.7187 343.0477 442.22693 342.53946Q442.74622 342.02017 442.59155 341.18048Q442.4479 340.32974 440.95636 338.8382Q439.45377 337.3356 438.61407 337.203Q437.77438 337.04834 437.24405 337.57867Q436.7358 338.08688 436.85733 338.82715Q437.02307 339.76627 438.52567 341.26886ZM442.71307 337.08148Q441.6303 335.99872 441.19943 335.1259Q440.75748 334.242 440.8348 333.45755Q440.92322 332.66205 441.58612 331.99915Q442.07227 331.513 442.63574 331.3473Q443.21027 331.1705 443.82898 331.3031Q444.43665 331.42462 445.09955 331.82236Q445.76248 332.22012 446.66846 333.1261Q447.74017 334.1978 448.17105 335.07065Q448.613 335.93243 448.53564 336.73898Q448.4583 337.5234 447.78436 338.1974Q446.91153 339.07022 445.77353 338.94867Q444.4256 338.794 442.71307 337.08148ZM443.47543 336.31912Q444.96698 337.81067 445.81772 337.9543Q446.66846 338.09793 447.1767 337.58972Q447.69595 337.07043 447.5413 336.23074Q447.39764 335.38 445.9061 333.88846Q444.4035 332.38583 443.5638 332.25327Q442.72412 332.09857 442.1938 332.6289Q441.68555 333.13715 441.8071 333.8774Q441.9728 334.81653 443.47543 336.31912ZM447.6628 332.1317Q446.58005 331.04898 446.14917 330.17615Q445.7072 329.29227 445.78458 328.5078Q445.87296 327.7123 446.53586 327.0494Q447.022 326.56326 447.58548 326.39752Q448.16 326.22076 448.77872 326.35333Q449.38638 326.47488 450.04932 326.87262Q450.71222 327.27036 451.6182 328.17636Q452.6899 329.24805 453.1208 330.12088Q453.56274 330.98267 453.4854 331.7892Q453.40805 332.57367 452.7341 333.24762Q451.86127 334.12045 450.72327 333.99893Q449.37534 333.84424 447.6628 332.1317ZM448.42517 331.3694Q449.91672 332.86093 450.76746 333.00458Q451.6182 333.1482 452.12643 332.63995Q452.64572 332.12067 452.49103 331.281Q452.3474 330.43027 450.85583 328.9387Q449.35324 327.4361 448.51355 327.30353Q447.67386 327.14883 447.14352 327.67917Q446.6353 328.1874 446.75684 328.92764Q446.92258 329.8668 448.42517 331.3694Z" fill-rule="nonzero"/><path fill="#000000" d="M471.94287 352.11856L471.20264 352.8588L466.45175 348.10794Q466.42966 348.63824 466.25287 349.34537Q466.0761 350.03036 465.85513 350.49442L465.137 349.77625Q465.4574 348.85922 465.51263 347.9864Q465.56787 347.09146 465.369 346.49484L465.8441 346.01974L471.94287 352.11856ZM477.29037 345.33475L478.00854 346.0529L473.98688 350.07455Q473.7217 349.80942 473.55597 349.4669Q473.30185 348.9034 473.23557 348.17422Q473.18033 347.43396 473.30185 346.27386Q473.47864 344.4619 473.34604 343.64432Q473.22452 342.81567 472.80466 342.39584Q472.36273 341.9539 471.74402 341.97598Q471.11423 341.98703 470.60602 342.49527Q470.06464 343.03665 470.06464 343.67746Q470.06464 344.31827 470.6281 344.90384L469.78842 345.58887Q469.00397 344.64972 469.07025 343.69955Q469.13657 342.7273 470.0094 341.85446Q470.88223 340.98163 471.8766 340.95953Q472.87097 340.9374 473.5891 341.65558Q473.9537 342.02017 474.1526 342.5284Q474.35147 343.01456 474.39566 343.76584Q474.43985 344.49506 474.31833 345.9645Q474.20782 347.20193 474.21887 347.61075Q474.22992 347.99744 474.30728 348.31784L477.29037 345.33475ZM476.0419 342.03122Q474.95914 340.9485 474.52823 340.07562Q474.0863 339.19174 474.16364 338.40732Q474.252 337.61182 474.91495 336.9489Q475.40106 336.46277 475.96454 336.29703Q476.53906 336.12027 477.1578 336.25284Q477.76547 336.37436 478.42838 336.77213Q479.09128 337.16986 479.99728 338.07584Q481.06897 339.14755 481.49988 340.0204Q481.9418 340.88217 481.86447 341.68872Q481.78714 342.47318 481.11316 343.14713Q480.24033 344.01996 479.10233 343.89844Q477.75443 343.74374 476.0419 342.03122ZM476.80423 341.2689Q478.2958 342.76044 479.14655 342.90405Q479.99728 343.0477 480.5055 342.53946Q481.02478 342.02017 480.87012 341.18048Q480.72647 340.32974 479.23492 338.8382Q477.73233 337.3356 476.89264 337.203Q476.05295 337.04834 475.5226 337.57867Q475.01437 338.08688 475.13593 338.82715Q475.30164 339.76627 476.80423 341.2689ZM480.99164 337.08148Q479.90887 335.99872 479.478 335.1259Q479.03604 334.242 479.11337 333.45755Q479.20178 332.66208 479.8647 331.99915Q480.35083 331.513 480.9143 331.3473Q481.48883 331.1705 482.10754 331.3031Q482.7152 331.42462 483.3781 331.8224Q484.04105 332.22012 484.94702 333.1261Q486.01874 334.1978 486.44962 335.07065Q486.89157 335.93243 486.8142 336.73898Q486.73688 337.52344 486.06293 338.1974Q485.1901 339.07022 484.0521 338.9487Q482.70416 338.794 480.99164 337.08148ZM481.754 336.31912Q483.24554 337.8107 484.09628 337.9543Q484.94702 338.09796 485.45526 337.58972Q485.97452 337.07043 485.81985 336.23074Q485.6762 335.38 484.18466 333.88846Q482.68207 332.38586 481.84238 332.25327Q481.0027 332.0986 480.47235 332.6289Q479.9641 333.13715 480.08566 333.8774Q480.25137 334.81653 481.754 336.31912ZM485.94138 332.13174Q484.85864 331.04898 484.42773 330.17615Q483.9858 329.29227 484.06314 328.5078Q484.15152 327.7123 484.81442 327.0494Q485.30057 326.56326 485.86404 326.39755Q486.43857 326.22076 487.05728 326.35333Q487.66495 326.47488 488.32788 326.87262Q488.99078 327.2704 489.89676 328.17636Q490.96848 329.24808 491.39935 330.1209Q491.8413 330.9827 491.76398 331.7892Q491.6866 332.57367 491.01266 333.24765Q490.13983 334.12048 489.00183 333.99893Q487.6539 333.84427 485.94138 332.13174ZM486.70374 331.3694Q488.19528 332.86093 489.04602 333.00458Q489.89676 333.1482 490.405 332.63995Q490.9243 332.1207 490.7696 331.281Q490.62598 330.43027 489.13443 328.9387Q487.6318 327.4361 486.7921 327.30353Q485.95242 327.14883 485.42212 327.67917Q484.91388 328.1874 485.0354 328.92764Q485.20114 329.8668 486.70374 331.3694Z" fill-rule="nonzero"/><path fill="#000000" d="M510.22144 352.11856L509.4812 352.8588L504.73032 348.10794Q504.70822 348.63828 504.53143 349.34537Q504.35468 350.03036 504.1337 350.49442L503.41556 349.77628Q503.73596 348.85922 503.7912 347.9864Q503.84644 347.09146 503.64755 346.49484L504.12265 346.01974L510.22144 352.11856ZM510.76282 348.3731L511.4147 347.52237Q512.166 348.03058 512.76263 348.00848Q513.3482 347.97534 513.7901 347.53342Q514.32043 347.00308 514.32043 346.27386Q514.32043 345.54468 513.77905 345.0033Q513.2709 344.49506 512.59686 344.5061Q511.9229 344.49506 511.40366 345.01434Q511.19373 345.22427 510.9617 345.63306L510.38718 344.88174Q510.47556 344.81546 510.51974 344.77127Q510.99484 344.29617 511.12744 343.67746Q511.26 343.03665 510.74072 342.51736Q510.33194 342.10858 509.79056 342.11963Q509.23813 342.11963 508.79617 342.56155Q508.3653 342.99246 508.3432 343.567Q508.33215 344.13046 508.79617 344.74918L507.9123 345.3679Q507.30463 344.49506 507.38196 343.60013Q507.44827 342.69415 508.1664 341.97598Q508.6636 341.47882 509.3044 341.27994Q509.93417 341.07 510.51974 341.21365Q511.10535 341.35727 511.52518 341.77713Q511.91187 342.16382 512.0334 342.7052Q512.1439 343.23553 511.9229 343.83215Q512.57477 343.42334 513.2709 343.5228Q513.9559 343.61118 514.5525 344.2078Q515.34796 345.0033 515.3148 346.1413Q515.2927 347.26825 514.4089 348.15213Q513.61334 348.94763 512.6079 349.00287Q511.59146 349.04706 510.76282 348.3731ZM514.32043 342.03122Q513.2377 340.9485 512.8068 340.07565Q512.36487 339.19177 512.4422 338.40732Q512.5306 337.61182 513.1935 336.9489Q513.6796 336.46277 514.2431 336.29703Q514.8176 336.12027 515.43634 336.25284Q516.044 336.3744 516.707 336.77213Q517.3699 337.16986 518.2758 338.07587Q519.34753 339.14755 519.77844 340.0204Q520.2204 340.88217 520.14307 341.68872Q520.0657 342.47318 519.3917 343.14713Q518.5189 344.01996 517.3809 343.89844Q516.03296 343.74374 514.32043 342.03122ZM515.0828 341.2689Q516.57434 342.76044 517.4251 342.90408Q518.2758 343.0477 518.78406 342.53946Q519.30334 342.02017 519.1487 341.18048Q519.00507 340.32977 517.5135 338.8382Q516.01086 337.3356 515.1712 337.20303Q514.3315 337.04834 513.80115 337.57867Q513.29297 338.0869 513.4145 338.82715Q513.5802 339.7663 515.0828 341.2689ZM519.2702 337.08148Q518.18744 335.99872 517.75653 335.1259Q517.31464 334.242 517.39197 333.45755Q517.48035 332.66208 518.14325 331.99915Q518.6294 331.51303 519.1929 331.3473Q519.7674 331.1705 520.3861 331.3031Q520.9938 331.42462 521.6567 331.8224Q522.3196 332.22012 523.2256 333.1261Q524.2973 334.1978 524.7282 335.07065Q525.1701 335.93243 525.0928 336.73898Q525.01544 337.52344 524.3415 338.1974Q523.4686 339.07022 522.3306 338.9487Q520.9827 338.794 519.2702 337.08148ZM520.03253 336.31912Q521.5241 337.8107 522.3748 337.9543Q523.2256 338.09796 523.7338 337.58972Q524.2531 337.07043 524.0984 336.23074Q523.9548 335.38 522.46326 333.88846Q520.96063 332.38586 520.121 332.25327Q519.28125 332.0986 518.7509 332.62894Q518.2427 333.13715 518.3642 333.8774Q518.52997 334.81653 520.03253 336.31912ZM524.22 332.13174Q523.1372 331.04898 522.7063 330.17615Q522.26434 329.29227 522.3417 328.5078Q522.4301 327.7123 523.093 327.0494Q523.57916 326.56326 524.14264 326.39755Q524.71716 326.22076 525.3359 326.35336Q525.94354 326.47488 526.60645 326.87262Q527.26935 327.2704 528.17535 328.17636Q529.2471 329.24808 529.6779 330.1209Q530.1199 330.9827 530.04254 331.78925Q529.9652 332.57367 529.29126 333.24765Q528.4184 334.12048 527.2804 333.99893Q525.9325 333.84427 524.22 332.13174ZM524.9823 331.3694Q526.4739 332.86093 527.3246 333.00458Q528.17535 333.1482 528.6836 332.63998Q529.2028 332.1207 529.04816 331.281Q528.90454 330.43027 527.41296 328.93872Q525.9104 327.4361 525.0707 327.30353Q524.231 327.14883 523.7007 327.67917Q523.19244 328.1874 523.31396 328.92767Q523.4797 329.8668 524.9823 331.3694Z" fill-rule="nonzero"/><path fill="#000000" d="M548.5 352.11856L547.75977 352.85883L543.0089 348.10794Q542.9868 348.63828 542.81 349.34537Q542.63324 350.0304 542.4123 350.49442L541.6941 349.77628Q542.0145 348.85925 542.06976 347.9864Q542.125 347.09146 541.92615 346.49484L542.40125 346.01978L548.5 352.11856ZM553.0299 347.58865L551.57153 346.13025L548.94196 348.7598L548.25696 348.0748L547.09686 341.36832L547.7045 340.76065L551.6378 344.69394L552.4554 343.87634L553.1404 344.56134L552.3228 345.37894L553.7812 346.83734L553.0299 347.58865ZM550.8865 345.44525L548.15753 342.71625L548.98615 347.34558L550.8865 345.44525ZM552.599 342.03125Q551.5163 340.9485 551.0854 340.07565Q550.64343 339.19177 550.72076 338.40732Q550.80914 337.61182 551.47205 336.9489Q551.9582 336.46277 552.52167 336.29706Q553.0962 336.12027 553.7149 336.25284Q554.3226 336.3744 554.98553 336.77213Q555.64844 337.1699 556.5544 338.07587Q557.6261 339.14758 558.057 340.02042Q558.49896 340.8822 558.42163 341.68872Q558.34424 342.47318 557.6703 343.14716Q556.7975 344.02 555.6595 343.89844Q554.3115 343.74377 552.599 342.03125ZM553.3614 341.2689Q554.8529 342.76044 555.7037 342.90408Q556.5544 343.0477 557.0626 342.53946Q557.5819 342.0202 557.42725 341.1805Q557.2836 340.32977 555.79205 338.8382Q554.2894 337.3356 553.44977 337.20303Q552.61005 337.04834 552.0798 337.57867Q551.57153 338.0869 551.69305 338.82715Q551.85876 339.7663 553.3614 341.2689ZM557.54877 337.08148Q556.466 335.99875 556.0351 335.1259Q555.5932 334.242 555.67053 333.45758Q555.7589 332.66208 556.4218 331.99918Q556.90796 331.51303 557.47144 331.3473Q558.04596 331.17053 558.6647 331.3031Q559.27234 331.42462 559.93524 331.8224Q560.59814 332.22012 561.50415 333.1261Q562.57587 334.1978 563.0068 335.07065Q563.44867 335.93243 563.37134 336.73898Q563.294 337.52344 562.62006 338.1974Q561.7472 339.07022 560.6092 338.9487Q559.2613 338.794 557.54877 337.08148ZM558.3111 336.31915Q559.8027 337.8107 560.65344 337.9543Q561.50415 338.09796 562.0124 337.58972Q562.5317 337.07043 562.377 336.23074Q562.23334 335.38 560.7418 333.88846Q559.2392 332.38586 558.39954 332.25327Q557.5598 332.0986 557.0295 332.62894Q556.52124 333.13715 556.64276 333.8774Q556.80853 334.81653 558.3111 336.31915ZM562.49854 332.13174Q561.4158 331.04898 560.98486 330.17615Q560.5429 329.29227 560.62024 328.5078Q560.7087 327.71234 561.3716 327.0494Q561.8577 326.56326 562.4212 326.39755Q562.9957 326.22076 563.61444 326.35336Q564.2221 326.47488 564.885 326.87265Q565.5479 327.2704 566.4539 328.17636Q567.52563 329.24808 567.9565 330.1209Q568.39844 330.9827 568.3211 331.78925Q568.2438 332.5737 567.5698 333.24765Q566.69696 334.12048 565.55896 333.99896Q564.21106 333.84427 562.49854 332.13174ZM563.26086 331.3694Q564.75244 332.86096 565.60315 333.00458Q566.4539 333.14822 566.96216 332.63998Q567.4814 332.1207 567.3267 331.281Q567.1831 330.43027 565.6915 328.93872Q564.18896 327.43613 563.34924 327.30353Q562.5096 327.14886 561.97925 327.67917Q561.471 328.1874 561.5925 328.92767Q561.75824 329.8668 563.26086 331.3694Z" fill-rule="nonzero"/></svg>