<svg version="1.1" viewBox="0.0 0.0 600.0 371.0" fill="none" stroke="none" stroke-linecap="square" stroke-miterlimit="10" width="600" height="371" xmlns:xlink="http://www.w3.org/1999/xlink" xmlns="http://www.w3.org/2000/svg"><path fill="#ffffff" d="M0 0L600.0 0L600.0 371.0L0 371.0L0 0Z" fill-rule="nonzero"/><path stroke="#333333" stroke-width="1.0" stroke-linecap="butt" d="M52.5 316.5L581.5 316.5" fill-rule="nonzero"/><path stroke="#cccccc" stroke-width="1.0" stroke-linecap="butt" d="M52.5 258.5L581.5 258.5" fill-rule="nonzero"/><path stroke="#cccccc" stroke-width="1.0" stroke-linecap="butt" d="M52.5 200.5L581.5 200.5" fill-rule="nonzero"/><path stroke="#cccccc" stroke-width="1.0" stroke-linecap="butt" d="M52.5 142.5L581.5 142.5" fill-rule="nonzero"/><path stroke="#cccccc" stroke-width="1.0" stroke-linecap="butt" d="M52.5 83.5L581.5 83.5" fill-rule="nonzero"/><path stroke="#cccccc" stroke-width="1.0" stroke-linecap="butt" d="M52.5 25.5L581.5 25.5" fill-rule="nonzero"/><clipPath id="id_0"><path d="M52.55 25.55L581.45 25.55L581.45 316.75153L52.55 316.75153L52.55 25.55Z" clip-rule="nonzero"/></clipPath><path stroke="#4285f4" stroke-width="2.0" stroke-linecap="butt" clip-path="url(#id_0)" d="M71.439285 316.74472L109.21786 316.68738L146.99643 316.45984L184.775 315.82928L222.55357 314.39606L260.33215 311.56638L298.11072 306.6351L335.88928 298.48364L373.66785 285.4026L411.44644 266.06787L449.225 238.18985L487.00357 199.2792L524.78217 147.14343L562.5607 77.407555" fill-rule="nonzero"/><path fill="#000000" fill-opacity="0.0" clip-path="url(#id_0)" d="M74.439285 316.74472C74.439285 318.40158 73.09614 319.74472 71.439285 319.74472C69.78243 319.74472 68.439285 318.40158 68.439285 316.74472C68.439285 315.08786 69.78243 313.74472 71.439285 313.74472C73.09614 313.74472 74.439285 315.08786 74.439285 316.74472Z" fill-rule="nonzero"/><path fill="#000000" fill-opacity="0.0" clip-path="url(#id_0)" d="M112.21786 316.68738C112.21786 318.34424 110.87471 319.68738 109.21786 319.68738C107.561005 319.68738 106.21786 318.34424 106.21786 316.68738C106.21786 315.03052 107.561005 313.68738 109.21786 313.68738C110.87471 313.68738 112.21786 315.03052 112.21786 316.68738Z" fill-rule="nonzero"/><path fill="#000000" fill-opacity="0.0" clip-path="url(#id_0)" d="M149.99643 316.45984C149.99643 318.1167 148.65329 319.45984 146.99643 319.45984C145.33957 319.45984 143.99643 318.1167 143.99643 316.45984C143.99643 314.80298 145.33957 313.45984 146.99643 313.45984C148.65329 313.45984 149.99643 314.80298 149.99643 316.45984Z" fill-rule="nonzero"/><path fill="#000000" fill-opacity="0.0" clip-path="url(#id_0)" d="M187.775 315.82928C187.775 317.48615 186.43185 318.82928 184.775 318.82928C183.11815 318.82928 181.775 317.48615 181.775 315.82928C181.775 314.17242 183.11815 312.82928 184.775 312.82928C186.43185 312.82928 187.775 314.17242 187.775 315.82928Z" fill-rule="nonzero"/><path fill="#000000" fill-opacity="0.0" clip-path="url(#id_0)" d="M225.55357 314.39606C225.55357 316.05292 224.21042 317.39606 222.55357 317.39606C220.89671 317.39606 219.55357 316.05292 219.55357 314.39606C219.55357 312.73923 220.89671 311.39606 222.55357 311.39606C224.21042 311.39606 225.55357 312.73923 225.55357 314.39606Z" fill-rule="nonzero"/><path fill="#000000" fill-opacity="0.0" clip-path="url(#id_0)" d="M263.33215 311.56638C263.33215 313.22324 261.98898 314.56638 260.33215 314.56638C258.6753 314.56638 257.33215 313.22324 257.33215 311.56638C257.33215 309.90955 258.6753 308.56638 260.33215 308.56638C261.98898 308.56638 263.33215 309.90955 263.33215 311.56638Z" fill-rule="nonzero"/><path fill="#000000" fill-opacity="0.0" clip-path="url(#id_0)" d="M301.11072 306.6351C301.11072 308.29196 299.76758 309.6351 298.11072 309.6351C296.45386 309.6351 295.11072 308.29196 295.11072 306.6351C295.11072 304.97827 296.45386 303.6351 298.11072 303.6351C299.76758 303.6351 301.11072 304.97827 301.11072 306.6351Z" fill-rule="nonzero"/><path fill="#000000" fill-opacity="0.0" clip-path="url(#id_0)" d="M338.88928 298.48364C338.88928 300.1405 337.54614 301.48364 335.88928 301.48364C334.23242 301.48364 332.88928 300.1405 332.88928 298.48364C332.88928 296.8268 334.23242 295.48364 335.88928 295.48364C337.54614 295.48364 338.88928 296.8268 338.88928 298.48364Z" fill-rule="nonzero"/><path fill="#000000" fill-opacity="0.0" clip-path="url(#id_0)" d="M376.66785 285.4026C376.66785 287.05945 375.3247 288.4026 373.66785 288.4026C372.01102 288.4026 370.66785 287.05945 370.66785 285.4026C370.66785 283.74573 372.01102 282.4026 373.66785 282.4026C375.3247 282.4026 376.66785 283.74573 376.66785 285.4026Z" fill-rule="nonzero"/><path fill="#000000" fill-opacity="0.0" clip-path="url(#id_0)" d="M414.44644 266.06787C414.44644 267.7247 413.10327 269.06787 411.44644 269.06787C409.78958 269.06787 408.44644 267.7247 408.44644 266.06787C408.44644 264.411 409.78958 263.06787 411.44644 263.06787C413.10327 263.06787 414.44644 264.411 414.44644 266.06787Z" fill-rule="nonzero"/><path fill="#000000" fill-opacity="0.0" clip-path="url(#id_0)" d="M452.225 238.18985C452.225 239.8467 450.88187 241.18985 449.225 241.18985C447.56815 241.18985 446.225 239.8467 446.225 238.18985C446.225 236.53299 447.56815 235.18985 449.225 235.18985C450.88187 235.18985 452.225 236.53299 452.225 238.18985Z" fill-rule="nonzero"/><path fill="#000000" fill-opacity="0.0" clip-path="url(#id_0)" d="M490.00357 199.2792C490.00357 200.93605 488.66043 202.2792 487.00357 202.2792C485.3467 202.2792 484.00357 200.93605 484.00357 199.2792C484.00357 197.62234 485.3467 196.2792 487.00357 196.2792C488.66043 196.2792 490.00357 197.62234 490.00357 199.2792Z" fill-rule="nonzero"/><path fill="#000000" fill-opacity="0.0" clip-path="url(#id_0)" d="M527.78217 147.14343C527.78217 148.8003 526.439 150.14343 524.78217 150.14343C523.1253 150.14343 521.78217 148.8003 521.78217 147.14343C521.78217 145.48659 523.1253 144.14343 524.78217 144.14343C526.439 144.14343 527.78217 145.48659 527.78217 147.14343Z" fill-rule="nonzero"/><path fill="#000000" fill-opacity="0.0" clip-path="url(#id_0)" d="M565.5607 77.407555C565.5607 79.064415 564.2176 80.407555 562.5607 80.407555C560.9039 80.407555 559.5607 79.064415 559.5607 77.407555C559.5607 75.7507 560.9039 74.407555 562.5607 74.407555C564.2176 74.407555 565.5607 75.7507 565.5607 77.407555Z" fill-rule="nonzero"/><path fill="#000000" d="M40.05 316.51715Q40.05 314.9859 40.3625 314.06403Q40.675 313.12653 41.284374 312.62653Q41.909374 312.12653 42.846874 312.12653Q43.534374 312.12653 44.05 312.40778Q44.58125 312.68903 44.925 313.22028Q45.26875 313.7359 45.45625 314.4859Q45.64375 315.2359 45.64375 316.51715Q45.64375 318.03278 45.33125 318.95465Q45.034374 319.87653 44.409374 320.39215Q43.8 320.89215 42.846874 320.89215Q41.6125 320.89215 40.89375 320.00153Q40.05 318.93903 40.05 316.51715ZM41.128124 316.51715Q41.128124 318.62653 41.628124 319.32965Q42.128124 320.03278 42.846874 320.03278Q43.58125 320.03278 44.065624 319.32965Q44.565624 318.62653 44.565624 316.51715Q44.565624 314.39215 44.065624 313.70465Q43.58125 313.00153 42.83125 313.00153Q42.1125 313.00153 41.675 313.6109Q41.128124 314.39215 41.128124 316.51715Z" fill-rule="nonzero"/><path fill="#000000" d="M31.596874 261.49557L31.596874 262.5112L25.909374 262.5112Q25.909374 262.1362 26.034374 261.77682Q26.253124 261.1987 26.721874 260.6362Q27.20625 260.0737 28.1125 259.33932Q29.51875 258.18307 30.003124 257.5112Q30.503124 256.83932 30.503124 256.24557Q30.503124 255.62057 30.05 255.1987Q29.596874 254.7612 28.878124 254.7612Q28.1125 254.7612 27.659374 255.21432Q27.20625 255.66745 27.190624 256.47995L26.1125 256.37057Q26.221874 255.15182 26.940624 254.52682Q27.675 253.8862 28.909374 253.8862Q30.14375 253.8862 30.8625 254.5737Q31.58125 255.2612 31.58125 256.27682Q31.58125 256.79245 31.3625 257.29245Q31.159374 257.77682 30.659374 258.33932Q30.175 258.8862 29.05 259.83932Q28.096874 260.6362 27.815624 260.93307Q27.55 261.21432 27.378124 261.49557L31.596874 261.49557ZM33.05 260.2612L34.159374 260.16745Q34.284374 260.97995 34.721874 261.3862Q35.175 261.79245 35.815624 261.79245Q36.565624 261.79245 37.096874 261.21432Q37.628124 260.6362 37.628124 259.6987Q37.628124 258.79245 37.1125 258.27682Q36.6125 257.74557 35.784374 257.74557Q35.284374 257.74557 34.8625 257.97995Q34.45625 258.21432 34.221874 258.5737L33.2375 258.4487L34.065624 254.04245L38.346874 254.04245L38.346874 255.04245L34.909374 255.04245L34.45625 257.35495Q35.221874 256.80807 36.065624 256.80807Q37.190624 256.80807 37.95625 257.58932Q38.7375 258.37057 38.7375 259.60495Q38.7375 260.7612 38.065624 261.62057Q37.2375 262.65182 35.815624 262.65182Q34.64375 262.65182 33.89375 261.99557Q33.159374 261.33932 33.05 260.2612ZM40.05 258.27682Q40.05 256.74557 40.3625 255.8237Q40.675 254.8862 41.284374 254.3862Q41.909374 253.8862 42.846874 253.8862Q43.534374 253.8862 44.05 254.16745Q44.58125 254.4487 44.925 254.97995Q45.26875 255.49557 45.45625 256.24557Q45.64375 256.99557 45.64375 258.27682Q45.64375 259.79245 45.33125 260.71432Q45.034374 261.6362 44.409374 262.15182Q43.8 262.65182 42.846874 262.65182Q41.6125 262.65182 40.89375 261.7612Q40.05 260.6987 40.05 258.27682ZM41.128124 258.27682Q41.128124 260.3862 41.628124 261.08932Q42.128124 261.79245 42.846874 261.79245Q43.58125 261.79245 44.065624 261.08932Q44.565624 260.3862 44.565624 258.27682Q44.565624 256.15182 44.065624 255.46432Q43.58125 254.7612 42.83125 254.7612Q42.1125 254.7612 41.675 255.37057Q41.128124 256.15182 41.128124 258.27682Z" fill-rule="nonzero"/><path fill="#000000" d="M26.05 202.0209L27.159374 201.92715Q27.284374 202.73965 27.721874 203.1459Q28.175 203.55215 28.815624 203.55215Q29.565624 203.55215 30.096874 202.97403Q30.628124 202.3959 30.628124 201.4584Q30.628124 200.55215 30.1125 200.03653Q29.6125 199.50528 28.784374 199.50528Q28.284374 199.50528 27.8625 199.73965Q27.45625 199.97403 27.221874 200.3334L26.2375 200.2084L27.065624 195.80215L31.346874 195.80215L31.346874 196.80215L27.909374 196.80215L27.45625 199.11465Q28.221874 198.56778 29.065624 198.56778Q30.190624 198.56778 30.95625 199.34903Q31.7375 200.13028 31.7375 201.36465Q31.7375 202.5209 31.065624 203.38028Q30.2375 204.41153 28.815624 204.41153Q27.64375 204.41153 26.89375 203.75528Q26.159374 203.09903 26.05 202.0209ZM33.05 200.03653Q33.05 198.50528 33.3625 197.5834Q33.675 196.6459 34.284374 196.1459Q34.909374 195.6459 35.846874 195.6459Q36.534374 195.6459 37.05 195.92715Q37.58125 196.2084 37.925 196.73965Q38.26875 197.25528 38.45625 198.00528Q38.64375 198.75528 38.64375 200.03653Q38.64375 201.55215 38.33125 202.47403Q38.034374 203.3959 37.409374 203.91153Q36.8 204.41153 35.846874 204.41153Q34.6125 204.41153 33.89375 203.5209Q33.05 202.4584 33.05 200.03653ZM34.128124 200.03653Q34.128124 202.1459 34.628124 202.84903Q35.128124 203.55215 35.846874 203.55215Q36.58125 203.55215 37.065624 202.84903Q37.565624 202.1459 37.565624 200.03653Q37.565624 197.91153 37.065624 197.22403Q36.58125 196.5209 35.83125 196.5209Q35.1125 196.5209 34.675 197.13028Q34.128124 197.91153 34.128124 200.03653ZM40.05 200.03653Q40.05 198.50528 40.3625 197.5834Q40.675 196.6459 41.284374 196.1459Q41.909374 195.6459 42.846874 195.6459Q43.534374 195.6459 44.05 195.92715Q44.58125 196.2084 44.925 196.73965Q45.26875 197.25528 45.45625 198.00528Q45.64375 198.75528 45.64375 200.03653Q45.64375 201.55215 45.33125 202.47403Q45.034374 203.3959 44.409374 203.91153Q43.8 204.41153 42.846874 204.41153Q41.6125 204.41153 40.89375 203.5209Q40.05 202.4584 40.05 200.03653ZM41.128124 200.03653Q41.128124 202.1459 41.628124 202.84903Q42.128124 203.55215 42.846874 203.55215Q43.58125 203.55215 44.065624 202.84903Q44.565624 202.1459 44.565624 200.03653Q44.565624 197.91153 44.065624 197.22403Q43.58125 196.5209 42.83125 196.5209Q42.1125 196.5209 41.675 197.13028Q41.128124 197.91153 41.128124 200.03653Z" fill-rule="nonzero"/><path fill="#000000" d="M26.1125 138.56186L26.1125 137.54623L31.675 137.54623L31.675 138.37436Q30.8625 139.24936 30.05 140.70248Q29.253124 142.13998 28.815624 143.67123Q28.4875 144.74936 28.409374 146.03061L27.315624 146.03061Q27.33125 145.01498 27.70625 143.57748Q28.096874 142.13998 28.8 140.81186Q29.51875 139.48373 30.33125 138.56186L26.1125 138.56186ZM33.05 143.78061L34.159374 143.68686Q34.284374 144.49936 34.721874 144.90561Q35.175 145.31186 35.815624 145.31186Q36.565624 145.31186 37.096874 144.73373Q37.628124 144.15561 37.628124 143.21811Q37.628124 142.31186 37.1125 141.79623Q36.6125 141.26498 35.784374 141.26498Q35.284374 141.26498 34.8625 141.49936Q34.45625 141.73373 34.221874 142.09311L33.2375 141.96811L34.065624 137.56186L38.346874 137.56186L38.346874 138.56186L34.909374 138.56186L34.45625 140.87436Q35.221874 140.32748 36.065624 140.32748Q37.190624 140.32748 37.95625 141.10873Q38.7375 141.88998 38.7375 143.12436Q38.7375 144.28061 38.065624 145.13998Q37.2375 146.17123 35.815624 146.17123Q34.64375 146.17123 33.89375 145.51498Q33.159374 144.85873 33.05 143.78061ZM40.05 141.79623Q40.05 140.26498 40.3625 139.34311Q40.675 138.40561 41.284374 137.90561Q41.909374 137.40561 42.846874 137.40561Q43.534374 137.40561 44.05 137.68686Q44.58125 137.96811 44.925 138.49936Q45.26875 139.01498 45.45625 139.76498Q45.64375 140.51498 45.64375 141.79623Q45.64375 143.31186 45.33125 144.23373Q45.034374 145.15561 44.409374 145.67123Q43.8 146.17123 42.846874 146.17123Q41.6125 146.17123 40.89375 145.28061Q40.05 144.21811 40.05 141.79623ZM41.128124 141.79623Q41.128124 143.90561 41.628124 144.60873Q42.128124 145.31186 42.846874 145.31186Q43.58125 145.31186 44.065624 144.60873Q44.565624 143.90561 44.565624 141.79623Q44.565624 139.67123 44.065624 138.98373Q43.58125 138.28061 42.83125 138.28061Q42.1125 138.28061 41.675 138.88998Q41.128124 139.67123 41.128124 141.79623Z" fill-rule="nonzero"/><path fill="#000000" d="M23.01875 87.790306L21.971874 87.790306L21.971874 81.071556Q21.58125 81.43093 20.95625 81.80593Q20.346874 82.165306 19.8625 82.33718L19.8625 81.321556Q20.7375 80.89968 21.39375 80.321556Q22.065624 79.727806 22.346874 79.165306L23.01875 79.165306L23.01875 87.790306ZM26.05 83.55593Q26.05 82.02468 26.3625 81.102806Q26.675 80.165306 27.284374 79.665306Q27.909374 79.165306 28.846874 79.165306Q29.534374 79.165306 30.05 79.446556Q30.58125 79.727806 30.925 80.259056Q31.26875 80.77468 31.45625 81.52468Q31.64375 82.27468 31.64375 83.55593Q31.64375 85.071556 31.33125 85.99343Q31.034374 86.915306 30.409374 87.43093Q29.8 87.93093 28.846874 87.93093Q27.6125 87.93093 26.89375 87.040306Q26.05 85.977806 26.05 83.55593ZM27.128124 83.55593Q27.128124 85.665306 27.628124 86.36843Q28.128124 87.071556 28.846874 87.071556Q29.58125 87.071556 30.065624 86.36843Q30.565624 85.665306 30.565624 83.55593Q30.565624 81.43093 30.065624 80.74343Q29.58125 80.040306 28.83125 80.040306Q28.1125 80.040306 27.675 80.64968Q27.128124 81.43093 27.128124 83.55593ZM33.05 83.55593Q33.05 82.02468 33.3625 81.102806Q33.675 80.165306 34.284374 79.665306Q34.909374 79.165306 35.846874 79.165306Q36.534374 79.165306 37.05 79.446556Q37.58125 79.727806 37.925 80.259056Q38.26875 80.77468 38.45625 81.52468Q38.64375 82.27468 38.64375 83.55593Q38.64375 85.071556 38.33125 85.99343Q38.034374 86.915306 37.409374 87.43093Q36.8 87.93093 35.846874 87.93093Q34.6125 87.93093 33.89375 87.040306Q33.05 85.977806 33.05 83.55593ZM34.128124 83.55593Q34.128124 85.665306 34.628124 86.36843Q35.128124 87.071556 35.846874 87.071556Q36.58125 87.071556 37.065624 86.36843Q37.565624 85.665306 37.565624 83.55593Q37.565624 81.43093 37.065624 80.74343Q36.58125 80.040306 35.83125 80.040306Q35.1125 80.040306 34.675 80.64968Q34.128124 81.43093 34.128124 83.55593ZM40.05 83.55593Q40.05 82.02468 40.3625 81.102806Q40.675 80.165306 41.284374 79.665306Q41.909374 79.165306 42.846874 79.165306Q43.534374 79.165306 44.05 79.446556Q44.58125 79.727806 44.925 80.259056Q45.26875 80.77468 45.45625 81.52468Q45.64375 82.27468 45.64375 83.55593Q45.64375 85.071556 45.33125 85.99343Q45.034374 86.915306 44.409374 87.43093Q43.8 87.93093 42.846874 87.93093Q41.6125 87.93093 40.89375 87.040306Q40.05 85.977806 40.05 83.55593ZM41.128124 83.55593Q41.128124 85.665306 41.628124 86.36843Q42.128124 87.071556 42.846874 87.071556Q43.58125 87.071556 44.065624 86.36843Q44.565624 85.665306 44.565624 83.55593Q44.565624 81.43093 44.065624 80.74343Q43.58125 80.040306 42.83125 80.040306Q42.1125 80.040306 41.675 80.64968Q41.128124 81.43093 41.128124 83.55593Z" fill-rule="nonzero"/><path fill="#000000" d="M23.01875 29.55L21.971874 29.55L21.971874 22.83125Q21.58125 23.190624 20.95625 23.565624Q20.346874 23.925 19.8625 24.096874L19.8625 23.08125Q20.7375 22.659374 21.39375 22.08125Q22.065624 21.4875 22.346874 20.925L23.01875 20.925L23.01875 29.55ZM31.596874 28.534374L31.596874 29.55L25.909374 29.55Q25.909374 29.175 26.034374 28.815624Q26.253124 28.2375 26.721874 27.675Q27.20625 27.1125 28.1125 26.378124Q29.51875 25.221874 30.003124 24.55Q30.503124 23.878124 30.503124 23.284374Q30.503124 22.659374 30.05 22.2375Q29.596874 21.8 28.878124 21.8Q28.1125 21.8 27.659374 22.253124Q27.20625 22.70625 27.190624 23.51875L26.1125 23.409374Q26.221874 22.190624 26.940624 21.565624Q27.675 20.925 28.909374 20.925Q30.14375 20.925 30.8625 21.6125Q31.58125 22.3 31.58125 23.315624Q31.58125 23.83125 31.3625 24.33125Q31.159374 24.815624 30.659374 25.378124Q30.175 25.925 29.05 26.878124Q28.096874 27.675 27.815624 27.971874Q27.55 28.253124 27.378124 28.534374L31.596874 28.534374ZM33.05 27.3L34.159374 27.20625Q34.284374 28.01875 34.721874 28.425Q35.175 28.83125 35.815624 28.83125Q36.565624 28.83125 37.096874 28.253124Q37.628124 27.675 37.628124 26.7375Q37.628124 25.83125 37.1125 25.315624Q36.6125 24.784374 35.784374 24.784374Q35.284374 24.784374 34.8625 25.01875Q34.45625 25.253124 34.221874 25.6125L33.2375 25.4875L34.065624 21.08125L38.346874 21.08125L38.346874 22.08125L34.909374 22.08125L34.45625 24.39375Q35.221874 23.846874 36.065624 23.846874Q37.190624 23.846874 37.95625 24.628124Q38.7375 25.409374 38.7375 26.64375Q38.7375 27.8 38.065624 28.659374Q37.2375 29.690624 35.815624 29.690624Q34.64375 29.690624 33.89375 29.034374Q33.159374 28.378124 33.05 27.3ZM40.05 25.315624Q40.05 23.784374 40.3625 22.8625Q40.675 21.925 41.284374 21.425Q41.909374 20.925 42.846874 20.925Q43.534374 20.925 44.05 21.20625Q44.58125 21.4875 44.925 22.01875Q45.26875 22.534374 45.45625 23.284374Q45.64375 24.034374 45.64375 25.315624Q45.64375 26.83125 45.33125 27.753124Q45.034374 28.675 44.409374 29.190624Q43.8 29.690624 42.846874 29.690624Q41.6125 29.690624 40.89375 28.8Q40.05 27.7375 40.05 25.315624ZM41.128124 25.315624Q41.128124 27.425 41.628124 28.128124Q42.128124 28.83125 42.846874 28.83125Q43.58125 28.83125 44.065624 28.128124Q44.565624 27.425 44.565624 25.315624Q44.565624 23.190624 44.065624 22.503124Q43.58125 21.8 42.83125 21.8Q42.1125 21.8 41.675 22.409374Q41.128124 23.190624 41.128124 25.315624Z" fill-rule="nonzero"/><path fill="#000000" d="M62.57835 347.1688L61.838097 347.90906L57.087223 343.15817Q57.065125 343.6885 56.888348 344.3956Q56.71157 345.08063 56.4906 345.54465L55.772446 344.8265Q56.092854 343.9095 56.148098 343.03665Q56.20334 342.1417 56.004467 341.54507L56.479553 341.07L62.57835 347.1688ZM61.72761 342.03122Q60.644855 340.94846 60.213963 340.07562Q59.77202 339.19174 59.849358 338.4073Q59.937748 337.61182 60.60066 336.94888Q61.086796 336.46277 61.650272 336.29703Q62.224796 336.12024 62.843513 336.25284Q63.451183 336.37436 64.1141 336.77213Q64.77701 337.16986 65.68299 338.07584Q66.7547 339.14755 67.18559 340.0204Q67.62753 340.88217 67.55019 341.68872Q67.472855 342.47318 66.79889 343.14713Q65.926056 344.01996 64.788055 343.89844Q63.440136 343.74374 61.72761 342.03122ZM62.48996 341.26886Q63.981514 342.76044 64.83225 342.90405Q65.68299 343.0477 66.19122 342.53946Q66.7105 342.02017 66.555824 341.18048Q66.41219 340.32974 64.92064 338.8382Q63.418037 337.3356 62.57835 337.203Q61.73866 337.04834 61.20833 337.57867Q60.700096 338.08688 60.821632 338.82715Q60.98736 339.76627 62.48996 341.26886ZM66.67736 337.08148Q65.594604 335.99872 65.16371 335.1259Q64.72176 334.242 64.7991 333.45755Q64.8875 332.66205 65.55041 331.99915Q66.036545 331.513 66.60002 331.3473Q67.174545 331.1705 67.79326 331.3031Q68.40093 331.42462 69.06384 331.82236Q69.72675 332.22012 70.63274 333.1261Q71.704445 334.1978 72.13534 335.07065Q72.57728 335.93243 72.49994 336.73898Q72.4226 337.5234 71.74864 338.1974Q70.87581 339.07022 69.73781 338.94867Q68.389885 338.794 66.67736 337.08148ZM67.439705 336.31912Q68.93126 337.81067 69.782 337.9543Q70.63274 338.09793 71.14097 337.58972Q71.660255 337.07043 71.50557 336.23074Q71.36194 335.38 69.870384 333.88846Q68.36778 332.38583 67.5281 332.25327Q66.68841 332.09857 66.15808 332.6289Q65.64984 333.13715 65.77138 333.8774Q65.9371 334.81653 67.439705 336.31912ZM71.627106 332.1317Q70.54435 331.04898 70.11346 330.17615Q69.67152 329.29227 69.748856 328.5078Q69.83724 327.7123 70.50015 327.0494Q70.98629 326.56326 71.54977 326.39752Q72.12429 326.22076 72.74301 326.35333Q73.35068 326.47488 74.01359 326.87262Q74.676506 327.27036 75.58248 328.17636Q76.65419 329.24805 77.08508 330.12088Q77.52703 330.98267 77.44969 331.7892Q77.37235 332.57367 76.69839 333.24762Q75.825554 334.12045 74.68755 333.99893Q73.33963 333.84424 71.627106 332.1317ZM72.38946 331.3694Q73.88101 332.86093 74.73175 333.00458Q75.58248 333.1482 76.09072 332.63995Q76.61 332.12067 76.45532 331.28098Q76.31169 330.43027 74.82014 328.9387Q73.317535 327.4361 72.477844 327.30353Q71.63815 327.14883 71.10783 327.67917Q70.599594 328.1874 70.72112 328.92764Q70.886856 329.8668 72.38946 331.3694Z" fill-rule="nonzero"/><path fill="#000000" d="M100.75467 345.33475L101.472824 346.0529L97.45116 350.07455Q97.18599 349.8094 97.02026 349.4669Q96.76614 348.9034 96.69985 348.17422Q96.64461 347.43396 96.76614 346.27386Q96.942924 344.4619 96.81034 343.64432Q96.688805 342.81567 96.26896 342.3958Q95.82702 341.9539 95.2083 341.97598Q94.57853 341.98703 94.0703 342.49527Q93.52892 343.03665 93.52892 343.67746Q93.52892 344.31827 94.0924 344.90384L93.25271 345.58887Q92.46826 344.64972 92.53455 343.69955Q92.600845 342.7273 93.47368 341.85443Q94.34651 340.9816 95.34088 340.9595Q96.33525 340.9374 97.053406 341.65558Q97.41801 342.02017 97.61688 342.5284Q97.81576 343.01456 97.85995 343.76584Q97.904144 344.49506 97.78261 345.9645Q97.67213 347.20193 97.683174 347.61075Q97.69422 347.99744 97.77156 348.31784L100.75467 345.33475ZM99.50618 342.03122Q98.42342 340.94846 97.99253 340.07562Q97.55059 339.19174 97.62793 338.4073Q97.71632 337.61182 98.379234 336.94888Q98.865364 336.46277 99.42884 336.29703Q100.003365 336.12024 100.622086 336.25284Q101.22976 336.37436 101.89267 336.77213Q102.55558 337.16986 103.46156 338.07584Q104.53327 339.14755 104.964165 340.0204Q105.406105 340.88217 105.328766 341.68872Q105.25143 342.47318 104.57746 343.14713Q103.70463 344.01996 102.56663 343.89844Q101.218704 343.74374 99.50618 342.03122ZM100.26853 341.26886Q101.760086 342.76044 102.610825 342.90405Q103.46156 343.0477 103.969795 342.53946Q104.489075 342.02017 104.3344 341.18048Q104.190765 340.32974 102.69921 338.8382Q101.19661 337.3356 100.35692 337.203Q99.517235 337.04834 98.9869 337.57867Q98.47867 338.08688 98.600204 338.82715Q98.76593 339.76627 100.26853 341.26886ZM104.45593 337.08148Q103.37318 335.99872 102.94228 335.1259Q102.500336 334.242 102.577675 333.45755Q102.66607 332.66205 103.32898 331.99915Q103.81512 331.513 104.37859 331.3473Q104.95312 331.1705 105.57183 331.3031Q106.179504 331.42462 106.842415 331.82236Q107.505325 332.22012 108.41131 333.1261Q109.48302 334.1978 109.91391 335.07065Q110.35585 335.93243 110.27851 336.73898Q110.20117 337.5234 109.527214 338.1974Q108.65438 339.07022 107.51638 338.94867Q106.16846 338.794 104.45593 337.08148ZM105.21828 336.31912Q106.70983 337.81067 107.56057 337.9543Q108.41131 338.09793 108.91954 337.58972Q109.43883 337.07043 109.28414 336.23074Q109.14051 335.38 107.64896 333.88846Q106.146355 332.38583 105.30667 332.25327Q104.46698 332.09857 103.936646 332.6289Q103.42841 333.13715 103.54995 333.8774Q103.715675 334.81653 105.21828 336.31912ZM109.40568 332.1317Q108.32292 331.04898 107.89203 330.17615Q107.45009 329.29227 107.52743 328.5078Q107.615814 327.7123 108.278725 327.0494Q108.76486 326.56326 109.32834 326.39752Q109.90286 326.22076 110.52158 326.35333Q111.12925 326.47488 111.79216 326.87262Q112.45508 327.27036 113.36105 328.17636Q114.43276 329.24805 114.863655 330.12088Q115.3056 330.98267 115.228264 331.7892Q115.15092 332.57367 114.47696 333.24762Q113.604126 334.12045 112.466125 333.99893Q111.1182 333.84424 109.40568 332.1317ZM110.16803 331.3694Q111.659584 332.86093 112.51032 333.00455Q113.36105 333.1482 113.86929 332.63995Q114.38857 332.12067 114.233894 331.28098Q114.09026 330.43024 112.59871 328.9387Q111.09611 327.4361 110.25642 327.30353Q109.416725 327.14883 108.8864 327.67917Q108.37817 328.1874 108.499695 328.92764Q108.66543 329.8668 110.16803 331.3694Z" fill-rule="nonzero"/><path fill="#000000" d="M133.72713 348.37308L134.379 347.52234Q135.1303 348.03058 135.72691 348.00848Q136.31248 347.97534 136.75443 347.5334Q137.28476 347.00305 137.28476 346.27386Q137.28476 345.54465 136.74338 345.00327Q136.23515 344.49506 135.56119 344.5061Q134.88722 344.49506 134.36795 345.0143Q134.15802 345.22424 133.92601 345.63306L133.35149 344.88174Q133.43987 344.81546 133.48405 344.77124Q133.95915 344.29617 134.09174 343.67746Q134.22432 343.03662 133.70503 342.51736Q133.29623 342.10855 132.75485 342.1196Q132.20242 342.1196 131.76048 342.56155Q131.32959 342.99243 131.3075 343.56696Q131.29645 344.13043 131.76048 344.74915L130.8766 345.3679Q130.26894 344.49506 130.34627 343.6001Q130.41257 342.69412 131.13072 341.97598Q131.6279 341.4788 132.26872 341.2799Q132.89848 341.07 133.48405 341.21362Q134.06964 341.35727 134.48947 341.7771Q134.87617 342.1638 134.99771 342.70517Q135.1082 343.2355 134.88722 343.83212Q135.5391 343.42334 136.23515 343.52277Q136.92017 343.61115 137.51678 344.2078Q138.31227 345.00327 138.27913 346.14127Q138.25703 347.26822 137.37315 348.1521Q136.57765 348.9476 135.57224 349.00284Q134.55577 349.04703 133.72713 348.37308ZM137.28476 342.03122Q136.202 340.94846 135.7711 340.07562Q135.32916 339.19174 135.40651 338.4073Q135.4949 337.6118 136.1578 336.94888Q136.64395 336.46274 137.20743 336.29703Q137.78195 336.12024 138.40067 336.25284Q139.00833 336.37436 139.67125 336.7721Q140.33415 337.16986 141.24014 338.07584Q142.31184 339.14755 142.74274 340.0204Q143.18468 340.88217 143.10735 341.68872Q143.03 342.47314 142.35605 343.14713Q141.4832 344.01996 140.3452 343.8984Q138.99728 343.74374 137.28476 342.03122ZM138.0471 341.26886Q139.53867 342.7604 140.3894 342.90405Q141.24014 343.04767 141.74837 342.53946Q142.26765 342.02017 142.11298 341.18048Q141.96935 340.32974 140.47778 338.8382Q138.97519 337.33557 138.1355 337.203Q137.2958 337.0483 136.76547 337.57864Q136.25725 338.08688 136.37878 338.82715Q136.54451 339.76627 138.0471 341.26886ZM142.23451 337.08148Q141.15175 335.99872 140.72086 335.1259Q140.27892 334.242 140.35626 333.45755Q140.44464 332.66205 141.10756 331.99915Q141.59369 331.513 142.15717 331.3473Q142.73169 331.1705 143.35042 331.30307Q143.95808 331.42462 144.62099 331.82236Q145.2839 332.22012 146.18988 333.1261Q147.2616 334.19778 147.69249 335.07065Q148.13443 335.93243 148.05708 336.73895Q147.97975 337.5234 147.30579 338.19736Q146.43295 339.07022 145.29495 338.94867Q143.94704 338.794 142.23451 337.08148ZM142.99686 336.31912Q144.4884 337.81067 145.33914 337.9543Q146.18988 338.09793 146.69812 337.5897Q147.2174 337.07043 147.06273 336.23074Q146.9191 335.38 145.42754 333.88843Q143.92494 332.38583 143.08525 332.25327Q142.24556 332.09857 141.71523 332.6289Q141.207 333.13715 141.32852 333.87738Q141.49426 334.81653 142.99686 336.31912ZM147.18425 332.1317Q146.1015 331.04895 145.67061 330.17612Q145.22867 329.29224 145.306 328.5078Q145.3944 327.7123 146.0573 327.04938Q146.54344 326.56326 147.10692 326.39752Q147.68144 326.22076 148.30016 326.35333Q148.90782 326.47485 149.57074 326.87262Q150.23366 327.27036 151.13963 328.17633Q152.21135 329.24805 152.64224 330.12088Q153.08418 330.98267 153.00684 331.7892Q152.9295 332.57367 152.25554 333.24762Q151.3827 334.12045 150.2447 333.99893Q148.89677 333.84424 147.18425 332.1317ZM147.94661 331.3694Q149.43816 332.86093 150.2889 333.00455Q151.13963 333.1482 151.64787 332.63995Q152.16714 332.12067 152.01247 331.28098Q151.86884 330.43024 150.37729 328.9387Q148.87468 327.4361 148.03499 327.3035Q147.1953 327.14883 146.66498 327.67917Q146.15674 328.18738 146.27827 328.92764Q146.444 329.86676 147.94661 331.3694Z" fill-rule="nonzero"/><path fill="#000000" d="M175.49422 347.58865L174.03581 346.13022L171.40627 348.7598L170.72125 348.07477L169.56116 341.36832L170.16882 340.76065L174.1021 344.6939L174.9197 343.87634L175.6047 344.56134L174.78711 345.37894L176.24551 346.83734L175.49422 347.58865ZM173.3508 345.44522L170.62181 342.71622L171.45045 347.34558L173.3508 345.44522ZM175.06332 342.03122Q173.98058 340.94846 173.54968 340.07562Q173.10774 339.19174 173.18507 338.4073Q173.27347 337.61182 173.93637 336.94888Q174.42252 336.46277 174.986 336.29703Q175.56052 336.12024 176.17923 336.25284Q176.7869 336.37436 177.44981 336.77213Q178.11273 337.16986 179.0187 338.07584Q180.09041 339.14755 180.5213 340.0204Q180.96326 340.88217 180.88591 341.68872Q180.80856 342.47318 180.13461 343.14713Q179.26178 344.01996 178.12378 343.89844Q176.77585 343.74374 175.06332 342.03122ZM175.82568 341.26886Q177.31723 342.76044 178.16797 342.90405Q179.0187 343.0477 179.52693 342.53946Q180.04622 342.02017 179.89154 341.18048Q179.74791 340.32974 178.25636 338.8382Q176.75375 337.3356 175.91406 337.203Q175.07437 337.04834 174.54405 337.57864Q174.03581 338.08688 174.15735 338.82715Q174.32307 339.76627 175.82568 341.26886ZM180.01308 337.08148Q178.93031 335.99872 178.49942 335.1259Q178.05748 334.242 178.13483 333.45755Q178.2232 332.66205 178.88612 331.99915Q179.37225 331.513 179.93573 331.3473Q180.51025 331.1705 181.12898 331.3031Q181.73665 331.42462 182.39957 331.82236Q183.06247 332.22012 183.96846 333.1261Q185.04016 334.1978 185.47105 335.07065Q185.913 335.93243 185.83566 336.73898Q185.75832 337.5234 185.08435 338.1974Q184.21152 339.07022 183.07352 338.94867Q181.7256 338.794 180.01308 337.08148ZM180.77542 336.31912Q182.26698 337.81067 183.11772 337.9543Q183.96846 338.09793 184.47668 337.58972Q184.99597 337.07043 184.8413 336.23074Q184.69766 335.38 183.2061 333.88846Q181.7035 332.38583 180.86382 332.25327Q180.02412 332.09857 179.49379 332.6289Q178.98557 333.13715 179.1071 333.8774Q179.27283 334.81653 180.77542 336.31912ZM184.96281 332.1317Q183.88007 331.04898 183.44917 330.17615Q183.00723 329.29224 183.08456 328.5078Q183.17296 327.7123 183.83588 327.0494Q184.322 326.56326 184.88548 326.39752Q185.46 326.22076 186.07872 326.35333Q186.6864 326.47488 187.3493 326.87262Q188.01222 327.27036 188.9182 328.17636Q189.98991 329.24805 190.4208 330.12088Q190.86275 330.98267 190.7854 331.7892Q190.70807 332.57367 190.0341 333.24762Q189.16127 334.12045 188.02327 333.99893Q186.67534 333.84424 184.96281 332.1317ZM185.72517 331.3694Q187.21672 332.86093 188.06746 333.00455Q188.9182 333.1482 189.42644 332.63995Q189.94571 332.12067 189.79103 331.28098Q189.6474 330.43024 188.15585 328.9387Q186.65324 327.4361 185.81355 327.30353Q184.97388 327.14883 184.44354 327.67917Q183.9353 328.1874 184.05684 328.92764Q184.22256 329.86676 185.72517 331.3694Z" fill-rule="nonzero"/><path fill="#000000" d="M209.29532 348.38412L210.01347 347.5334Q210.67639 348.01953 211.27301 347.99744Q211.88068 347.9643 212.33366 347.5113Q212.864 346.98096 212.83086 346.1965Q212.79771 345.41208 212.1348 344.74915Q211.49399 344.10834 210.76479 344.10834Q210.03557 344.08624 209.45 344.6718Q209.09645 345.02536 208.96387 345.4894Q208.84233 345.9424 208.93073 346.36224L208.14627 346.9699L205.61615 343.26865L208.64346 340.24136L209.35057 340.94846L206.91989 343.37915L208.23466 345.33472Q208.38934 344.40665 208.98596 343.81003Q209.78146 343.01453 210.87526 343.02557Q211.98012 343.02557 212.85295 343.8984Q213.67055 344.716 213.80313 345.79877Q213.94676 347.11356 212.94135 348.11896Q212.1127 348.9476 211.11833 349.0139Q210.13501 349.06915 209.29532 348.38412ZM212.8419 342.03122Q211.75914 340.94846 211.32825 340.07562Q210.8863 339.19174 210.96365 338.4073Q211.05205 337.6118 211.71495 336.94888Q212.2011 336.46274 212.76456 336.29703Q213.3391 336.12024 213.95781 336.25284Q214.56548 336.37436 215.2284 336.7721Q215.8913 337.16986 216.79729 338.07584Q217.86899 339.14755 218.29988 340.0204Q218.74182 340.88217 218.66449 341.68872Q218.58714 342.47314 217.9132 343.14713Q217.04034 344.01996 215.90234 343.8984Q214.55443 343.74374 212.8419 342.03122ZM213.60425 341.26886Q215.09581 342.7604 215.94655 342.90405Q216.79729 343.04767 217.30551 342.53946Q217.8248 342.02017 217.67012 341.18048Q217.52649 340.32974 216.03493 338.8382Q214.53233 337.33557 213.69264 337.203Q212.85295 337.0483 212.32262 337.57864Q211.81439 338.08688 211.93593 338.82715Q212.10165 339.76627 213.60425 341.26886ZM217.79166 337.08148Q216.7089 335.99872 216.278 335.1259Q215.83606 334.242 215.9134 333.45755Q216.00179 332.66205 216.6647 331.99915Q217.15083 331.513 217.71431 331.34726Q218.28883 331.1705 218.90756 331.30307Q219.51523 331.42462 220.17813 331.82236Q220.84105 332.22012 221.74702 333.1261Q222.81874 334.19778 223.24963 335.07065Q223.69157 335.93243 223.61423 336.73895Q223.5369 337.5234 222.86293 338.19736Q221.9901 339.07022 220.8521 338.94867Q219.50418 338.794 217.79166 337.08148ZM218.554 336.31912Q220.04555 337.81067 220.89629 337.9543Q221.74702 338.09793 222.25526 337.5897Q222.77455 337.07043 222.61986 336.23074Q222.47623 335.38 220.98468 333.88843Q219.48209 332.38583 218.6424 332.25327Q217.8027 332.09857 217.27237 332.6289Q216.76413 333.13715 216.88567 333.87738Q217.0514 334.81653 218.554 336.31912ZM222.7414 332.1317Q221.65865 331.04895 221.22775 330.17612Q220.78581 329.29224 220.86314 328.5078Q220.95154 327.7123 221.61444 327.04938Q222.10059 326.56326 222.66406 326.39752Q223.23859 326.22076 223.8573 326.35333Q224.46497 326.47485 225.12788 326.87262Q225.7908 327.27036 226.69678 328.17633Q227.7685 329.24805 228.19939 330.12088Q228.64133 330.98267 228.56398 331.7892Q228.48665 332.57367 227.81268 333.24762Q226.93985 334.12045 225.80185 333.99893Q224.45392 333.84424 222.7414 332.1317ZM223.50375 331.3694Q224.9953 332.86093 225.84604 333.00455Q226.69678 333.1482 227.20502 332.63995Q227.72429 332.12067 227.56961 331.28098Q227.42598 330.43024 225.93443 328.9387Q224.43182 327.4361 223.59213 327.3035Q222.75244 327.14883 222.22212 327.67917Q221.71388 328.18738 221.83542 328.92764Q222.00114 329.86676 223.50375 331.3694Z" fill-rule="nonzero"/><path fill="#000000" d="M247.94672 341.52298L247.26172 342.31848Q246.72034 341.97598 246.34468 341.9539Q245.71492 341.94284 245.27298 342.38477Q244.91942 342.73834 244.84209 343.2134Q244.76474 343.82108 245.052 344.5282Q245.33926 345.2132 246.23419 346.13022Q246.09056 345.45627 246.2784 344.8707Q246.47726 344.27408 246.90816 343.84317Q247.6484 343.10294 248.72012 343.13608Q249.80287 343.15817 250.66466 344.01996Q251.2392 344.59448 251.48225 345.3458Q251.72533 346.07498 251.5596 346.77106Q251.38283 347.45605 250.84145 347.99744Q249.90231 348.93655 248.63173 348.83713Q247.36115 348.7377 245.79225 347.1688Q244.02449 345.40103 243.88086 343.95367Q243.74828 342.69412 244.7095 341.7329Q245.42766 341.01474 246.28944 340.97055Q247.15123 340.90427 247.94672 341.52298ZM247.52689 347.17984Q247.91357 347.56653 248.42181 347.7654Q248.93004 347.9422 249.40514 347.84274Q249.89127 347.73227 250.22272 347.40082Q250.68677 346.93677 250.65361 346.21863Q250.60942 345.4894 249.95757 344.83755Q249.32779 344.2078 248.62068 344.1857Q247.92462 344.15253 247.4164 344.66077Q246.90816 345.169 246.9192 345.88718Q246.9413 346.59427 247.52689 347.17984ZM250.62047 342.03122Q249.53772 340.94846 249.10683 340.07562Q248.66487 339.19174 248.74222 338.4073Q248.83061 337.61182 249.49352 336.94888Q249.97966 336.46277 250.54314 336.29703Q251.11766 336.12024 251.73637 336.25284Q252.34404 336.37436 253.00696 336.77213Q253.66988 337.16986 254.57585 338.07584Q255.64755 339.14755 256.07846 340.0204Q256.5204 340.88217 256.44305 341.68872Q256.36572 342.47318 255.69176 343.14713Q254.81892 344.01996 253.68092 343.89844Q252.333 343.74374 250.62047 342.03122ZM251.38283 341.26886Q252.87437 342.76044 253.72511 342.90405Q254.57585 343.0477 255.08408 342.53946Q255.60336 342.02017 255.44868 341.18048Q255.30505 340.32974 253.8135 338.8382Q252.3109 337.3356 251.4712 337.203Q250.63152 337.04834 250.1012 337.57864Q249.59296 338.08688 249.7145 338.82715Q249.88022 339.76627 251.38283 341.26886ZM255.57022 337.08148Q254.48746 335.99872 254.05656 335.1259Q253.61462 334.242 253.69197 333.45755Q253.78035 332.66205 254.44327 331.99915Q254.9294 331.513 255.49287 331.3473Q256.0674 331.1705 256.68613 331.30307Q257.2938 331.42462 257.9567 331.82236Q258.61963 332.22012 259.5256 333.1261Q260.59732 334.1978 261.0282 335.07065Q261.47015 335.93243 261.3928 336.73898Q261.31546 337.5234 260.6415 338.1974Q259.76868 339.07022 258.63068 338.94867Q257.28275 338.794 255.57022 337.08148ZM256.33258 336.31912Q257.82413 337.81067 258.67487 337.9543Q259.5256 338.09793 260.03384 337.5897Q260.5531 337.07043 260.39844 336.23074Q260.2548 335.38 258.76324 333.88846Q257.26065 332.38583 256.42096 332.25327Q255.58127 332.09857 255.05093 332.6289Q254.54271 333.13715 254.66423 333.87738Q254.82997 334.81653 256.33258 336.31912ZM260.51996 332.1317Q259.4372 331.04898 259.00632 330.17615Q258.56436 329.29224 258.64172 328.5078Q258.7301 327.7123 259.393 327.0494Q259.87915 326.56326 260.44263 326.39752Q261.01715 326.22076 261.63586 326.35333Q262.24353 326.47488 262.90646 326.87262Q263.56937 327.27036 264.47534 328.17636Q265.54706 329.24805 265.97794 330.12088Q266.4199 330.98267 266.34256 331.7892Q266.2652 332.57367 265.59125 333.24762Q264.7184 334.12045 263.5804 333.99893Q262.23248 333.84424 260.51996 332.1317ZM261.28232 331.3694Q262.77386 332.86093 263.6246 333.00455Q264.47534 333.1482 264.98358 332.63995Q265.50287 332.12067 265.34818 331.28098Q265.20456 330.43024 263.71298 328.9387Q262.2104 327.4361 261.3707 327.3035Q260.531 327.14883 260.00067 327.67917Q259.49246 328.1874 259.61398 328.92764Q259.77972 329.86676 261.28232 331.3694Z" fill-rule="nonzero"/><path fill="#000000" d="M281.20642 344.64972L280.48828 343.93158L284.42157 339.9983L285.00714 340.58386Q285.05133 341.7771 285.50433 343.37915Q285.9573 344.95908 286.7307 346.3512Q287.26105 347.34558 288.1118 348.3068L287.33838 349.0802Q286.63126 348.35098 285.87997 347.06937Q285.1397 345.77667 284.69778 344.34036Q284.26688 342.893 284.18954 341.66663L281.20642 344.64972ZM288.39905 342.03122Q287.31628 340.94846 286.88538 340.07562Q286.44345 339.19174 286.52078 338.40732Q286.60916 337.61182 287.2721 336.94888Q287.7582 336.46277 288.3217 336.29703Q288.8962 336.12027 289.51495 336.25284Q290.12262 336.37436 290.78552 336.77213Q291.44843 337.16986 292.3544 338.07584Q293.42612 339.14755 293.85703 340.0204Q294.29895 340.88217 294.22162 341.68872Q294.1443 342.47318 293.4703 343.14713Q292.59747 344.01996 291.45947 343.89844Q290.11157 343.74374 288.39905 342.03122ZM289.16138 341.2689Q290.65295 342.76044 291.5037 342.90405Q292.3544 343.0477 292.86264 342.53946Q293.38193 342.02017 293.22726 341.18048Q293.08362 340.32974 291.59207 338.8382Q290.08948 337.3356 289.2498 337.203Q288.4101 337.04834 287.87976 337.57867Q287.37152 338.08688 287.49304 338.82715Q287.65878 339.76627 289.16138 341.2689ZM293.3488 337.08148Q292.26602 335.99872 291.83514 335.1259Q291.3932 334.242 291.47052 333.45755Q291.55893 332.66205 292.22183 331.99915Q292.70798 331.513 293.27145 331.3473Q293.84598 331.1705 294.4647 331.3031Q295.07236 331.42462 295.73526 331.82236Q296.3982 332.22012 297.30417 333.1261Q298.3759 334.1978 298.80676 335.07065Q299.24872 335.93243 299.17136 336.73898Q299.09402 337.5234 298.42007 338.1974Q297.54724 339.07022 296.40924 338.94867Q295.0613 338.794 293.3488 337.08148ZM294.11115 336.31912Q295.6027 337.81067 296.45343 337.9543Q297.30417 338.09793 297.8124 337.58972Q298.33167 337.07043 298.177 336.23074Q298.03336 335.38 296.5418 333.88846Q295.0392 332.38583 294.19952 332.25327Q293.35983 332.09857 292.8295 332.6289Q292.32126 333.13715 292.4428 333.8774Q292.60852 334.81653 294.11115 336.31912ZM298.29852 332.13174Q297.2158 331.04898 296.78488 330.17615Q296.34293 329.29227 296.4203 328.5078Q296.50867 327.7123 297.17157 327.0494Q297.6577 326.56326 298.2212 326.39752Q298.79572 326.22076 299.41443 326.35333Q300.0221 326.47488 300.68503 326.87262Q301.34793 327.2704 302.2539 328.17636Q303.32562 329.24805 303.7565 330.1209Q304.19846 330.9827 304.12112 331.7892Q304.04376 332.57367 303.3698 333.24762Q302.49698 334.12048 301.35898 333.99893Q300.01105 333.84427 298.29852 332.13174ZM299.06088 331.3694Q300.55243 332.86093 301.40317 333.00458Q302.2539 333.1482 302.76215 332.63995Q303.28143 332.1207 303.12674 331.281Q302.98312 330.43027 301.49155 328.9387Q299.98895 327.4361 299.14926 327.30353Q298.30957 327.14883 297.77924 327.67917Q297.27103 328.1874 297.39255 328.92764Q297.5583 329.8668 299.06088 331.3694Z" fill-rule="nonzero"/><path fill="#000000" d="M322.07858 345.53363Q321.43777 345.8209 320.8964 345.74353Q320.355 345.6441 319.92413 345.2132Q319.26123 344.5503 319.28333 343.62222Q319.31647 342.6831 320.1009 341.89865Q320.8964 341.10315 321.8466 341.08105Q322.79675 341.05896 323.45966 341.72186Q323.87952 342.14172 323.9679 342.67206Q324.05627 343.20236 323.78006 343.83215Q324.52032 343.44543 325.21637 343.567Q325.91245 343.6885 326.47592 344.25198Q327.2493 345.0254 327.2272 346.10815Q327.21616 347.17984 326.31018 348.08585Q325.41525 348.98077 324.3325 349.00287Q323.24973 349.02496 322.45425 348.22946Q321.85764 347.63284 321.75818 346.9368Q321.6698 346.22968 322.07858 345.53363ZM320.65332 344.41772Q321.08423 344.8486 321.63666 344.8486Q322.20013 344.83755 322.64206 344.39563Q323.07297 343.96472 323.084 343.42334Q323.084 342.8709 322.68628 342.47318Q322.27747 342.06436 321.714 342.07544Q321.13947 342.07544 320.71964 342.49527Q320.28873 342.92615 320.27768 343.48962Q320.27768 344.04205 320.65332 344.41772ZM323.22763 347.45605Q323.54807 347.77646 323.99 347.93115Q324.443 348.0748 324.907 347.9422Q325.37106 347.80963 325.71356 347.4671Q326.2439 346.9368 326.2439 346.25177Q326.25494 345.55573 325.7246 345.0254Q325.18323 344.484 324.47614 344.484Q323.769 344.484 323.22763 345.0254Q322.69733 345.55573 322.70837 346.25177Q322.70837 346.9368 323.22763 347.45605ZM326.1776 342.03122Q325.09485 340.9485 324.66394 340.07565Q324.22202 339.19174 324.29935 338.40732Q324.38773 337.61182 325.05066 336.9489Q325.53677 336.46277 326.10025 336.29703Q326.67477 336.12027 327.29352 336.25284Q327.90118 336.3744 328.5641 336.77213Q329.227 337.16986 330.133 338.07587Q331.20468 339.14755 331.6356 340.0204Q332.0775 340.88217 332.00018 341.68872Q331.92285 342.47318 331.24887 343.14713Q330.37604 344.01996 329.23804 343.89844Q327.89014 343.74374 326.1776 342.03122ZM326.93994 341.2689Q328.43152 342.76044 329.28226 342.90405Q330.133 343.0477 330.6412 342.53946Q331.1605 342.02017 331.00583 341.18048Q330.86218 340.32974 329.37064 338.8382Q327.86804 337.3356 327.02835 337.203Q326.18866 337.04834 325.65833 337.57867Q325.1501 338.0869 325.27164 338.82715Q325.43735 339.76627 326.93994 341.2689ZM331.12735 337.08148Q330.0446 335.99872 329.6137 335.1259Q329.17175 334.242 329.24908 333.45755Q329.3375 332.66208 330.0004 331.99915Q330.48654 331.51303 331.05002 331.3473Q331.62454 331.1705 332.24326 331.3031Q332.85092 331.42462 333.51382 331.8224Q334.17676 332.22012 335.08273 333.1261Q336.15445 334.1978 336.58533 335.07065Q337.02728 335.93243 336.94992 336.73898Q336.8726 337.52344 336.19864 338.1974Q335.3258 339.07022 334.1878 338.9487Q332.83987 338.794 331.12735 337.08148ZM331.8897 336.31912Q333.38126 337.8107 334.232 337.9543Q335.08273 338.09796 335.59097 337.58972Q336.11023 337.07043 335.95557 336.23074Q335.81192 335.38 334.32037 333.88846Q332.81778 332.38586 331.9781 332.25327Q331.1384 332.0986 330.60806 332.6289Q330.09982 333.13715 330.22137 333.8774Q330.3871 334.81653 331.8897 336.31912ZM336.0771 332.13174Q334.99435 331.04898 334.56345 330.17615Q334.12152 329.29227 334.19885 328.5078Q334.28723 327.7123 334.95013 327.0494Q335.43628 326.56326 335.99976 326.39755Q336.57428 326.22076 337.193 326.35333Q337.80066 326.47488 338.4636 326.87262Q339.1265 327.2704 340.03247 328.17636Q341.1042 329.24808 341.53506 330.1209Q341.97702 330.9827 341.8997 331.78925Q341.82233 332.57367 341.14838 333.24765Q340.27554 334.12048 339.13754 333.99893Q337.7896 333.84427 336.0771 332.13174ZM336.83945 331.3694Q338.331 332.86093 339.18173 333.00458Q340.03247 333.1482 340.5407 332.63995Q341.06 332.1207 340.9053 331.281Q340.7617 330.43027 339.27014 328.93872Q337.76752 327.4361 336.92783 327.30353Q336.08813 327.14883 335.55783 327.67917Q335.0496 328.1874 335.1711 328.92764Q335.33685 329.8668 336.83945 331.3694Z" fill-rule="nonzero"/><path fill="#000000" d="M360.70792 348.46146L361.35977 347.67703Q361.9564 348.09686 362.44254 348.07477Q362.92868 348.03058 363.32642 347.6328Q363.6689 347.2903 363.76837 346.88153Q363.8678 346.45062 363.77942 346.0308Q363.68 345.59988 363.3485 345.04745Q363.006 344.48398 362.542 344.01996Q362.48672 343.96472 362.3873 343.86526Q362.51987 344.4398 362.3652 345.0585Q362.19946 345.6662 361.7465 346.11917Q360.98413 346.88153 359.92346 346.85944Q358.85178 346.8263 357.95682 345.93134Q357.02875 345.00327 357.00665 343.8984Q356.9956 342.7825 357.8132 341.96494Q358.39877 341.37936 359.20532 341.21362Q360.02292 341.03683 360.87366 341.37936Q361.71335 341.71082 362.82925 342.82672Q363.98935 343.98682 364.43127 344.93698Q364.87323 345.86505 364.72958 346.73788Q364.58597 347.58862 363.92303 348.25156Q363.2049 348.9697 362.3652 349.03598Q361.51447 349.09125 360.70792 348.46146ZM361.0725 342.72726Q360.4317 342.08646 359.71356 342.0533Q359.00644 342.00912 358.5203 342.49524Q358.02313 342.99243 358.05627 343.7769Q358.08942 344.53925 358.74127 345.1911Q359.3158 345.76562 360.03397 345.77667Q360.7521 345.78772 361.26035 345.27948Q361.77963 344.7602 361.7465 344.06415Q361.71335 343.36807 361.0725 342.72726ZM363.95618 342.03122Q362.87344 340.94846 362.44254 340.07562Q362.0006 339.19174 362.07794 338.4073Q362.16632 337.6118 362.82925 336.94888Q363.31537 336.46274 363.87885 336.29703Q364.45337 336.12024 365.07208 336.25284Q365.67978 336.37436 366.34268 336.7721Q367.00558 337.16986 367.91156 338.07584Q368.98328 339.14755 369.41418 340.0204Q369.8561 340.88217 369.77878 341.68872Q369.70145 342.47314 369.02747 343.14713Q368.15463 344.01996 367.01663 343.8984Q365.6687 343.74374 363.95618 342.03122ZM364.71854 341.26886Q366.21008 342.7604 367.06082 342.90405Q367.91156 343.04767 368.4198 342.53946Q368.9391 342.02017 368.7844 341.18048Q368.64078 340.32974 367.14923 338.8382Q365.6466 337.33557 364.80692 337.203Q363.96725 337.0483 363.43692 337.57864Q362.92868 338.08688 363.0502 338.82715Q363.21594 339.76627 364.71854 341.26886ZM368.90594 337.08145Q367.82318 335.99872 367.3923 335.1259Q366.95035 334.242 367.02768 333.45755Q367.1161 332.66205 367.779 331.99915Q368.26514 331.513 368.8286 331.34726Q369.40314 331.1705 370.02185 331.30307Q370.62952 331.42462 371.29242 331.82236Q371.95532 332.2201 372.86133 333.1261Q373.933 334.19778 374.36392 335.07062Q374.80585 335.9324 374.72852 336.73895Q374.65118 337.5234 373.97723 338.19736Q373.1044 339.0702 371.9664 338.94867Q370.61847 338.79398 368.90594 337.08145ZM369.66827 336.31912Q371.15985 337.81067 372.0106 337.9543Q372.86133 338.09793 373.36954 337.5897Q373.88882 337.0704 373.73416 336.23074Q373.5905 335.38 372.09897 333.88843Q370.59637 332.38583 369.75668 332.25327Q368.917 332.09857 368.38666 332.6289Q367.87842 333.13715 367.99997 333.87738Q368.16568 334.81653 369.66827 336.31912ZM373.85568 332.1317Q372.77292 331.04895 372.34204 330.17612Q371.9001 329.29224 371.97745 328.50778Q372.06583 327.7123 372.72873 327.04938Q373.21487 326.56326 373.77835 326.39752Q374.35287 326.22073 374.9716 326.35333Q375.57925 326.47485 376.24216 326.87262Q376.9051 327.27036 377.81107 328.17633Q378.88278 329.24805 379.31366 330.12088Q379.7556 330.98267 379.67828 331.7892Q379.60092 332.57367 378.92697 333.24762Q378.05414 334.12045 376.91614 333.99893Q375.5682 333.84424 373.85568 332.1317ZM374.61804 331.36935Q376.1096 332.86093 376.96033 333.00455Q377.81107 333.1482 378.3193 332.63995Q378.8386 332.12067 378.6839 331.28098Q378.54028 330.43024 377.0487 328.9387Q375.5461 327.4361 374.70642 327.3035Q373.86673 327.14883 373.3364 327.67917Q372.8282 328.18738 372.9497 328.92764Q373.11545 329.86676 374.61804 331.36935Z" fill-rule="nonzero"/><path fill="#000000" d="M397.63574 352.11853L396.8955 352.8588L392.14462 348.1079Q392.12253 348.63824 391.94574 349.34537Q391.76898 350.03036 391.548 350.49442L390.82983 349.77625Q391.15027 348.85922 391.2055 347.9864Q391.26074 347.09146 391.06186 346.49484L391.53696 346.01974L397.63574 352.11853ZM396.785 346.98096Q395.70224 345.89822 395.27136 345.02536Q394.8294 344.14148 394.90677 343.35706Q394.99515 342.56155 395.65805 341.89865Q396.1442 341.4125 396.70767 341.24677Q397.2822 341.07 397.9009 341.20258Q398.50858 341.3241 399.1715 341.72186Q399.8344 342.1196 400.7404 343.02557Q401.8121 344.0973 402.24298 344.97012Q402.68494 345.8319 402.6076 346.63846Q402.53024 347.4229 401.8563 348.09686Q400.98346 348.9697 399.84546 348.84818Q398.49753 348.69348 396.785 346.98096ZM397.54736 346.21863Q399.0389 347.71017 399.88965 347.8538Q400.7404 347.99744 401.24863 347.4892Q401.7679 346.9699 401.61322 346.13022Q401.4696 345.27948 399.97803 343.78793Q398.47543 342.28534 397.63574 342.15274Q396.79605 341.99808 396.26572 342.5284Q395.7575 343.03662 395.87903 343.7769Q396.04477 344.716 397.54736 346.21863ZM401.73477 342.03122Q400.652 340.94846 400.2211 340.07562Q399.77917 339.19174 399.8565 338.4073Q399.9449 337.61182 400.60782 336.94888Q401.09393 336.46274 401.6574 336.29703Q402.23193 336.12024 402.85065 336.25284Q403.45834 336.37436 404.12125 336.77213Q404.78415 337.16986 405.69012 338.07584Q406.76184 339.14755 407.19275 340.0204Q407.63467 340.88217 407.55734 341.68872Q407.48 342.47318 406.80603 343.14713Q405.9332 344.01996 404.7952 343.89844Q403.4473 343.74374 401.73477 342.03122ZM402.4971 341.26886Q403.98865 342.76044 404.8394 342.90405Q405.69012 343.0477 406.19836 342.53946Q406.71765 342.02017 406.56296 341.18048Q406.41934 340.32974 404.9278 338.8382Q403.42517 337.3356 402.5855 337.203Q401.74582 337.04834 401.21548 337.57864Q400.70724 338.08688 400.82877 338.82715Q400.9945 339.76627 402.4971 341.26886ZM406.6845 337.08148Q405.60175 335.99872 405.17087 335.1259Q404.7289 334.242 404.80624 333.45755Q404.89465 332.66205 405.55756 331.99915Q406.0437 331.513 406.60718 331.3473Q407.1817 331.1705 407.8004 331.30307Q408.40808 331.42462 409.07098 331.82236Q409.73392 332.22012 410.6399 333.1261Q411.71158 334.1978 412.1425 335.07065Q412.58444 335.93243 412.50708 336.73895Q412.42975 337.5234 411.7558 338.1974Q410.88297 339.07022 409.74496 338.94867Q408.39703 338.794 406.6845 337.08148ZM407.44687 336.31912Q408.93842 337.81067 409.78915 337.9543Q410.6399 338.09793 411.14813 337.5897Q411.6674 337.07043 411.51273 336.23074Q411.36908 335.38 409.87753 333.88843Q408.37494 332.38583 407.53525 332.25327Q406.69556 332.09857 406.16522 332.6289Q405.65698 333.13715 405.77853 333.87738Q405.94424 334.81653 407.44687 336.31912ZM411.63425 332.1317Q410.55148 331.04898 410.1206 330.17612Q409.67865 329.29224 409.756 328.5078Q409.8444 327.7123 410.5073 327.0494Q410.99344 326.56326 411.55692 326.39752Q412.13144 326.22076 412.75015 326.35333Q413.35782 326.47488 414.02075 326.87262Q414.68365 327.27036 415.58963 328.17633Q416.66135 329.24805 417.09222 330.12088Q417.53418 330.98267 417.45685 331.7892Q417.3795 332.57367 416.70554 333.24762Q415.8327 334.12045 414.6947 333.99893Q413.34677 333.84424 411.63425 332.1317ZM412.3966 331.3694Q413.88815 332.86093 414.7389 333.00455Q415.58963 333.1482 416.09787 332.63995Q416.61716 332.12067 416.46246 331.28098Q416.31885 330.43024 414.82727 328.9387Q413.32468 327.4361 412.485 327.3035Q411.6453 327.14883 411.11496 327.67917Q410.60675 328.1874 410.72827 328.92764Q410.894 329.86676 412.3966 331.3694Z" fill-rule="nonzero"/><path fill="#000000" d="M435.4143 352.11853L434.67407 352.8588L429.9232 348.1079Q429.9011 348.63824 429.7243 349.34537Q429.54755 350.03036 429.32657 350.49442L428.6084 349.77625Q428.92883 348.85922 428.98407 347.9864Q429.0393 347.09146 428.84042 346.49484L429.31552 346.01974L435.4143 352.11853ZM440.36407 347.1688L439.6238 347.90906L434.87292 343.15817Q434.85083 343.6885 434.67407 344.3956Q434.49728 345.08063 434.2763 345.54465L433.55817 344.8265Q433.87857 343.9095 433.9338 343.03665Q433.98904 342.14172 433.7902 341.54507L434.26526 341.07L440.36407 347.1688ZM439.51334 342.03122Q438.43057 340.94846 437.99966 340.07562Q437.55774 339.19174 437.63507 338.4073Q437.72345 337.61182 438.38638 336.94888Q438.8725 336.46277 439.43597 336.29703Q440.0105 336.12024 440.62924 336.25284Q441.2369 336.37436 441.8998 336.77213Q442.5627 337.16986 443.4687 338.07584Q444.5404 339.14755 444.9713 340.0204Q445.41324 340.88217 445.3359 341.68872Q445.25858 342.47318 444.5846 343.14713Q443.71176 344.01996 442.57376 343.89844Q441.22586 343.74374 439.51334 342.03122ZM440.27567 341.26886Q441.76724 342.76044 442.61795 342.90405Q443.4687 343.0477 443.97693 342.53946Q444.49622 342.02017 444.34155 341.18048Q444.1979 340.32974 442.70636 338.8382Q441.20377 337.3356 440.36407 337.203Q439.52438 337.04834 438.99405 337.57867Q438.4858 338.08688 438.60733 338.82715Q438.77307 339.76627 440.27567 341.26886ZM444.46307 337.08148Q443.3803 335.99872 442.94943 335.1259Q442.50748 334.242 442.5848 333.45755Q442.67322 332.66205 443.33612 331.99915Q443.82227 331.513 444.38574 331.3473Q444.96027 331.1705 445.57898 331.3031Q446.18665 331.42462 446.84955 331.82236Q447.51248 332.22012 448.41846 333.1261Q449.49017 334.1978 449.92105 335.07065Q450.363 335.93243 450.28564 336.73898Q450.2083 337.5234 449.53436 338.1974Q448.66153 339.07022 447.52353 338.94867Q446.1756 338.794 444.46307 337.08148ZM445.22543 336.31912Q446.71698 337.81067 447.56772 337.9543Q448.41846 338.09793 448.9267 337.58972Q449.44595 337.07043 449.2913 336.23074Q449.14764 335.38 447.6561 333.88846Q446.1535 332.38583 445.3138 332.25327Q444.47412 332.09857 443.9438 332.6289Q443.43555 333.13715 443.5571 333.8774Q443.7228 334.81653 445.22543 336.31912ZM449.4128 332.1317Q448.33005 331.04898 447.89917 330.17615Q447.4572 329.29227 447.53458 328.5078Q447.62296 327.7123 448.28586 327.0494Q448.772 326.56326 449.33548 326.39752Q449.91 326.22076 450.52872 326.35333Q451.13638 326.47488 451.79932 326.87262Q452.46222 327.27036 453.3682 328.17636Q454.4399 329.24805 454.8708 330.12088Q455.31274 330.98267 455.2354 331.7892Q455.15805 332.57367 454.4841 333.24762Q453.61127 334.12045 452.47327 333.99893Q451.12534 333.84424 449.4128 332.1317ZM450.17517 331.3694Q451.66672 332.86093 452.51746 333.00458Q453.3682 333.1482 453.87643 332.63995Q454.39572 332.12067 454.24103 331.281Q454.0974 330.43027 452.60583 328.9387Q451.10324 327.4361 450.26355 327.30353Q449.42386 327.14883 448.89352 327.67917Q448.3853 328.1874 448.50684 328.92764Q448.67258 329.8668 450.17517 331.3694Z" fill-rule="nonzero"/><path fill="#000000" d="M473.19287 352.11856L472.45264 352.8588L467.70175 348.10794Q467.67966 348.63824 467.50287 349.34537Q467.3261 350.03036 467.10513 350.49442L466.387 349.77625Q466.7074 348.85922 466.76263 347.9864Q466.81787 347.09146 466.619 346.49484L467.0941 346.01974L473.19287 352.11856ZM478.54037 345.33475L479.25854 346.0529L475.23688 350.07455Q474.9717 349.80942 474.80597 349.4669Q474.55185 348.9034 474.48557 348.17422Q474.43033 347.43396 474.55185 346.27386Q474.72864 344.4619 474.59604 343.64432Q474.47452 342.81567 474.05466 342.39584Q473.61273 341.9539 472.99402 341.97598Q472.36423 341.98703 471.85602 342.49527Q471.31464 343.03665 471.31464 343.67746Q471.31464 344.31827 471.8781 344.90384L471.03842 345.58887Q470.25397 344.64972 470.32025 343.69955Q470.38657 342.7273 471.2594 341.85446Q472.13223 340.98163 473.1266 340.95953Q474.12097 340.9374 474.8391 341.65558Q475.2037 342.02017 475.4026 342.5284Q475.60147 343.01456 475.64566 343.76584Q475.68985 344.49506 475.56833 345.9645Q475.45782 347.20193 475.46887 347.61075Q475.47992 347.99744 475.55728 348.31784L478.54037 345.33475ZM477.2919 342.03122Q476.20914 340.9485 475.77823 340.07562Q475.3363 339.19174 475.41364 338.40732Q475.502 337.61182 476.16495 336.9489Q476.65106 336.46277 477.21454 336.29703Q477.78906 336.12027 478.4078 336.25284Q479.01547 336.37436 479.67838 336.77213Q480.34128 337.16986 481.24728 338.07584Q482.31897 339.14755 482.74988 340.0204Q483.1918 340.88217 483.11447 341.68872Q483.03714 342.47318 482.36316 343.14713Q481.49033 344.01996 480.35233 343.89844Q479.00443 343.74374 477.2919 342.03122ZM478.05423 341.2689Q479.5458 342.76044 480.39655 342.90405Q481.24728 343.0477 481.7555 342.53946Q482.27478 342.02017 482.12012 341.18048Q481.97647 340.32974 480.48492 338.8382Q478.98233 337.3356 478.14264 337.203Q477.30295 337.04834 476.7726 337.57867Q476.26437 338.08688 476.38593 338.82715Q476.55164 339.76627 478.05423 341.2689ZM482.24164 337.08148Q481.15887 335.99872 480.728 335.1259Q480.28604 334.242 480.36337 333.45755Q480.45178 332.66208 481.1147 331.99915Q481.60083 331.513 482.1643 331.3473Q482.73883 331.1705 483.35754 331.3031Q483.9652 331.42462 484.6281 331.8224Q485.29105 332.22012 486.19702 333.1261Q487.26874 334.1978 487.69962 335.07065Q488.14157 335.93243 488.0642 336.73898Q487.98688 337.52344 487.31293 338.1974Q486.4401 339.07022 485.3021 338.9487Q483.95416 338.794 482.24164 337.08148ZM483.004 336.31912Q484.49554 337.8107 485.34628 337.9543Q486.19702 338.09796 486.70526 337.58972Q487.22452 337.07043 487.06985 336.23074Q486.9262 335.38 485.43466 333.88846Q483.93207 332.38586 483.09238 332.25327Q482.2527 332.0986 481.72235 332.6289Q481.2141 333.13715 481.33566 333.8774Q481.50137 334.81653 483.004 336.31912ZM487.19138 332.13174Q486.10864 331.04898 485.67773 330.17615Q485.2358 329.29227 485.31314 328.5078Q485.40152 327.7123 486.06442 327.0494Q486.55057 326.56326 487.11404 326.39755Q487.68857 326.22076 488.30728 326.35333Q488.91495 326.47488 489.57788 326.87262Q490.24078 327.2704 491.14676 328.17636Q492.21848 329.24808 492.64935 330.1209Q493.0913 330.9827 493.01398 331.7892Q492.9366 332.57367 492.26266 333.24765Q491.38983 334.12048 490.25183 333.99893Q488.9039 333.84427 487.19138 332.13174ZM487.95374 331.3694Q489.44528 332.86093 490.29602 333.00458Q491.14676 333.1482 491.655 332.63995Q492.1743 332.1207 492.0196 331.281Q491.87598 330.43027 490.38443 328.9387Q488.8818 327.4361 488.0421 327.30353Q487.20242 327.14883 486.67212 327.67917Q486.16388 328.1874 486.2854 328.92764Q486.45114 329.8668 487.95374 331.3694Z" fill-rule="nonzero"/><path fill="#000000" d="M510.97144 352.11856L510.2312 352.8588L505.48032 348.10794Q505.45822 348.63828 505.28143 349.34537Q505.10468 350.03036 504.8837 350.49442L504.16556 349.77628Q504.48596 348.85922 504.5412 347.9864Q504.59644 347.09146 504.39755 346.49484L504.87265 346.01974L510.97144 352.11856ZM511.51282 348.3731L512.1647 347.52237Q512.916 348.03058 513.51263 348.00848Q514.0982 347.97534 514.5401 347.53342Q515.07043 347.00308 515.07043 346.27386Q515.07043 345.54468 514.52905 345.0033Q514.0209 344.49506 513.34686 344.5061Q512.6729 344.49506 512.1536 345.01434Q511.94373 345.22427 511.7117 345.63306L511.13718 344.88174Q511.22556 344.81546 511.26974 344.77127Q511.74484 344.29617 511.87744 343.67746Q512.01 343.03665 511.49072 342.51736Q511.08194 342.10858 510.54056 342.11963Q509.98813 342.11963 509.54617 342.56155Q509.1153 342.99246 509.0932 343.567Q509.08215 344.13046 509.54617 344.74918L508.6623 345.3679Q508.05463 344.49506 508.13196 343.60013Q508.19827 342.69415 508.9164 341.97598Q509.4136 341.47882 510.0544 341.27994Q510.68417 341.07 511.26974 341.21365Q511.85535 341.35727 512.27515 341.77713Q512.66187 342.16382 512.7834 342.7052Q512.8939 343.23553 512.6729 343.83215Q513.32477 343.42334 514.0209 343.5228Q514.7059 343.61118 515.3025 344.2078Q516.09796 345.0033 516.0648 346.1413Q516.0427 347.26825 515.1589 348.15213Q514.36334 348.94763 513.3579 349.00287Q512.3415 349.04706 511.51282 348.3731ZM515.07043 342.03122Q513.9877 340.9485 513.5568 340.07565Q513.11487 339.19177 513.1922 338.40732Q513.2806 337.61182 513.9435 336.9489Q514.4296 336.46277 514.9931 336.29703Q515.5676 336.12027 516.18634 336.25284Q516.794 336.3744 517.457 336.77213Q518.1199 337.16986 519.0258 338.07587Q520.09753 339.14755 520.52844 340.0204Q520.9704 340.88217 520.89307 341.68872Q520.8157 342.47318 520.1417 343.14713Q519.2689 344.01996 518.1309 343.89844Q516.78296 343.74374 515.07043 342.03122ZM515.8328 341.2689Q517.32434 342.76044 518.1751 342.90408Q519.0258 343.0477 519.53406 342.53946Q520.05334 342.02017 519.8987 341.18048Q519.75507 340.32977 518.2635 338.8382Q516.76086 337.3356 515.9212 337.20303Q515.0815 337.04834 514.55115 337.57867Q514.04297 338.0869 514.1645 338.82715Q514.3302 339.7663 515.8328 341.2689ZM520.0202 337.08148Q518.93744 335.99872 518.50653 335.1259Q518.06464 334.242 518.14197 333.45755Q518.23035 332.66208 518.89325 331.99915Q519.3794 331.51303 519.9429 331.3473Q520.5174 331.1705 521.1361 331.3031Q521.7438 331.42462 522.4067 331.8224Q523.0696 332.22012 523.9756 333.1261Q525.0473 334.1978 525.4782 335.07065Q525.9201 335.93243 525.8428 336.73898Q525.76544 337.52344 525.0915 338.1974Q524.2186 339.07022 523.0806 338.9487Q521.7327 338.794 520.0202 337.08148ZM520.78253 336.31912Q522.2741 337.8107 523.1248 337.9543Q523.9756 338.09796 524.4838 337.58972Q525.0031 337.07043 524.8484 336.23074Q524.7048 335.38 523.21326 333.88846Q521.71063 332.38586 520.871 332.25327Q520.03125 332.0986 519.5009 332.62894Q518.9927 333.13715 519.1142 333.8774Q519.27997 334.81653 520.78253 336.31912ZM524.97 332.13174Q523.8872 331.04898 523.4563 330.17615Q523.01434 329.29227 523.0917 328.5078Q523.1801 327.7123 523.843 327.0494Q524.32916 326.56326 524.89264 326.39755Q525.46716 326.22076 526.0859 326.35336Q526.69354 326.47488 527.35645 326.87262Q528.01935 327.2704 528.92535 328.17636Q529.9971 329.24808 530.4279 330.1209Q530.8699 330.9827 530.79254 331.78925Q530.7152 332.57367 530.04126 333.24765Q529.1684 334.12048 528.0304 333.99893Q526.6825 333.84427 524.97 332.13174ZM525.7323 331.3694Q527.2239 332.86093 528.0746 333.00458Q528.92535 333.1482 529.4336 332.63998Q529.9528 332.1207 529.79816 331.281Q529.65454 330.43027 528.16296 328.93872Q526.6604 327.4361 525.8207 327.30353Q524.981 327.14883 524.4507 327.67917Q523.94244 328.1874 524.06396 328.92767Q524.2297 329.8668 525.7323 331.3694Z" fill-rule="nonzero"/><path fill="#000000" d="M548.75 352.11856L548.00977 352.85883L543.2589 348.10794Q543.2368 348.63828 543.06 349.34537Q542.88324 350.0304 542.6623 350.49442L541.9441 349.77628Q542.2645 348.85925 542.31976 347.9864Q542.375 347.09146 542.17615 346.49484L542.65125 346.01978L548.75 352.11856ZM553.2799 347.58865L551.82153 346.13025L549.19196 348.7598L548.50696 348.0748L547.34686 341.36832L547.9545 340.76065L551.8878 344.69394L552.7054 343.87634L553.3904 344.56134L552.5728 345.37894L554.0312 346.83734L553.2799 347.58865ZM551.1365 345.44525L548.40753 342.71625L549.23615 347.34558L551.1365 345.44525ZM552.849 342.03125Q551.7663 340.9485 551.3354 340.07565Q550.89343 339.19177 550.97076 338.40732Q551.05914 337.61182 551.72205 336.9489Q552.2082 336.46277 552.77167 336.29706Q553.3462 336.12027 553.9649 336.25284Q554.5726 336.3744 555.23553 336.77213Q555.89844 337.1699 556.8044 338.07587Q557.8761 339.14758 558.307 340.02042Q558.74896 340.8822 558.67163 341.68872Q558.59424 342.47318 557.9203 343.14716Q557.0475 344.02 555.9095 343.89844Q554.5615 343.74377 552.849 342.03125ZM553.6114 341.2689Q555.1029 342.76044 555.9537 342.90408Q556.8044 343.0477 557.3126 342.53946Q557.8319 342.0202 557.67725 341.1805Q557.5336 340.32977 556.04205 338.8382Q554.5394 337.3356 553.69977 337.20303Q552.86005 337.04834 552.3298 337.57867Q551.82153 338.0869 551.94305 338.82715Q552.10876 339.7663 553.6114 341.2689ZM557.79877 337.08148Q556.716 335.99875 556.2851 335.1259Q555.8432 334.242 555.92053 333.45758Q556.0089 332.66208 556.6718 331.99918Q557.15796 331.51303 557.72144 331.3473Q558.29596 331.17053 558.9147 331.3031Q559.52234 331.42462 560.18524 331.8224Q560.84814 332.22012 561.75415 333.1261Q562.82587 334.1978 563.2568 335.07065Q563.69867 335.93243 563.62134 336.73898Q563.544 337.52344 562.87006 338.1974Q561.9972 339.07022 560.8592 338.9487Q559.5113 338.794 557.79877 337.08148ZM558.5611 336.31915Q560.0527 337.8107 560.90344 337.9543Q561.75415 338.09796 562.2624 337.58972Q562.7817 337.07043 562.627 336.23074Q562.48334 335.38 560.9918 333.88846Q559.4892 332.38586 558.64954 332.25327Q557.8098 332.0986 557.2795 332.62894Q556.77124 333.13715 556.89276 333.8774Q557.05853 334.81653 558.5611 336.31915ZM562.74854 332.13174Q561.6658 331.04898 561.23486 330.17615Q560.7929 329.29227 560.87024 328.5078Q560.9587 327.71234 561.6216 327.0494Q562.1077 326.56326 562.6712 326.39755Q563.2457 326.22076 563.86444 326.35336Q564.4721 326.47488 565.135 326.87265Q565.7979 327.2704 566.7039 328.17636Q567.77563 329.24808 568.2065 330.1209Q568.64844 330.9827 568.5711 331.78925Q568.4938 332.5737 567.8198 333.24765Q566.94696 334.12048 565.80896 333.99896Q564.46106 333.84427 562.74854 332.13174ZM563.51086 331.3694Q565.00244 332.86096 565.85315 333.00458Q566.7039 333.14822 567.21216 332.63998Q567.7314 332.1207 567.5767 331.281Q567.4331 330.43027 565.9415 328.93872Q564.43896 327.43613 563.59924 327.30353Q562.7596 327.14886 562.22925 327.67917Q561.721 328.1874 561.8425 328.92767Q562.00824 329.8668 563.51086 331.3694Z" fill-rule="nonzero"/></svg>